<?xml version="1.0" encoding="UTF-8" standalone="no"?>
<!-- Created with Inkscape (http://www.inkscape.org/) -->

<svg
   width="400mm"
   height="300mm"
   viewBox="0 0 400 300"
   version="1.1"
   id="svg1"
   inkscape:version="1.3.2 (1:1.3.2+202311252150+091e20ef0f)"
   sodipodi:docname="Motorspeed.svg"
   xmlns:inkscape="http://www.inkscape.org/namespaces/inkscape"
   xmlns:sodipodi="http://sodipodi.sourceforge.net/DTD/sodipodi-0.dtd"
   xmlns="http://www.w3.org/2000/svg"
   xmlns:svg="http://www.w3.org/2000/svg">
  <sodipodi:namedview
     id="namedview1"
     pagecolor="#ffffff"
     bordercolor="#000000"
     borderopacity="0.25"
     inkscape:showpageshadow="2"
     inkscape:pageopacity="0.0"
     inkscape:pagecheckerboard="0"
     inkscape:deskcolor="#d1d1d1"
     inkscape:document-units="mm"
     showgrid="true"
     inkscape:zoom="1.2505228"
     inkscape:cx="560.56556"
     inkscape:cy="904.02191"
     inkscape:window-width="1709"
     inkscape:window-height="667"
     inkscape:window-x="72"
     inkscape:window-y="360"
     inkscape:window-maximized="0"
     inkscape:current-layer="layer1">
    <inkscape:grid
       id="grid1"
       units="mm"
       originx="0"
       originy="0"
       spacingx="0.99999999"
       spacingy="0.99999999"
       empcolor="#3f3fff"
       empopacity="0.25098039"
       color="#3f3fff"
       opacity="0.1254902"
       empspacing="5"
       dotted="false"
       gridanglex="30"
       gridanglez="30"
       visible="true" />
  </sodipodi:namedview>
  <defs
     id="defs1" />
  <g
     inkscape:label="Ebene 1"
     inkscape:groupmode="layer"
     id="layer1">
    <path
       id="text13"
       style="font-size:4.23333px;line-height:1.2;font-family:'Abyssinica SIL';-inkscape-font-specification:'Abyssinica SIL, Normal';letter-spacing:-0.0661458px;word-spacing:0px;writing-mode:lr-tb;fill:#ff0000;stroke:none;stroke-width:0.2;stroke-linecap:round;stroke-opacity:0.997898"
       d="m 41.155627,153.54532 c -0.286631,0 -0.509185,0.0675 -0.667659,0.20258 -0.158474,0.13367 -0.24598,0.33417 -0.262516,0.60151 h 0.452685 c 0.0055,-0.0717 0.02412,-0.14401 0.05581,-0.21704 0.03169,-0.0744 0.08062,-0.13643 0.146761,-0.18604 0.06615,-0.051 0.153651,-0.0765 0.262516,-0.0765 0.107487,0 0.190169,0.0227 0.248047,0.0682 0.05926,0.0441 0.09991,0.0978 0.121956,0.16123 0.02205,0.0634 0.03307,0.12264 0.03307,0.17776 0,0.0882 -0.02205,0.18122 -0.06615,0.27906 -0.04272,0.0978 -0.115755,0.20808 -0.219108,0.33072 -0.103352,0.12127 -0.243224,0.26183 -0.419612,0.42168 -0.176389,0.15848 -0.397565,0.34245 -0.663526,0.55191 v 0.37207 h 1.769401 v -0.40308 h -1.324983 c 0.276985,-0.18328 0.518142,-0.35622 0.72347,-0.51883 0.206705,-0.16261 0.367247,-0.32728 0.481624,-0.49403 0.114377,-0.16674 0.171566,-0.34795 0.171566,-0.54363 0,-0.22049 -0.07304,-0.39688 -0.219108,-0.52917 -0.144694,-0.13229 -0.352779,-0.19844 -0.624252,-0.19844 z m 2.164209,0 c -0.223241,0 -0.403076,0.0606 -0.539502,0.18191 -0.135047,0.11988 -0.233577,0.2818 -0.295589,0.48575 -0.06063,0.20258 -0.09095,0.42857 -0.09095,0.678 0,0.24805 0.03032,0.47404 0.09095,0.67799 0.06063,0.20258 0.158475,0.3645 0.293522,0.48576 0.136426,0.12127 0.31695,0.1819 0.541569,0.1819 0.230132,0 0.413412,-0.0606 0.549838,-0.1819 0.136425,-0.12126 0.234266,-0.28318 0.293522,-0.48576 0.05926,-0.20395 0.08888,-0.42994 0.08888,-0.67799 0,-0.24943 -0.03032,-0.47542 -0.09095,-0.678 -0.06063,-0.20395 -0.159164,-0.36587 -0.295589,-0.48575 -0.136426,-0.12127 -0.318328,-0.18191 -0.545704,-0.18191 z m 0,0.32867 c 0.13367,0 0.233578,0.0455 0.299724,0.13642 0.06752,0.0909 0.112999,0.2136 0.136426,0.36794 0.02343,0.15296 0.03514,0.32384 0.03514,0.51263 0,0.18741 -0.0124,0.35829 -0.03721,0.51263 -0.02343,0.15434 -0.0689,0.27767 -0.136425,0.37 -0.06752,0.091 -0.166743,0.13643 -0.297657,0.13643 -0.130913,0 -0.230132,-0.0455 -0.297656,-0.13643 -0.06752,-0.0923 -0.112999,-0.21566 -0.136426,-0.37 -0.02343,-0.15434 -0.03514,-0.32522 -0.03514,-0.51263 0,-0.18879 0.01171,-0.35967 0.03514,-0.51263 0.02481,-0.15434 0.07097,-0.27699 0.138493,-0.36794 0.06752,-0.091 0.166054,-0.13642 0.295589,-0.13642 z" />
    <g
       id="g10"
       transform="translate(-70,-30)">
      <path
         style="fill:none;stroke:#0000ff;stroke-width:0.2;stroke-linecap:round;stroke-opacity:0.997898"
         d="M 125,45.000001 V 200 h 200"
         id="path1"
         sodipodi:nodetypes="ccc" />
      <text
         xml:space="preserve"
         style="font-size:4.23333px;line-height:1.2;font-family:'Abyssinica SIL';-inkscape-font-specification:'Abyssinica SIL, Normal';letter-spacing:-0.0661458px;word-spacing:0px;writing-mode:lr-tb;fill:#000000;stroke:none;stroke-width:0.2;stroke-linecap:round;stroke-opacity:0.997898"
         x="121"
         y="186"
         id="text1"><tspan
           sodipodi:role="line"
           id="tspan1"
           style="font-size:4.23333px;fill:#000000;stroke:none;stroke-width:0.2"
           x="121"
           y="186">3</tspan></text>
      <text
         xml:space="preserve"
         style="font-size:4.23333px;line-height:1.2;font-family:'Abyssinica SIL';-inkscape-font-specification:'Abyssinica SIL, Normal';letter-spacing:-0.0661458px;word-spacing:0px;writing-mode:lr-tb;fill:#000000;stroke:none;stroke-width:0.2;stroke-linecap:round;stroke-opacity:0.997898"
         x="120.87139"
         y="181.30431"
         id="text2"><tspan
           sodipodi:role="line"
           id="tspan2"
           style="stroke-width:0.2"
           x="120.87139"
           y="181.30431">4</tspan></text>
      <text
         xml:space="preserve"
         style="font-size:4.23333px;line-height:1.2;font-family:'Abyssinica SIL';-inkscape-font-specification:'Abyssinica SIL, Normal';letter-spacing:-0.0661458px;word-spacing:0px;writing-mode:lr-tb;fill:#000000;stroke:none;stroke-width:0.2;stroke-linecap:round;stroke-opacity:0.997898"
         x="120.92513"
         y="176.30638"
         id="text3"><tspan
           sodipodi:role="line"
           id="tspan3"
           style="stroke-width:0.2"
           x="120.92513"
           y="176.30638">5</tspan></text>
      <text
         xml:space="preserve"
         style="font-size:4.23333px;line-height:1.2;font-family:'Abyssinica SIL';-inkscape-font-specification:'Abyssinica SIL, Normal';letter-spacing:-0.0661458px;word-spacing:0px;writing-mode:lr-tb;fill:#000000;stroke:none;stroke-width:0.2;stroke-linecap:round;stroke-opacity:0.997898"
         x="120.88689"
         y="171.34358"
         id="text4"><tspan
           sodipodi:role="line"
           id="tspan4"
           style="stroke-width:0.2"
           x="120.88689"
           y="171.34358">6</tspan></text>
      <text
         xml:space="preserve"
         style="font-size:4.23333px;line-height:1.2;font-family:'Abyssinica SIL';-inkscape-font-specification:'Abyssinica SIL, Normal';letter-spacing:-0.0661458px;word-spacing:0px;writing-mode:lr-tb;fill:#000000;stroke:none;stroke-width:0.2;stroke-linecap:round;stroke-opacity:0.997898"
         x="120.9117"
         y="161.34358"
         id="text5"><tspan
           sodipodi:role="line"
           id="tspan5"
           style="stroke-width:0.2"
           x="120.9117"
           y="161.34358">8</tspan></text>
      <text
         xml:space="preserve"
         style="font-size:4.23333px;line-height:1.2;font-family:'Abyssinica SIL';-inkscape-font-specification:'Abyssinica SIL, Normal';letter-spacing:-0.0661458px;word-spacing:0px;writing-mode:lr-tb;fill:#000000;stroke:none;stroke-width:0.2;stroke-linecap:round;stroke-opacity:0.997898"
         x="118.63322"
         y="151.34152"
         id="text6"><tspan
           sodipodi:role="line"
           id="tspan6"
           style="stroke-width:0.2"
           x="118.63322"
           y="151.34152">10</tspan></text>
      <text
         xml:space="preserve"
         style="font-size:4.23333px;line-height:1.2;font-family:'Abyssinica SIL';-inkscape-font-specification:'Abyssinica SIL, Normal';letter-spacing:-0.0661458px;word-spacing:0px;writing-mode:lr-tb;fill:#000000;stroke:none;stroke-width:0.2;stroke-linecap:round;stroke-opacity:0.997898"
         x="118.64976"
         y="141.34358"
         id="text7"><tspan
           sodipodi:role="line"
           id="tspan7"
           style="stroke-width:0.2"
           x="118.64976"
           y="141.34358">12</tspan></text>
      <text
         xml:space="preserve"
         style="font-size:4.23333px;line-height:1.2;font-family:'Abyssinica SIL';-inkscape-font-specification:'Abyssinica SIL, Normal';letter-spacing:-0.0661458px;word-spacing:0px;writing-mode:lr-tb;fill:#000000;stroke:none;stroke-width:0.2;stroke-linecap:round;stroke-opacity:0.997898"
         x="118.62289"
         y="121.34359"
         id="text8"><tspan
           sodipodi:role="line"
           id="tspan8"
           style="stroke-width:0.2"
           x="118.62289"
           y="121.34359">16</tspan></text>
      <text
         xml:space="preserve"
         style="font-size:4.23333px;line-height:1.2;font-family:'Abyssinica SIL';-inkscape-font-specification:'Abyssinica SIL, Normal';letter-spacing:-0.0661458px;word-spacing:0px;writing-mode:lr-tb;fill:#000000;stroke:none;stroke-width:0.2;stroke-linecap:round;stroke-opacity:0.997898"
         x="119.78515"
         y="101.34152"
         id="text9"><tspan
           sodipodi:role="line"
           id="tspan9"
           style="stroke-width:0.2"
           x="119.78515"
           y="101.34152">20</tspan></text>
      <text
         xml:space="preserve"
         style="font-size:4.23333px;line-height:1.2;font-family:'Abyssinica SIL';-inkscape-font-specification:'Abyssinica SIL, Normal';letter-spacing:-0.0661458px;word-spacing:0px;writing-mode:lr-tb;fill:#000000;stroke:none;stroke-width:0.2;stroke-linecap:round;stroke-opacity:0.997898"
         x="119.74898"
         y="81.34359"
         id="text10"><tspan
           sodipodi:role="line"
           id="tspan10"
           style="stroke-width:0.2"
           x="119.74898"
           y="81.34359">24</tspan></text>
      <text
         xml:space="preserve"
         style="font-size:4.23333px;line-height:1.2;font-family:'Abyssinica SIL';-inkscape-font-specification:'Abyssinica SIL, Normal';letter-spacing:-0.0661458px;word-spacing:0px;writing-mode:lr-tb;fill:#000000;stroke:none;stroke-width:0.2;stroke-linecap:round;stroke-opacity:0.997898"
         x="119.78515"
         y="51.341522"
         id="text24"><tspan
           sodipodi:role="line"
           id="tspan23"
           style="stroke-width:0.2"
           x="119.78515"
           y="51.341522">30</tspan></text>
    </g>
    <path
       style="fill:none;stroke:#ff0000;stroke-width:0.2;stroke-linecap:round;stroke-opacity:0.997898"
       d="m 55,20 c 0,0 5.306512,26.217244 6,30.000001 0.794257,4.332413 3.04225,16.499051 4.000001,19.999999 1.86379,6.81287 3.886315,13.66014 7,20 3.505159,7.13695 8.158982,13.69233 13,20 2.73036,3.55756 5.565099,7.11685 9,10 4.817258,4.04346 10.372519,7.19161 15.999999,10 8.30844,4.14632 17.10378,7.33927 26,10 7.51674,2.24815 15.28415,3.57828 23,5 10.94136,2.01605 21.94767,3.72575 33,5 20.92741,2.41276 63,5 63,5"
       id="path10"
       sodipodi:nodetypes="csssssssssc" />
    <text
       xml:space="preserve"
       style="font-size:4.23333px;line-height:1.2;font-family:'Abyssinica SIL';-inkscape-font-specification:'Abyssinica SIL, Normal';letter-spacing:-0.0661458px;word-spacing:0px;writing-mode:lr-tb;fill:#ff0000;stroke:none;stroke-width:0.2;stroke-linecap:round;stroke-opacity:0.997898"
       x="51.88044"
       y="10"
       id="text11"><tspan
         sodipodi:role="line"
         id="tspan11"
         style="fill:#ff0000;stroke:none;stroke-width:0.2"
         x="51.88044"
         y="10">sec/U</tspan></text>
    <text
       xml:space="preserve"
       style="font-size:4.23333px;line-height:1.2;font-family:'Abyssinica SIL';-inkscape-font-specification:'Abyssinica SIL, Normal';letter-spacing:-0.0661458px;word-spacing:0px;writing-mode:lr-tb;fill:#ff0000;stroke:none;stroke-width:0.2;stroke-linecap:round;stroke-opacity:0.997898"
       x="38.066654"
       y="15"
       id="text12"><tspan
         sodipodi:role="line"
         id="tspan12"
         style="stroke-width:0.2"
         x="38.066654"
         y="15">RPM</tspan></text>
    <text
       xml:space="preserve"
       style="font-size:4.23333px;line-height:1.2;font-family:'Abyssinica SIL';-inkscape-font-specification:'Abyssinica SIL, Normal';letter-spacing:-0.0661458px;word-spacing:0px;writing-mode:lr-tb;fill:#ff0000;stroke:none;stroke-width:0.2;stroke-linecap:round;stroke-opacity:0.997898"
       x="39.673531"
       y="151.30638"
       id="text14"><tspan
         sodipodi:role="line"
         id="tspan13"
         style="stroke-width:0.2"
         x="39.673531"
         y="151.30638">15</tspan></text>
    <text
       xml:space="preserve"
       style="font-size:4.23333px;line-height:1.2;font-family:'Abyssinica SIL';-inkscape-font-specification:'Abyssinica SIL, Normal';letter-spacing:-0.0661458px;word-spacing:0px;writing-mode:lr-tb;fill:#ff0000;stroke:none;stroke-width:0.2;stroke-linecap:round;stroke-opacity:0.997898"
       x="39.649757"
       y="146.34358"
       id="text15"><tspan
         sodipodi:role="line"
         id="tspan14"
         style="stroke-width:0.2"
         x="39.649757"
         y="146.34358">12</tspan></text>
    <text
       xml:space="preserve"
       style="font-size:4.23333px;line-height:1.2;font-family:'Abyssinica SIL';-inkscape-font-specification:'Abyssinica SIL, Normal';letter-spacing:-0.0661458px;word-spacing:0px;writing-mode:lr-tb;fill:#ff0000;stroke:none;stroke-width:0.2;stroke-linecap:round;stroke-opacity:0.997898"
       x="39.633221"
       y="141.34152"
       id="text16"><tspan
         sodipodi:role="line"
         id="tspan15"
         style="stroke-width:0.2"
         x="39.633221"
         y="141.34152">10</tspan></text>
    <text
       xml:space="preserve"
       style="font-size:4.23333px;line-height:1.2;font-family:'Abyssinica SIL';-inkscape-font-specification:'Abyssinica SIL, Normal';letter-spacing:-0.0661458px;word-spacing:0px;writing-mode:lr-tb;fill:#ff0000;stroke:none;stroke-width:0.2;stroke-linecap:round;stroke-opacity:0.997898"
       x="40.113358"
       y="130.95291"
       id="text17"><tspan
         sodipodi:role="line"
         id="tspan16"
         style="stroke-width:0.2"
         x="40.113358"
         y="130.95291">7,5</tspan></text>
    <text
       xml:space="preserve"
       style="font-size:4.23333px;line-height:1.2;font-family:'Abyssinica SIL';-inkscape-font-specification:'Abyssinica SIL, Normal';letter-spacing:-0.0661458px;word-spacing:0px;writing-mode:lr-tb;fill:#ff0000;stroke:none;stroke-width:0.2;stroke-linecap:round;stroke-opacity:0.997898"
       x="40.113358"
       y="120.95291"
       id="text18"><tspan
         sodipodi:role="line"
         id="tspan17"
         style="stroke-width:0.2"
         x="40.113358"
         y="120.95291">6</tspan></text>
    <text
       xml:space="preserve"
       style="font-size:4.23333px;line-height:1.2;font-family:'Abyssinica SIL';-inkscape-font-specification:'Abyssinica SIL, Normal';letter-spacing:-0.0661458px;word-spacing:0px;writing-mode:lr-tb;fill:#ff0000;stroke:none;stroke-width:0.2;stroke-linecap:round;stroke-opacity:0.997898"
       x="40.113358"
       y="110.95291"
       id="text19"><tspan
         sodipodi:role="line"
         id="tspan18"
         style="stroke-width:0.2"
         x="40.113358"
         y="110.95291">5</tspan></text>
    <text
       xml:space="preserve"
       style="font-size:4.23333px;line-height:1.2;font-family:'Abyssinica SIL';-inkscape-font-specification:'Abyssinica SIL, Normal';letter-spacing:-0.0661458px;word-spacing:0px;writing-mode:lr-tb;fill:#ff0000;stroke:none;stroke-width:0.2;stroke-linecap:round;stroke-opacity:0.997898"
       x="40.113358"
       y="90.952911"
       id="text20"><tspan
         sodipodi:role="line"
         id="tspan19"
         style="stroke-width:0.2"
         x="40.113358"
         y="90.952911">3,75</tspan></text>
    <text
       xml:space="preserve"
       style="font-size:4.23333px;line-height:1.2;font-family:'Abyssinica SIL';-inkscape-font-specification:'Abyssinica SIL, Normal';letter-spacing:-0.0661458px;word-spacing:0px;writing-mode:lr-tb;fill:#ff0000;stroke:none;stroke-width:0.2;stroke-linecap:round;stroke-opacity:0.997898"
       x="40.113358"
       y="70.952911"
       id="text21"><tspan
         sodipodi:role="line"
         id="tspan20"
         style="stroke-width:0.2"
         x="40.113358"
         y="70.952911">3</tspan></text>
    <text
       xml:space="preserve"
       style="font-size:4.23333px;line-height:1.2;font-family:'Abyssinica SIL';-inkscape-font-specification:'Abyssinica SIL, Normal';letter-spacing:-0.0661458px;word-spacing:0px;writing-mode:lr-tb;fill:#ff0000;stroke:none;stroke-width:0.2;stroke-linecap:round;stroke-opacity:0.997898"
       x="40.113358"
       y="50.952911"
       id="text22"><tspan
         sodipodi:role="line"
         id="tspan21"
         style="stroke-width:0.2"
         x="40.113358"
         y="50.952911">2,5</tspan></text>
    <text
       xml:space="preserve"
       style="font-size:4.23333px;line-height:1.2;font-family:'Abyssinica SIL';-inkscape-font-specification:'Abyssinica SIL, Normal';letter-spacing:-0.0661458px;word-spacing:0px;writing-mode:lr-tb;fill:#ff0000;stroke:none;stroke-width:0.2;stroke-linecap:round;stroke-opacity:0.997898"
       x="40.113358"
       y="20.952911"
       id="text23"><tspan
         sodipodi:role="line"
         id="tspan22"
         style="stroke-width:0.2"
         x="40.113358"
         y="20.952911">2</tspan></text>
    <g
       id="g47"
       transform="matrix(1,0,0,-1,0,475.03584)">
      <path
         id="path24"
         style="font-size:4.23333px;line-height:1.2;font-family:'Abyssinica SIL';-inkscape-font-specification:'Abyssinica SIL, Normal';letter-spacing:-0.0661458px;word-spacing:0px;writing-mode:lr-tb;fill:#ff0000;stroke:none;stroke-width:0.2;stroke-linecap:round;stroke-opacity:0.997898"
         d="m 41.155627,281.23658 c -0.286631,0 -0.509185,-0.0675 -0.667659,-0.20258 -0.158474,-0.13367 -0.24598,-0.33417 -0.262516,-0.60151 h 0.452685 c 0.0055,0.0717 0.02412,0.14401 0.05581,0.21704 0.03169,0.0744 0.08062,0.13643 0.146761,0.18604 0.06615,0.051 0.153651,0.0765 0.262516,0.0765 0.107487,0 0.190169,-0.0227 0.248047,-0.0682 0.05926,-0.0441 0.09991,-0.0978 0.121956,-0.16123 0.02205,-0.0634 0.03307,-0.12264 0.03307,-0.17776 0,-0.0882 -0.02205,-0.18122 -0.06615,-0.27906 -0.04272,-0.0978 -0.115755,-0.20808 -0.219108,-0.33072 -0.103352,-0.12127 -0.243224,-0.26183 -0.419612,-0.42168 -0.176389,-0.15848 -0.397565,-0.34245 -0.663526,-0.55191 v -0.37207 h 1.769401 v 0.40308 h -1.324983 c 0.276985,0.18328 0.518142,0.35622 0.72347,0.51883 0.206705,0.16261 0.367247,0.32728 0.481624,0.49403 0.114377,0.16674 0.171566,0.34795 0.171566,0.54363 0,0.22049 -0.07304,0.39688 -0.219108,0.52917 -0.144694,0.13229 -0.352779,0.19844 -0.624252,0.19844 z m 2.164209,0 c -0.223241,0 -0.403076,-0.0606 -0.539502,-0.18191 -0.135047,-0.11988 -0.233577,-0.2818 -0.295589,-0.48575 -0.06063,-0.20258 -0.09095,-0.42857 -0.09095,-0.678 0,-0.24805 0.03032,-0.47404 0.09095,-0.67799 0.06063,-0.20258 0.158475,-0.3645 0.293522,-0.48576 0.136426,-0.12127 0.31695,-0.1819 0.541569,-0.1819 0.230132,0 0.413412,0.0606 0.549838,0.1819 0.136425,0.12126 0.234266,0.28318 0.293522,0.48576 0.05926,0.20395 0.08888,0.42994 0.08888,0.67799 0,0.24943 -0.03032,0.47542 -0.09095,0.678 -0.06063,0.20395 -0.159164,0.36587 -0.295589,0.48575 -0.136426,0.12127 -0.318328,0.18191 -0.545704,0.18191 z m 0,-0.32867 c 0.13367,0 0.233578,-0.0455 0.299724,-0.13642 0.06752,-0.0909 0.112999,-0.2136 0.136426,-0.36794 0.02343,-0.15296 0.03514,-0.32384 0.03514,-0.51263 0,-0.18741 -0.0124,-0.35829 -0.03721,-0.51263 -0.02343,-0.15434 -0.0689,-0.27767 -0.136425,-0.37 -0.06752,-0.091 -0.166743,-0.13643 -0.297657,-0.13643 -0.130913,0 -0.230132,0.0455 -0.297656,0.13643 -0.06752,0.0923 -0.112999,0.21566 -0.136426,0.37 -0.02343,0.15434 -0.03514,0.32522 -0.03514,0.51263 0,0.18879 0.01171,0.35967 0.03514,0.51263 0.02481,0.15434 0.07097,0.27699 0.138493,0.36794 0.06752,0.091 0.166054,0.13642 0.295589,0.13642 z" />
      <g
         id="g35"
         transform="translate(-70,60)">
        <path
           style="fill:none;stroke:#0000ff;stroke-width:0.2;stroke-linecap:round;stroke-opacity:0.997898"
           d="M 125,225 V 125 h 200"
           id="path25"
           sodipodi:nodetypes="ccc" />
        <text
           xml:space="preserve"
           style="font-size:4.23333px;line-height:1.2;font-family:'Abyssinica SIL';-inkscape-font-specification:'Abyssinica SIL, Normal';letter-spacing:-0.0661458px;word-spacing:0px;writing-mode:lr-tb;fill:#000000;stroke:none;stroke-width:0.2;stroke-linecap:round;stroke-opacity:0.997898"
           x="121"
           y="-218.31282"
           id="text25"
           transform="scale(1,-1)"><tspan
             sodipodi:role="line"
             id="tspan25"
             style="font-size:4.23333px;fill:#000000;stroke:none;stroke-width:0.2"
             x="121"
             y="-218.31282">3</tspan></text>
        <text
           xml:space="preserve"
           style="font-size:4.23333px;line-height:1.2;font-family:'Abyssinica SIL';-inkscape-font-specification:'Abyssinica SIL, Normal';letter-spacing:-0.0661458px;word-spacing:0px;writing-mode:lr-tb;fill:#000000;stroke:none;stroke-width:0.2;stroke-linecap:round;stroke-opacity:0.997898"
           x="120.87139"
           y="-193.69568"
           id="text26"
           transform="scale(1,-1)"><tspan
             sodipodi:role="line"
             id="tspan26"
             style="stroke-width:0.2"
             x="120.87139"
             y="-193.69568">4</tspan></text>
        <text
           xml:space="preserve"
           style="font-size:4.23333px;line-height:1.2;font-family:'Abyssinica SIL';-inkscape-font-specification:'Abyssinica SIL, Normal';letter-spacing:-0.0661458px;word-spacing:0px;writing-mode:lr-tb;fill:#000000;stroke:none;stroke-width:0.2;stroke-linecap:round;stroke-opacity:0.997898"
           x="120.92513"
           y="-178.69362"
           id="text27"
           transform="scale(1,-1)"><tspan
             sodipodi:role="line"
             id="tspan27"
             style="stroke-width:0.2"
             x="120.92513"
             y="-178.69362">5</tspan></text>
        <text
           xml:space="preserve"
           style="font-size:4.23333px;line-height:1.2;font-family:'Abyssinica SIL';-inkscape-font-specification:'Abyssinica SIL, Normal';letter-spacing:-0.0661458px;word-spacing:0px;writing-mode:lr-tb;fill:#000000;stroke:none;stroke-width:0.2;stroke-linecap:round;stroke-opacity:0.997898"
           x="120.88689"
           y="-168.6564"
           id="text28"
           transform="scale(1,-1)"><tspan
             sodipodi:role="line"
             id="tspan28"
             style="stroke-width:0.2"
             x="120.88689"
             y="-168.6564">6</tspan></text>
        <text
           xml:space="preserve"
           style="font-size:4.23333px;line-height:1.2;font-family:'Abyssinica SIL';-inkscape-font-specification:'Abyssinica SIL, Normal';letter-spacing:-0.0661458px;word-spacing:0px;writing-mode:lr-tb;fill:#000000;stroke:none;stroke-width:0.2;stroke-linecap:round;stroke-opacity:0.997898"
           x="118.63322"
           y="-148.65848"
           id="text30"
           transform="scale(1,-1)"><tspan
             sodipodi:role="line"
             id="tspan30"
             style="stroke-width:0.2"
             x="118.63322"
             y="-148.65848">10</tspan></text>
        <text
           xml:space="preserve"
           style="font-size:4.23333px;line-height:1.2;font-family:'Abyssinica SIL';-inkscape-font-specification:'Abyssinica SIL, Normal';letter-spacing:-0.0661458px;word-spacing:0px;writing-mode:lr-tb;fill:#000000;stroke:none;stroke-width:0.2;stroke-linecap:round;stroke-opacity:0.997898"
           x="118.64976"
           y="-143.6564"
           id="text31"
           transform="scale(1,-1)"><tspan
             sodipodi:role="line"
             id="tspan31"
             style="stroke-width:0.2"
             x="118.64976"
             y="-143.6564">12</tspan></text>
        <text
           xml:space="preserve"
           style="font-size:4.23333px;line-height:1.2;font-family:'Abyssinica SIL';-inkscape-font-specification:'Abyssinica SIL, Normal';letter-spacing:-0.0661458px;word-spacing:0px;writing-mode:lr-tb;fill:#000000;stroke:none;stroke-width:0.2;stroke-linecap:round;stroke-opacity:0.997898"
           x="119.78515"
           y="-133.65848"
           id="text33"
           transform="scale(1,-1)"><tspan
             sodipodi:role="line"
             id="tspan33"
             style="stroke-width:0.2"
             x="119.78515"
             y="-133.65848">20</tspan></text>
        <text
           xml:space="preserve"
           style="font-size:4.23333px;line-height:1.2;font-family:'Abyssinica SIL';-inkscape-font-specification:'Abyssinica SIL, Normal';letter-spacing:-0.0661458px;word-spacing:0px;writing-mode:lr-tb;fill:#000000;stroke:none;stroke-width:0.2;stroke-linecap:round;stroke-opacity:0.997898"
           x="119.78515"
           y="-128.65848"
           id="text35"
           transform="scale(1,-1)"><tspan
             sodipodi:role="line"
             id="tspan35"
             style="stroke-width:0.2"
             x="119.78515"
             y="-128.65848">30</tspan></text>
      </g>
      <path
         style="fill:none;stroke:#ff0000;stroke-width:0.2;stroke-linecap:round;stroke-opacity:0.997898"
         d="m 55,190 10.000001,5 20,10 9,5 L 136,230 l 23,10 33,15 63,25"
         id="path35"
         sodipodi:nodetypes="cccccccc" />
      <text
         xml:space="preserve"
         style="font-size:4.23333px;line-height:1.2;font-family:'Abyssinica SIL';-inkscape-font-specification:'Abyssinica SIL, Normal';letter-spacing:-0.0661458px;word-spacing:0px;writing-mode:lr-tb;fill:#ff0000;stroke:none;stroke-width:0.2;stroke-linecap:round;stroke-opacity:0.997898"
         x="51.88044"
         y="-290.10406"
         id="text36"
         transform="scale(1,-1)"><tspan
           sodipodi:role="line"
           id="tspan36"
           style="fill:#ff0000;stroke:none;stroke-width:0.2"
           x="51.88044"
           y="-290.10406">sec/U</tspan></text>
      <text
         xml:space="preserve"
         style="font-size:4.23333px;line-height:1.2;font-family:'Abyssinica SIL';-inkscape-font-specification:'Abyssinica SIL, Normal';letter-spacing:-0.0661458px;word-spacing:0px;writing-mode:lr-tb;fill:#ff0000;stroke:none;stroke-width:0.2;stroke-linecap:round;stroke-opacity:0.997898"
         x="38.066654"
         y="-287.22809"
         id="text37"
         transform="scale(1,-1)"><tspan
           sodipodi:role="line"
           id="tspan37"
           style="stroke-width:0.2"
           x="38.066654"
           y="-287.22809">RPM</tspan></text>
      <text
         xml:space="preserve"
         style="font-size:4.23333px;line-height:1.2;font-family:'Abyssinica SIL';-inkscape-font-specification:'Abyssinica SIL, Normal';letter-spacing:-0.0661458px;word-spacing:0px;writing-mode:lr-tb;fill:#ff0000;stroke:none;stroke-width:0.2;stroke-linecap:round;stroke-opacity:0.997898"
         x="39.673531"
         y="-253.69363"
         id="text38"
         transform="scale(1,-1)"><tspan
           sodipodi:role="line"
           id="tspan38"
           style="stroke-width:0.2"
           x="39.673531"
           y="-253.69363">15</tspan></text>
      <text
         xml:space="preserve"
         style="font-size:4.23333px;line-height:1.2;font-family:'Abyssinica SIL';-inkscape-font-specification:'Abyssinica SIL, Normal';letter-spacing:-0.0661458px;word-spacing:0px;writing-mode:lr-tb;fill:#ff0000;stroke:none;stroke-width:0.2;stroke-linecap:round;stroke-opacity:0.997898"
         x="39.649757"
         y="-238.65637"
         id="text39"
         transform="scale(1,-1)"><tspan
           sodipodi:role="line"
           id="tspan39"
           style="stroke-width:0.2"
           x="39.649757"
           y="-238.65637">12</tspan></text>
      <text
         xml:space="preserve"
         style="font-size:4.23333px;line-height:1.2;font-family:'Abyssinica SIL';-inkscape-font-specification:'Abyssinica SIL, Normal';letter-spacing:-0.0661458px;word-spacing:0px;writing-mode:lr-tb;fill:#ff0000;stroke:none;stroke-width:0.2;stroke-linecap:round;stroke-opacity:0.997898"
         x="39.633221"
         y="-228.65846"
         id="text40"
         transform="scale(1,-1)"><tspan
           sodipodi:role="line"
           id="tspan40"
           style="stroke-width:0.2"
           x="39.633221"
           y="-228.65846">10</tspan></text>
      <text
         xml:space="preserve"
         style="font-size:4.23333px;line-height:1.2;font-family:'Abyssinica SIL';-inkscape-font-specification:'Abyssinica SIL, Normal';letter-spacing:-0.0661458px;word-spacing:0px;writing-mode:lr-tb;fill:#ff0000;stroke:none;stroke-width:0.2;stroke-linecap:round;stroke-opacity:0.997898"
         x="40.113358"
         y="-208.26572"
         id="text42"
         transform="scale(1,-1)"><tspan
           sodipodi:role="line"
           id="tspan42"
           style="stroke-width:0.2"
           x="40.113358"
           y="-208.26572">6</tspan></text>
      <text
         xml:space="preserve"
         style="font-size:4.23333px;line-height:1.2;font-family:'Abyssinica SIL';-inkscape-font-specification:'Abyssinica SIL, Normal';letter-spacing:-0.0661458px;word-spacing:0px;writing-mode:lr-tb;fill:#ff0000;stroke:none;stroke-width:0.2;stroke-linecap:round;stroke-opacity:0.997898"
         x="40.113358"
         y="-203.34015"
         id="text43"
         transform="scale(1,-1)"><tspan
           sodipodi:role="line"
           id="tspan43"
           style="stroke-width:0.2"
           x="40.113358"
           y="-203.34015">5</tspan></text>
      <text
         xml:space="preserve"
         style="font-size:4.23333px;line-height:1.2;font-family:'Abyssinica SIL';-inkscape-font-specification:'Abyssinica SIL, Normal';letter-spacing:-0.0661458px;word-spacing:0px;writing-mode:lr-tb;fill:#ff0000;stroke:none;stroke-width:0.2;stroke-linecap:round;stroke-opacity:0.997898"
         x="40.113358"
         y="-193.26573"
         id="text45"
         transform="scale(1,-1)"><tspan
           sodipodi:role="line"
           id="tspan45"
           style="stroke-width:0.2"
           x="40.113358"
           y="-193.26573">3</tspan></text>
      <text
         xml:space="preserve"
         style="font-size:4.23333px;line-height:1.2;font-family:'Abyssinica SIL';-inkscape-font-specification:'Abyssinica SIL, Normal';letter-spacing:-0.0661458px;word-spacing:0px;writing-mode:lr-tb;fill:#ff0000;stroke:none;stroke-width:0.2;stroke-linecap:round;stroke-opacity:0.997898"
         x="40.113358"
         y="-188.26573"
         id="text47"
         transform="scale(1,-1)"><tspan
           sodipodi:role="line"
           id="tspan47"
           style="stroke-width:0.2"
           x="40.113358"
           y="-188.26573">2</tspan></text>
    </g>
    <path
       id="path47"
       style="fill:none;stroke:#00ff00;stroke-width:0.2;stroke-linecap:round;stroke-opacity:0.997898"
       d="M 254.99994,194.99998 157,235 54.999744,285.00017"
       sodipodi:nodetypes="ccc" />
  </g>
</svg>
