<?xml version="1.0" encoding="UTF-8" standalone="no"?>
<svg
   width="578.4126mm"
   height="241.16814mm"
   viewBox="0 0 578.4126 241.16814"
   version="1.1"
   id="svg1"
   sodipodi:docname="Kettensteg.svg"
   xml:space="preserve"
   inkscape:version="1.3.2 (1:1.3.2+202311252150+091e20ef0f)"
   xmlns:inkscape="http://www.inkscape.org/namespaces/inkscape"
   xmlns:sodipodi="http://sodipodi.sourceforge.net/DTD/sodipodi-0.dtd"
   xmlns:xlink="http://www.w3.org/1999/xlink"
   xmlns="http://www.w3.org/2000/svg"
   xmlns:svg="http://www.w3.org/2000/svg"><defs
     id="defs1" /><sodipodi:namedview
     id="namedview1"
     pagecolor="#ffffff"
     bordercolor="#000000"
     borderopacity="0.25"
     inkscape:showpageshadow="2"
     inkscape:pageopacity="0.0"
     inkscape:pagecheckerboard="0"
     inkscape:deskcolor="#d1d1d1"
     inkscape:document-units="mm"
     inkscape:zoom="0.32602448"
     inkscape:cx="687.06497"
     inkscape:cy="559.77391"
     inkscape:window-width="1920"
     inkscape:window-height="1009"
     inkscape:window-x="0"
     inkscape:window-y="0"
     inkscape:window-maximized="1"
     inkscape:current-layer="svg1" /><g
     id="Sketch145"
     transform="matrix(1,0,0,-1,188.66667,243.99313)"
     style="stroke:#ff0000"><path
       id="Sketch145_w0000"
       d="M 0,13 V 10 H 3.5 V 3 h 173 v 7 h 3.5 v 3 l 30,76 62,8 M -91.528151,126.60849 -92,125 -30,114 0,13"
       stroke="#000000"
       stroke-width="0.35 px"
       style="fill:none;fill-opacity:1;fill-rule:evenodd;stroke:#ff0000;stroke-width:0.35;stroke-linecap:square;stroke-miterlimit:4;stroke-dasharray:none"
       sodipodi:nodetypes="cccccccccccccc" /><title
       id="title1">b'Sketch145'</title></g><image
     width="588.18347"
     height="273.93542"
     preserveAspectRatio="none"
     xlink:href="../../../../../../w-i-galerie/shaky-town-1880/pictures/bild1/Kettensteg_aquarell.png"
     id="image1"
     x="-34.554634"
     y="-61.214874"
     style="display:none;opacity:0.173;stroke-width:0.833537"
     transform="rotate(1.4068686)"
     sodipodi:insensitive="true" /><path
     style="fill:none;stroke:#ff0000;stroke-width:0.3;stroke-linecap:round;stroke-opacity:0.997898"
     d="M 98.553884,117.10602 0.16351878,114.13513 2.4589138,88.36102 78.94528,0.15478097 91.255475,1.001861 105.3601,16.541518 l 38.9601,12.892048 59.15494,15.789939 80.80108,14.605642 46.79062,3.486034 52.54181,-8.864743 73.76678,-14.971056 33.77869,-16.801671 19.07262,1.036666 65.2516,77.892933 2.76619,19.48707 -118.35016,26.1356 1.241,-0.78434"
     id="path1"
     sodipodi:nodetypes="cccccccccccccccccc" /><g
     id="g2"
     transform="matrix(1,0,0,-1,188.66667,293.99313)"
     style="stroke:#0000ff"><path
       id="path2"
       d="m 272,147 v 41 H -92 v -13"
       stroke="#000000"
       stroke-width="0.35 px"
       style="fill:none;fill-opacity:1;fill-rule:evenodd;stroke:#0000ff;stroke-width:0.35;stroke-linecap:square;stroke-miterlimit:4;stroke-dasharray:none"
       sodipodi:nodetypes="cccc" /><title
       id="title2">b'Sketch145'</title></g><path
     style="fill:#00ff00;stroke:#00ff00;stroke-width:0.3;stroke-linecap:round;stroke-opacity:0.997898"
     d="m 78.658436,6.359627 -2.524362,84.15097"
     id="path3" /><path
     style="fill:#00ff00;stroke:#00ff00;stroke-width:0.3;stroke-linecap:round;stroke-opacity:0.997898"
     d="M 89.520915,14.126833 86.678231,86.585474"
     id="path4" /><path
     style="fill:none;stroke:#00ff00;stroke-width:0.3;stroke-linecap:round;stroke-opacity:0.997898"
     d="m 98.308444,96.416632 158.357056,-8.188355 63.44594,-4.057722 77.92861,0.824472 101.51258,13.03028 56.28802,7.303903"
     id="path5" /><path
     style="fill:none;stroke:#00ff00;stroke-width:0.3;stroke-linecap:round;stroke-opacity:0.997898"
     d="m 489.499,27.546983 -2.67277,63.759035"
     id="path6" /><path
     style="fill:none;stroke:#00ff00;stroke-width:0.3;stroke-linecap:round;stroke-opacity:0.997898"
     d="m 508.06653,27.493366 -1.72461,67.763606"
     id="path7" /><path
     style="fill:none;stroke:#00ff00;stroke-width:0.3;stroke-linecap:round;stroke-opacity:0.997898"
     d="m 488.75403,53.573503 18.06123,1.047023 -16.87729,-19.929602 18.47942,0.647528 -15.71823,16.072228"
     id="path8" /><path
     style="fill:none;stroke:#00ff00;stroke-width:0.3;stroke-linecap:round;stroke-opacity:0.997898"
     d="m 491.53473,83.154131 12.07148,0.558147"
     id="path9" /><path
     style="fill:none;stroke:#00ff00;stroke-width:0.3;stroke-linecap:round;stroke-opacity:0.997898"
     d="M 548.46081,94.015285 510.86407,36.019632"
     id="path10" /><path
     style="fill:none;stroke:#00ff00;stroke-width:0.3;stroke-linecap:round;stroke-opacity:0.997898"
     d="M 532.77126,92.953576 509.14947,56.237037"
     id="path11" /><path
     style="fill:none;stroke:#00ff00;stroke-width:0.3;stroke-linecap:round;stroke-opacity:0.997898"
     d="M 481.07564,81.097259 384.82613,70.5666 l -37.98398,-2.545884 -43.91139,-0.314521 -80.24278,1.633527 -58.66311,2.458522 -71.931386,4.518041"
     id="path12" /><path
     style="fill:none;stroke:#00ff00;stroke-width:0.3;stroke-linecap:round;stroke-opacity:0.997898"
     d="M 74.978525,18.648043 7.2422388,96.01772"
     id="path13" /><path
     style="fill:none;stroke:#00ff00;stroke-width:0.3;stroke-linecap:round;stroke-opacity:0.997898"
     d="M 73.193872,13.461723 4.4854718,91.081362"
     id="path14" /><path
     style="fill:none;stroke:#00ff00;stroke-width:0.3;stroke-linecap:round;stroke-opacity:0.997898"
     d="M 116.37196,26.037715 115.09789,75.32573"
     id="path15" /><path
     style="fill:none;stroke:#00ff00;stroke-width:0.3;stroke-linecap:round;stroke-opacity:0.997898"
     d="m 124.20817,27.222842 -0.0479,60.045304"
     id="path16" /><path
     style="fill:none;stroke:#00ff00;stroke-width:0.3;stroke-linecap:round;stroke-opacity:0.997898"
     d="m 131.00298,75.9689 -1.5569,18.070396 8.58925,-16.624548 -5.85281,-0.928875 6.07332,14.10114 -0.37501,-14.328471"
     id="path17" /><path
     style="fill:none;stroke:#00ff00;stroke-width:0.3;stroke-linecap:round;stroke-opacity:0.997898"
     d="m 175.65074,74.321366 1.53492,16.402692 9.35451,-18.365972 0.73889,19.498315 -9.89897,-17.196106"
     id="path18" /><path
     style="fill:none;stroke:#00ff00;stroke-width:0.3;stroke-linecap:round;stroke-opacity:0.997898"
     d="m 222.55689,71.498249 -0.5067,15.949194 9.33365,-14.856987 -0.842,13.995451 z"
     id="path19" /><path
     style="fill:none;stroke:#00ff00;stroke-width:0.3;stroke-linecap:round;stroke-opacity:0.997898"
     d="m 264.19534,70.558983 0.0119,16.295169 9.35216,-17.299927 -0.59447,16.086821 z"
     id="path20" /><path
     style="fill:none;stroke:#00ff00;stroke-width:0.3;stroke-linecap:round;stroke-opacity:0.997898"
     d="m 485.12461,92.278915 1.61518,-63.372029"
     id="path21" /><path
     style="fill:none;stroke:#00ff00;stroke-width:0.3;stroke-linecap:round;stroke-opacity:0.997898"
     d="M 500.85827,93.900592 501.5333,60.306678"
     id="path22" /><path
     style="fill:none;stroke:#00ff00;stroke-width:0.3;stroke-linecap:round;stroke-opacity:0.997898"
     d="m 474.67889,38.498834 -2.22194,38.327749"
     id="path23" /><path
     style="fill:none;stroke:#00ff00;stroke-width:0.3;stroke-linecap:round;stroke-opacity:0.997898"
     d="m 460.90042,43.413329 -1.57263,28.103692"
     id="path24" /><path
     style="fill:none;stroke:#00ff00;stroke-width:0.3;stroke-linecap:round;stroke-opacity:0.997898"
     d="M 445.22793,48.702328 441.381,73.600009"
     id="path25" /><path
     style="fill:none;stroke:#00ff00;stroke-width:0.3;stroke-linecap:round;stroke-opacity:0.997898"
     d="m 426.23844,51.338999 0.46755,18.86304"
     id="path26" /><path
     style="fill:none;stroke:#00ff00;stroke-width:0.3;stroke-linecap:round;stroke-opacity:0.997898"
     d="m 411.19413,52.903943 -2.81112,17.435809"
     id="path27" /><path
     style="fill:none;stroke:#00ff00;stroke-width:0.3;stroke-linecap:round;stroke-opacity:0.997898"
     d="m 393.25932,56.356772 -0.67839,12.441025"
     id="path28" /><path
     style="fill:none;stroke:#00ff00;stroke-width:0.3;stroke-linecap:round;stroke-opacity:0.997898"
     d="m 377.69357,59.866766 -0.52949,9.301377"
     id="path29" /><path
     style="fill:none;stroke:#00ff00;stroke-width:0.3;stroke-linecap:round;stroke-opacity:0.997898"
     d="m 362.33951,61.987994 -0.47035,4.93572"
     id="path30" /><path
     style="fill:none;stroke:#00ff00;stroke-width:0.3;stroke-linecap:round;stroke-opacity:0.997898"
     d="m 272.39349,61.878099 -0.60622,5.46948"
     id="path31" /><path
     style="fill:none;stroke:#00ff00;stroke-width:0.3;stroke-linecap:round;stroke-opacity:0.997898"
     d="m 244.89204,55.732522 -0.73773,10.282861"
     id="path32" /><path
     style="fill:none;stroke:#00ff00;stroke-width:0.3;stroke-linecap:round;stroke-opacity:0.997898"
     d="m 228.74969,51.071431 1.14547,15.141625"
     id="path33" /><path
     style="fill:none;stroke:#00ff00;stroke-width:0.3;stroke-linecap:round;stroke-opacity:0.997898"
     d="m 210.40444,48.631224 -0.35669,19.172092"
     id="path34" /><path
     style="fill:none;stroke:#00ff00;stroke-width:0.3;stroke-linecap:round;stroke-opacity:0.997898"
     d="m 189.18852,46.190956 0.40577,22.21412"
     id="path35" /><path
     style="fill:none;stroke:#00ff00;stroke-width:0.3;stroke-linecap:round;stroke-opacity:0.997898"
     d="m 171.46435,39.759454 0.49327,26.494663"
     id="path36" /><path
     style="fill:none;stroke:#00ff00;stroke-width:0.3;stroke-linecap:round;stroke-opacity:0.997898"
     d="m 147.60313,34.921008 -2.43391,33.525491"
     id="path37" /><path
     style="fill:none;stroke:#00ff00;stroke-width:0.3;stroke-linecap:round;stroke-opacity:0.997898"
     d="m 82.116966,5.369251 0.02154,87.016903"
     id="path38" /><path
     style="fill:none;stroke:#00ff00;stroke-width:0.3;stroke-linecap:round;stroke-opacity:0.997898"
     d="m 76.681689,4.60423 1.214853,20.683156 8.823259,1.194829 -8.255063,-18.980369 8.170103,0.132982 -7.956153,17.668502"
     id="path39" /><path
     style="fill:none;stroke:#00ff00;stroke-width:0.3;stroke-linecap:round;stroke-opacity:0.997898"
     d="M 75.980702,68.935039 86.936421,68.741851 76.905844,52.024341 86.709523,53.109951 76.453059,67.27697"
     id="path40" /><path
     style="fill:none;stroke:#00ff00;stroke-width:0.3;stroke-linecap:round;stroke-opacity:0.997898"
     d="M 69.925108,91.458678 28.82223,90.832089"
     id="path41" /></svg>
