<?xml version="1.0" encoding="UTF-8" standalone="no"?>
<svg
   width="578.4126mm"
   height="241.16814mm"
   viewBox="0 0 578.4126 241.16814"
   version="1.1"
   id="svg1"
   sodipodi:docname="Kettensteg.svg"
   xml:space="preserve"
   inkscape:version="1.3.2 (1:1.3.2+202311252150+091e20ef0f)"
   xmlns:inkscape="http://www.inkscape.org/namespaces/inkscape"
   xmlns:sodipodi="http://sodipodi.sourceforge.net/DTD/sodipodi-0.dtd"
   xmlns:xlink="http://www.w3.org/1999/xlink"
   xmlns="http://www.w3.org/2000/svg"
   xmlns:svg="http://www.w3.org/2000/svg"><defs
     id="defs1" /><sodipodi:namedview
     id="namedview1"
     pagecolor="#ffffff"
     bordercolor="#000000"
     borderopacity="0.25"
     inkscape:showpageshadow="2"
     inkscape:pageopacity="0.0"
     inkscape:pagecheckerboard="0"
     inkscape:deskcolor="#d1d1d1"
     inkscape:document-units="mm"
     inkscape:zoom="0.65204896"
     inkscape:cx="1224.6013"
     inkscape:cy="180.20119"
     inkscape:window-width="1920"
     inkscape:window-height="1009"
     inkscape:window-x="0"
     inkscape:window-y="1200"
     inkscape:window-maximized="1"
     inkscape:current-layer="svg1" /><image
     width="238.44229"
     height="160.68172"
     preserveAspectRatio="none"
     xlink:href="../../../../../../w-i-galerie/shaky-town-1880/pictures/bild1/Kettensteg-Nuernberg-Altstadt.jpg"
     id="image1-5"
     x="-8.1262407"
     y="-37.699894"
     style="display:none;opacity:0.189;mix-blend-mode:normal;stroke-width:1.33377"
     transform="matrix(0.99834221,0.05755726,0,1,0,0)"
     sodipodi:insensitive="true" /><g
     id="Sketch145"
     transform="matrix(1,0,0,-1,188.66667,243.99313)"
     style="stroke:#ff0000"><path
       id="Sketch145_w0000"
       d="M 0,13 V 10 H 3.5 V 3 h 173 v 7 h 3.5 v 3 l 30,76 62,8"
       stroke="#000000"
       stroke-width="0.35 px"
       style="fill:none;fill-opacity:1;fill-rule:evenodd;stroke:#ff0000;stroke-width:0.35;stroke-linecap:square;stroke-miterlimit:4;stroke-dasharray:none"
       sodipodi:nodetypes="cccccccccc" /><title
       id="title1">b'Sketch145'</title></g><image
     width="588.18347"
     height="273.93542"
     preserveAspectRatio="none"
     xlink:href="../../../../../../w-i-galerie/shaky-town-1880/pictures/bild1/Kettensteg_aquarell.png"
     id="image1"
     x="-34.554634"
     y="-61.214874"
     style="display:none;opacity:0.173;stroke-width:0.833537"
     transform="rotate(1.4068686)"
     sodipodi:insensitive="true" /><path
     style="fill:none;stroke:#ff0000;stroke-width:0.3;stroke-linecap:round;stroke-opacity:0.997898"
     d="m 461.13537,146.44564 -1.241,0.78434 118.35016,-26.1356 -2.76619,-19.48707 -79.77259,-87.126368 -7.57463,-2.182197 -23.56772,19.73443 -80.95475,22.417263 -52.54181,8.864743 L 284.27622,59.829147 203.47514,45.223505 144.3202,29.433566 105.3601,16.541518 91.255475,1.001861 78.94528,0.15478097 0.47114367,90.486123 0.86520832,100.88933 37.24653,115.27301 l 58.53908,1.79626 0.88106,1.92386 62,11 30,101"
     id="path1"
     sodipodi:nodetypes="cccccccccccccccccccccc" /><path
     style="fill:none;stroke:#00ff00;stroke-width:0.3;stroke-linecap:round;stroke-opacity:0.997898"
     d="m 98.308444,96.416632 158.357056,-8.188355 63.44594,-4.057722 77.92861,0.824472 59.25123,11.341693"
     id="path5"
     sodipodi:nodetypes="ccccc" /><path
     style="fill:none;stroke:#00ff00;stroke-width:0.3;stroke-linecap:round;stroke-opacity:0.997898"
     d="m 456.23872,79.20959 -71.41259,-8.64299 -37.98398,-2.545884 -43.91139,-0.314521 -80.24278,1.633527 -58.66311,2.458522 -66.867834,4.482885"
     id="path12"
     sodipodi:nodetypes="ccccccc" /><path
     style="fill:none;stroke:#00ff00;stroke-width:0.3;stroke-linecap:round;stroke-opacity:0.997898"
     d="M 84.559658,7.2313103 4.5001312,95.582823"
     id="path13"
     sodipodi:nodetypes="cc" /><path
     style="fill:none;stroke:#00ff00;stroke-width:0.3;stroke-linecap:round;stroke-opacity:0.997898"
     d="M 83.400524,7.5683117 4.4854718,91.081362"
     id="path14"
     sodipodi:nodetypes="cc" /><path
     style="fill:none;stroke:#00ff00;stroke-width:0.3;stroke-linecap:round;stroke-opacity:0.997898"
     d="M 116.37196,26.037715 115.09789,75.32573"
     id="path15" /><path
     style="fill:none;stroke:#00ff00;stroke-width:0.3;stroke-linecap:round;stroke-opacity:0.997898"
     d="m 124.20817,27.222842 -0.0479,60.045304"
     id="path16" /><path
     style="fill:none;stroke:#00ff00;stroke-width:0.3;stroke-linecap:round;stroke-opacity:0.997898"
     d="m 131.00298,75.9689 -1.5569,18.070396 8.58925,-16.624548 -5.85281,-0.928875 6.07332,14.10114 -0.37501,-14.328471"
     id="path17" /><path
     style="fill:none;stroke:#00ff00;stroke-width:0.3;stroke-linecap:round;stroke-opacity:0.997898"
     d="m 175.65074,74.321366 1.53492,16.402692 9.35451,-18.365972 0.73889,19.498315 -9.89897,-17.196106"
     id="path18" /><path
     style="fill:none;stroke:#00ff00;stroke-width:0.3;stroke-linecap:round;stroke-opacity:0.997898"
     d="m 222.55689,71.498249 -0.5067,15.949194 9.33365,-14.856987 -0.842,13.995451 z"
     id="path19" /><path
     style="fill:none;stroke:#00ff00;stroke-width:0.3;stroke-linecap:round;stroke-opacity:0.997898"
     d="m 264.19534,70.558983 0.0119,16.295169 9.35216,-17.299927 -0.59447,16.086821 z"
     id="path20" /><path
     style="fill:none;stroke:#00ff00;stroke-width:0.3;stroke-linecap:round;stroke-opacity:0.997898"
     d="m 460.90042,43.413329 -1.57263,28.103692"
     id="path24" /><path
     style="fill:none;stroke:#00ff00;stroke-width:0.3;stroke-linecap:round;stroke-opacity:0.997898"
     d="M 445.22793,48.702328 441.381,73.600009"
     id="path25" /><path
     style="fill:none;stroke:#00ff00;stroke-width:0.3;stroke-linecap:round;stroke-opacity:0.997898"
     d="m 426.23844,51.338999 0.46755,18.86304"
     id="path26" /><path
     style="fill:none;stroke:#00ff00;stroke-width:0.3;stroke-linecap:round;stroke-opacity:0.997898"
     d="m 411.19413,52.903943 -2.81112,17.435809"
     id="path27" /><path
     style="fill:none;stroke:#00ff00;stroke-width:0.3;stroke-linecap:round;stroke-opacity:0.997898"
     d="m 393.25932,56.356772 -0.67839,12.441025"
     id="path28" /><path
     style="fill:none;stroke:#00ff00;stroke-width:0.3;stroke-linecap:round;stroke-opacity:0.997898"
     d="m 377.69357,59.866766 -0.52949,9.301377"
     id="path29" /><path
     style="fill:none;stroke:#00ff00;stroke-width:0.3;stroke-linecap:round;stroke-opacity:0.997898"
     d="m 362.33951,61.987994 -0.47035,4.93572"
     id="path30" /><path
     style="fill:none;stroke:#00ff00;stroke-width:0.3;stroke-linecap:round;stroke-opacity:0.997898"
     d="m 272.39349,61.878099 -0.60622,5.46948"
     id="path31" /><path
     style="fill:none;stroke:#00ff00;stroke-width:0.3;stroke-linecap:round;stroke-opacity:0.997898"
     d="m 244.89204,55.732522 -0.73773,10.282861"
     id="path32" /><path
     style="fill:none;stroke:#00ff00;stroke-width:0.3;stroke-linecap:round;stroke-opacity:0.997898"
     d="m 228.74969,51.071431 1.14547,15.141625"
     id="path33" /><path
     style="fill:none;stroke:#00ff00;stroke-width:0.3;stroke-linecap:round;stroke-opacity:0.997898"
     d="m 210.40444,48.631224 -0.35669,19.172092"
     id="path34" /><path
     style="fill:none;stroke:#00ff00;stroke-width:0.3;stroke-linecap:round;stroke-opacity:0.997898"
     d="m 189.18852,46.190956 0.40577,22.21412"
     id="path35" /><path
     style="fill:none;stroke:#00ff00;stroke-width:0.3;stroke-linecap:round;stroke-opacity:0.997898"
     d="m 171.46435,39.759454 0.49327,26.494663"
     id="path36" /><path
     style="fill:none;stroke:#00ff00;stroke-width:0.3;stroke-linecap:round;stroke-opacity:0.997898"
     d="m 147.60313,34.921008 -2.43391,33.525491"
     id="path37" /><path
     style="fill:none;stroke:#00ff00;stroke-width:0.3;stroke-linecap:round;stroke-opacity:0.997898"
     d="m 98.416275,98.849446 c -11.406006,0.115196 -25.597376,2.740814 -34.190222,0.320537 l 5.224164,-6.133785 c 3.421635,-10.31888 5.103957,-21.93597 7.318898,-33.155516"
     id="path3"
     sodipodi:nodetypes="cccc" /><path
     style="fill:none;stroke:#00ff00;stroke-width:0.3;stroke-linecap:round;stroke-opacity:0.997898"
     d="M 97.390973,97.454346 94.653318,94.117839 C 95.170305,83.226994 94.174558,72.856712 93.154671,62.494736 l 1.849474,-0.626639 -18.990264,-4.157364"
     id="path4"
     sodipodi:nodetypes="ccccc" /><path
     style="fill:none;stroke:#00ff00;stroke-width:0.3;stroke-linecap:round;stroke-opacity:0.997898"
     d="m 77.887985,56.645143 16.798843,3.778054"
     id="path38" /><path
     style="fill:none;stroke:#00ff00;stroke-width:0.3;stroke-linecap:round;stroke-opacity:0.997898"
     d="m 91.865745,66.6702 0.868048,27.518357 c -5.82588,0.05844 -13.736729,3.071422 -17.085371,-0.380554 v 0"
     id="path39"
     sodipodi:nodetypes="cccc" /><path
     style="fill:none;stroke:#00ff00;stroke-width:0.3;stroke-linecap:round;stroke-opacity:0.997898"
     d="M 71.568936,97.353037 C 79.871215,85.585689 82.180132,73.926018 91.812699,62.664249 l 1.486511,0.827672 c -6.657199,11.5684 -11.407757,22.931315 -20.286887,34.739181 z"
     id="path40"
     sodipodi:nodetypes="ccccc" /><path
     style="fill:none;stroke:#00ff00;stroke-width:0.3;stroke-linecap:round;stroke-opacity:0.997898"
     d="m 73.460945,95.676581 0.07524,-0.460991 0.331925,-0.005 0.01011,0.476779 z"
     id="path42" /><path
     style="fill:none;stroke:#00ff00;stroke-width:0.3;stroke-linecap:round;stroke-opacity:0.997898"
     d="m 91.893537,64.045462 -0.136824,-0.432158 0.437674,-0.01516 0.118684,0.418026 z"
     id="path43" /><path
     style="fill:none;stroke:#00ff00;stroke-width:0.3;stroke-linecap:round;stroke-opacity:0.997898"
     d="M 88.636752,93.214411 C 87.235384,89.278091 86.251796,85.449075 83.87766,81.262907"
     id="path44"
     sodipodi:nodetypes="cc" /><path
     style="fill:none;stroke:#00ff00;stroke-width:0.3;stroke-linecap:round;stroke-opacity:0.997898"
     d="m 83.032681,83.229383 c 2.674288,3.061545 2.700676,6.326826 3.805909,9.509098"
     id="path45"
     sodipodi:nodetypes="cc" /><path
     style="fill:none;stroke:#00ff00;stroke-width:0.3;stroke-linecap:round;stroke-opacity:0.997898"
     d="M 81.052931,78.639902 C 78.909238,77.444944 78.609008,73.062354 77.489957,70.095633 L 76.926992,69.376996"
     id="path46"
     sodipodi:nodetypes="ccc" /><path
     style="fill:none;stroke:#00ff00;stroke-width:0.3;stroke-linecap:round;stroke-opacity:0.997898"
     d="m 78.260659,67.417028 c 1.309275,2.928655 0.905164,8.589845 3.928604,8.784723"
     id="path47"
     sodipodi:nodetypes="cc" /><path
     style="fill:none;stroke:#00ff00;stroke-width:0.3;stroke-linecap:round;stroke-opacity:0.997898"
     d="m 71.692235,93.056465 c 1.499792,-5.937711 3.574272,-10.941104 3.956452,-18.69581"
     id="path48"
     sodipodi:nodetypes="cc" /><path
     style="fill:none;stroke:#00ff00;stroke-width:0.3;stroke-linecap:round;stroke-opacity:0.997898"
     d="m 79.635886,60.450478 7.692795,1.424765"
     id="path49" /><path
     style="fill:none;stroke:#00ff00;stroke-width:0.3;stroke-linecap:round;stroke-opacity:0.997898"
     d="m 89.439405,90.652617 c -0.0183,-5.4213 0.442575,-11.439395 -0.378718,-16.070716 l -0.504771,-1.098519"
     id="path50"
     sodipodi:nodetypes="ccc" /><path
     style="fill:none;stroke:#00ff00;stroke-width:0.3;stroke-linecap:round;stroke-opacity:0.997898"
     d="m 87.689935,66.69796 c -0.03999,-1.47132 2.56187,-2.070986 0.796211,-4.218021"
     id="path51"
     sodipodi:nodetypes="cc" /><path
     style="fill:none;stroke:#00ff00;stroke-width:0.3;stroke-linecap:round;stroke-opacity:0.997898"
     d="m 61.503808,98.24595 3.096268,0.942663"
     id="path52" /><path
     style="fill:none;stroke:#00ff00;stroke-width:0.3;stroke-linecap:round;stroke-opacity:0.997898"
     d="m 63.215067,96.217771 4.173789,-4.593283 c 3.160963,-9.311277 4.358437,-19.990194 6.073692,-30.308458"
     id="path53"
     sodipodi:nodetypes="ccc" /><path
     style="fill:none;stroke:#00ff00;stroke-width:0.3;stroke-linecap:round;stroke-opacity:0.997898"
     d="m 71.820065,59.053486 3.315637,-1.813417"
     id="path54" /><path
     style="fill:none;stroke:#00ff00;stroke-width:0.3;stroke-linecap:round;stroke-opacity:0.997898"
     d="m 63.941216,101.61528 0.145515,3.28749 33.822997,-0.69685"
     id="path55" /><path
     style="fill:none;stroke:#00ff00;stroke-width:0.3;stroke-linecap:round;stroke-opacity:0.997898"
     d="m 61.076553,99.315525 -0.0175,3.810615 1.784239,0.95784"
     id="path56"
     sodipodi:nodetypes="ccc" /><path
     style="fill:none;stroke:#00ff00;stroke-width:0.3;stroke-linecap:round;stroke-opacity:0.997898"
     d="M 91.382092,58.654195 C 89.011682,48.13725 86.949029,36.899819 83.691819,28.458948 l 1.339972,-0.105547 c 3.0726,8.933589 5.18712,19.84331 7.699102,29.933227"
     id="path57"
     sodipodi:nodetypes="cccc" /><path
     style="fill:none;stroke:#00ff00;stroke-width:0.3;stroke-linecap:round;stroke-opacity:0.997898"
     d="m 91.007278,30.997742 c 1.070034,6.822372 1.134769,15.00239 1.396407,22.916493"
     id="path58"
     sodipodi:nodetypes="cc" /><path
     style="fill:none;stroke:#00ff00;stroke-width:0.3;stroke-linecap:round;stroke-opacity:0.997898"
     d="m 89.147144,30.379077 1.114358,13.702601"
     id="path59" /><path
     style="fill:none;stroke:#00ff00;stroke-width:0.3;stroke-linecap:round;stroke-opacity:0.997898"
     d="M 87.181133,57.56277 C 87.579326,50.774329 86.80569,46.452453 86.188417,41.801452"
     id="path60"
     sodipodi:nodetypes="cc" /><path
     style="fill:none;stroke:#00ff00;stroke-width:0.3;stroke-linecap:round;stroke-opacity:0.997898"
     d="M 79.724167,55.68293 C 79.87294,48.528662 82.290381,41.565473 83.895281,34.533848"
     id="path61"
     sodipodi:nodetypes="cc" /><path
     style="fill:none;stroke:#00ff00;stroke-width:0.3;stroke-linecap:round;stroke-opacity:0.997898"
     d="m 82.898143,31.793251 c 0.41786,-0.748314 -3.824975,19.836915 -4.590055,23.363391"
     id="path62"
     sodipodi:nodetypes="cc" /><path
     style="fill:none;stroke:#00ff00;stroke-width:0.3;stroke-linecap:round;stroke-opacity:0.997898"
     d="m 74.532288,56.218446 c 2.904746,-9.351676 4.59609,-17.407809 5.021834,-24.112664"
     id="path63"
     sodipodi:nodetypes="cc" /><path
     style="fill:none;stroke:#00ff00;stroke-width:0.3;stroke-linecap:round;stroke-opacity:0.997898"
     d="m 79.911823,30.123855 3.75445,-2.425692"
     id="path64" /><path
     style="fill:none;stroke:#00ff00;stroke-width:0.3;stroke-linecap:round;stroke-opacity:0.997898"
     d="m 74.634338,60.3926 1.186685,-0.472596"
     id="path65" /><path
     style="fill:none;stroke:#00ff00;stroke-width:0.3;stroke-linecap:round;stroke-opacity:0.997898"
     d="m 77.709677,29.428403 c 1.579671,-0.732359 2.806633,-1.055424 5.833049,-3.46663 l 9.379326,4.232373"
     id="path66"
     sodipodi:nodetypes="ccc" /><path
     style="fill:none;stroke:#00ff00;stroke-width:0.3;stroke-linecap:round;stroke-opacity:0.997898"
     d="m 84.300186,25.216154 c -1.054665,-2.897671 0.241301,-9.694156 1.032518,-15.6534536 l 6.742377,3.1170676"
     id="path67"
     sodipodi:nodetypes="ccc" /><path
     style="fill:none;stroke:#00ff00;stroke-width:0.3;stroke-linecap:round;stroke-opacity:0.997898"
     d="m 91.870058,13.844053 c -0.19542,13.901845 -0.48226,16.646677 -0.812536,14.090356"
     id="path68"
     sodipodi:nodetypes="cc" /><path
     style="fill:none;stroke:#00ff00;stroke-width:0.3;stroke-linecap:round;stroke-opacity:0.997898"
     d="m 80.252924,26.302568 c 1.204874,-4.511723 0.897257,-9.700973 1.127908,-14.649103 l 3.373098,-1.637568"
     id="path69"
     sodipodi:nodetypes="ccc" /><path
     style="fill:none;stroke:#00ff00;stroke-width:0.3;stroke-linecap:round;stroke-opacity:0.997898"
     d="m 84.257763,8.9468631 2.100979,-6.05586 4.42432,0.9718445 c -0.470763,2.7290399 -0.352979,5.233317 0.277143,7.2985284"
     id="path70"
     sodipodi:nodetypes="cccc" /><path
     style="fill:none;stroke:#00ff00;stroke-width:0.3;stroke-linecap:round;stroke-opacity:0.997898"
     d="m 87.955084,9.5190158 c -0.798909,-0.9456894 -0.55202,-2.53659 0.578721,-4.6727885"
     id="path71"
     sodipodi:nodetypes="cc" /><path
     style="fill:none;stroke:#00ff00;stroke-width:0.3;stroke-linecap:round;stroke-opacity:0.997898"
     d="m 81.751293,24.418153 c 1.183017,-3.56309 0.816968,-8.463118 1.190242,-12.725065"
     id="path73"
     sodipodi:nodetypes="cc" /><path
     style="fill:none;stroke:#00ff00;stroke-width:0.3;stroke-linecap:round;stroke-opacity:0.997898"
     d="m 86.308939,19.948009 0.08279,0.317423 0.289509,-0.183146 -0.132617,-0.290283 z"
     id="path74"
     sodipodi:nodetypes="ccccc" /><path
     style="fill:none;stroke:#00ff00;stroke-width:0.3;stroke-linecap:round;stroke-opacity:0.997898"
     d="m 89.428925,21.744774 -0.08514,-0.307945 0.246989,-0.09773 0.168042,0.2868 z"
     id="path75" /><path
     style="fill:none;stroke:#00ff00;stroke-width:0.3;stroke-linecap:round;stroke-opacity:0.997898"
     d="m 89.796995,25.577136 -0.0609,-0.305812 0.346544,0.01031 0.01061,0.264037 z"
     id="path76" /><path
     style="fill:none;stroke:#00ff00;stroke-width:0.3;stroke-linecap:round;stroke-opacity:0.997898"
     d="m 85.597718,23.732196 0.256511,-0.430886 0.132824,0.308058 -0.124841,0.336235 z"
     id="path77" /><path
     style="fill:none;stroke:#00ff00;stroke-width:0.3;stroke-linecap:round;stroke-opacity:0.997898"
     d="m 86.975793,16.775107 0.313968,-0.179225 0.163671,0.301143 -0.315825,0.266003 z"
     id="path78" /><path
     style="fill:none;stroke:#00ff00;stroke-width:0.3;stroke-linecap:round;stroke-opacity:0.997898"
     d="m 87.250076,15.138071 0.331541,-0.175979 0.02537,0.247395 -0.329121,0.257927 z"
     id="path79" /><path
     style="fill:none;stroke:#00ff00;stroke-width:0.3;stroke-linecap:round;stroke-opacity:0.997898"
     d="m 87.36228,13.589347 0.355894,-0.04487 0.03152,0.239532 -0.434226,0.104459 z"
     id="path80" /><path
     style="fill:none;stroke:#00ff00;stroke-width:0.3;stroke-linecap:round;stroke-opacity:0.997898"
     d="m 85.884061,12.976145 0.360103,-0.12628 -0.159993,-0.212689 -0.406292,0.08115 z"
     id="path81" /><path
     style="fill:none;stroke:#00ff00;stroke-width:0.3;stroke-linecap:round;stroke-opacity:0.997898"
     d="m 85.958269,11.43782 0.158599,0.132147 0.159478,-0.118377 -0.159883,-0.199713 z"
     id="path82" /><path
     style="fill:none;stroke:#00ff00;stroke-width:0.3;stroke-linecap:round;stroke-opacity:0.997898"
     d="m 87.521197,12.160688 0.140928,0.122666 0.265318,-0.130084 -0.245755,-0.301471 z"
     id="path83" /><path
     style="fill:none;stroke:#00ff00;stroke-width:0.3;stroke-linecap:round;stroke-opacity:0.997898"
     d="m 89.277408,13.149597 0.212498,-0.170422 0.129209,0.159566 -0.205602,0.22528 z"
     id="path84" /><path
     style="fill:none;stroke:#00ff00;stroke-width:0.3;stroke-linecap:round;stroke-opacity:0.997898"
     d="m 90.898487,13.876785 0.331298,-0.0662 0.02537,0.292784 -0.357261,0.08477 z"
     id="path85" /><path
     style="fill:none;stroke:#00ff00;stroke-width:0.3;stroke-linecap:round;stroke-opacity:0.997898"
     d="m 90.693522,15.563158 0.306075,-0.170072 0.07019,0.236194 -0.277773,0.124446 -0.10982,-0.262664 z"
     id="path86" /><path
     style="fill:none;stroke:#00ff00;stroke-width:0.3;stroke-linecap:round;stroke-opacity:0.997898"
     d="m 89.088909,16.051659 0.334576,-0.174626 0.103791,0.210245 -0.404837,0.183443 z"
     id="path87" /><path
     style="fill:none;stroke:#00ff00;stroke-width:0.3;stroke-linecap:round;stroke-opacity:0.997898"
     d="m 89.280311,14.720708 0.311735,-0.220854 -0.379968,-0.199308 -0.239655,0.198072 z"
     id="path88" /><path
     style="fill:none;stroke:#00ff00;stroke-width:0.3;stroke-linecap:round;stroke-opacity:0.997898"
     d="m 89.065525,17.598694 0.270893,-0.02824 0.05752,0.229431 -0.317121,0.05509 z"
     id="path89" /><path
     style="fill:none;stroke:#00ff00;stroke-width:0.3;stroke-linecap:round;stroke-opacity:0.997898"
     d="m 44.866319,89.873195 c 2.424717,-8.618253 3.752954,-16.050525 7.274713,-25.855364 6.279002,0.179174 9.595076,1.268887 13.922981,2.047653 -1.647427,9.701526 -0.134717,15.872147 -0.200927,23.806938"
     id="path90"
     sodipodi:nodetypes="cccc" /><path
     style="fill:none;stroke:#00ff00;stroke-width:0.3;stroke-linecap:round;stroke-opacity:0.997898"
     d="m 49.245723,88.608187 c 4.905875,-6.557755 6.460826,-11.60176 14.717636,-19.67327"
     id="path91"
     sodipodi:nodetypes="cc" /><path
     style="fill:none;stroke:#00ff00;stroke-width:0.3;stroke-linecap:round;stroke-opacity:0.997898"
     d="m 52.94313,61.59942 c 1.70934,-6.183637 3.418679,-11.165393 5.128019,-19.513346 l -0.07193,-1.482727 c 2.574348,0.652906 3.640646,-0.0191 8.260972,2.431322 l -1.485617,0.635558 c -1.534851,11.952609 0.166381,12.210955 0.249571,18.316432"
     id="path92"
     sodipodi:nodetypes="cccccc" /><path
     style="fill:none;stroke:#00ff00;stroke-width:0.3;stroke-linecap:round;stroke-opacity:0.997898"
     d="M 64.164341,64.179214 C 62.457881,57.280997 61.166877,47.69075 59.002688,43.758471"
     id="path93"
     sodipodi:nodetypes="cc" /><path
     style="fill:none;stroke:#00ff00;stroke-width:0.3;stroke-linecap:round;stroke-opacity:0.997898"
     d="m 44.680668,89.638798 -4.231756,3.233105 -0.0182,3.266897 0.03106,-0.121785"
     id="path94" /><path
     style="fill:none;stroke:#00ff00;stroke-width:0.3;stroke-linecap:round;stroke-opacity:0.997898"
     d="m 41.532609,93.248979 c 5.790698,2.127943 14.52102,0.136128 21.945539,-0.02566"
     id="path95"
     sodipodi:nodetypes="cc" /><path
     style="fill:none;stroke:#00ff00;stroke-width:0.3;stroke-linecap:round;stroke-opacity:0.997898"
     d="m 65.064393,40.870719 0.121502,-8.688337 0.0014,-1.761558"
     id="path96"
     sodipodi:nodetypes="ccc" /><path
     style="fill:none;stroke:#00ff00;stroke-width:0.3;stroke-linecap:round;stroke-opacity:0.997898"
     d="m 58.929804,38.765876 0.177128,-0.992711"
     id="path97" /><path
     style="fill:none;stroke:#00ff00;stroke-width:0.3;stroke-linecap:round;stroke-opacity:0.997898"
     d="m 59.7366,31.614869 0.08507,-1.964949"
     id="path98"
     sodipodi:nodetypes="cc" /><path
     style="fill:none;stroke:#00ff00;stroke-width:0.3;stroke-linecap:round;stroke-opacity:0.997898"
     d="m 76.852036,18.026363 2.860011,-2.111965"
     id="path99"
     sodipodi:nodetypes="cc" /><path
     style="fill:none;stroke:#00ff00;stroke-width:0.3;stroke-linecap:round;stroke-opacity:0.997898"
     d="M 80.055145,7.5254836 83.756009,4.8443599"
     id="path102" /><path
     style="fill:none;stroke:#00ff00;stroke-width:0.3;stroke-linecap:round;stroke-opacity:0.997898"
     d="m 63.641549,39.162886 -0.01212,-0.832262 v 0"
     id="path103" /><path
     style="fill:none;stroke:#00ff00;stroke-width:0.3;stroke-linecap:round;stroke-opacity:0.997898"
     d="M 63.902563,36.367317 63.800169,35.979592"
     id="path104" /><path
     style="fill:none;stroke:#00ff00;stroke-width:0.3;stroke-linecap:round;stroke-opacity:0.997898"
     d="m 60.815476,32.418292 0.142708,-0.573376"
     id="path105" /><path
     style="fill:none;stroke:#00ff00;stroke-width:0.3;stroke-linecap:round;stroke-opacity:0.997898"
     d="m 57.359141,33.07528 0.271868,-1.212676"
     id="path106"
     sodipodi:nodetypes="cc" /><path
     style="fill:none;stroke:#00ff00;stroke-width:0.3;stroke-linecap:round;stroke-opacity:0.997898"
     d="m 49.216495,113.8587 3.198022,-10.21012 c 4.920973,1.99382 9.836163,2.89011 12.061666,5.75863 -0.03541,1.95217 -1.289604,2.64664 -1.455249,5.59736"
     id="path108"
     sodipodi:nodetypes="cccc" /><path
     style="fill:none;stroke:#00ff00;stroke-width:0.3;stroke-linecap:round;stroke-opacity:0.997898"
     d="m 110.61845,112.46383 -1.25547,-5.87727 c -13.897111,1.07115 -33.469625,1.91435 -41.281527,3.22992"
     id="path109"
     sodipodi:nodetypes="ccc" /><path
     style="fill:none;stroke:#00ff00;stroke-width:0.3;stroke-linecap:round;stroke-opacity:0.997898"
     d="m 102.34803,103.80511 4.50384,1.46253"
     id="path110" /><path
     style="fill:none;stroke:#00ff00;stroke-width:0.3;stroke-linecap:round;stroke-opacity:0.997898"
     d="m 66.562403,106.95836 -1.006152,1.39096"
     id="path111" /><path
     style="fill:none;stroke:#00ff00;stroke-width:0.3;stroke-linecap:round;stroke-opacity:0.997898"
     d="m 53.166311,103.26637 3.221032,-0.828 2.638486,0.24662"
     id="path112" /><path
     style="fill:none;stroke:#00ff00;stroke-width:0.3;stroke-linecap:round;stroke-opacity:0.997898"
     d="m 38.178136,100.05458 -1.357982,6.95716"
     id="path113" /><path
     style="fill:none;stroke:#00ff00;stroke-width:0.3;stroke-linecap:round;stroke-opacity:0.997898"
     d="m 33.607435,98.645039 -3.880844,-1.78418 -1.67362,6.910151"
     id="path114" /><path
     style="fill:none;stroke:#00ff00;stroke-width:0.3;stroke-linecap:round;stroke-opacity:0.997898"
     d="m 31.998211,96.203621 2.91565,-1.184537 3.692599,-0.125987"
     id="path115" /><path
     style="fill:none;stroke:#00ff00;stroke-width:0.3;stroke-linecap:round;stroke-opacity:0.997898"
     d="M 42.404154,99.303505 53.223453,98.950684"
     id="path116" /><path
     style="fill:none;stroke:#00ff00;stroke-width:0.3;stroke-linecap:round;stroke-opacity:0.997898"
     d="M 60.576232,24.05641 39.609156,47.291603"
     id="path117"
     sodipodi:nodetypes="cc" /><path
     style="fill:none;stroke:#00ff00;stroke-width:0.3;stroke-linecap:round;stroke-opacity:0.997898"
     d="M 61.851194,23.229832 36.007868,53.097794"
     id="path118"
     sodipodi:nodetypes="cc" /><path
     style="fill:none;stroke:#00ff00;stroke-width:0.3;stroke-linecap:round;stroke-opacity:0.997898"
     d="m 79.895908,17.732033 -8.92209,5.771022"
     id="path119"
     sodipodi:nodetypes="cc" /><path
     style="fill:none;stroke:#00ff00;stroke-width:0.3;stroke-linecap:round;stroke-opacity:0.997898"
     d="m 64.690354,21.941374 c 1.297721,-4.400801 8.616481,-6.705758 12.928367,-10.057368"
     id="path120"
     sodipodi:nodetypes="cc" /><path
     style="fill:none;stroke:#00ff00;stroke-width:0.3;stroke-linecap:round;stroke-opacity:0.997898"
     d="m 79.892535,7.6590119 c -3.953878,1.4133096 -4.466117,3.6064171 -6.620406,5.1389451 -6.524138,4.480394 -6.884441,5.616448 -10.733016,8.602041 l -2.141816,1.351924 -1.420833,1.891705"
     id="path121"
     sodipodi:nodetypes="ccccc" /><path
     style="fill:none;stroke:#00ff00;stroke-width:0.3;stroke-linecap:round;stroke-opacity:0.997898"
     d="m 57.535852,31.723377 0.443097,-2.383255"
     id="path122" /><path
     style="fill:none;stroke:#00ff00;stroke-width:0.3;stroke-linecap:round;stroke-opacity:0.997898"
     d="m 316.26697,134.76919 c -5.08685,1.33443 -6.89648,3.58284 -8.92209,5.77102"
     id="path119-4"
     sodipodi:nodetypes="cc" /><g
     id="g122"
     transform="matrix(1,0.17679882,0.15575308,1.027537,148.26399,-166.72932)"><path
       style="fill:none;stroke:#00ff00;stroke-width:0.3;stroke-linecap:round;stroke-opacity:0.997898"
       d="m 334.78733,215.8866 c -11.4847,-0.33477 -21.47899,3.05845 -34.19022,0.32054 l 5.22417,-6.13379 c 1.72264,-11.01905 3.1885,-22.02635 7.31889,-33.15551"
       id="path3-1"
       sodipodi:nodetypes="cccc" /><path
       style="fill:none;stroke:#00ff00;stroke-width:0.3;stroke-linecap:round;stroke-opacity:0.997898"
       d="m 333.76203,214.4915 -2.73765,-3.33651 c -1.76551,-10.16175 -2.03317,-20.77225 -1.49865,-31.6231 l 1.84947,-0.62664 -18.99026,-4.15736"
       id="path4-2"
       sodipodi:nodetypes="ccccc" /><path
       style="fill:none;stroke:#00ff00;stroke-width:0.3;stroke-linecap:round;stroke-opacity:0.997898"
       d="m 314.25905,173.6823 16.79884,3.77805"
       id="path38-7" /><path
       style="fill:none;stroke:#00ff00;stroke-width:0.3;stroke-linecap:round;stroke-opacity:0.997898"
       d="m 328.2368,183.70735 c -1.03759,9.54124 -0.0349,18.51594 0.86805,27.51836 -5.85468,0.0564 -12.55151,1.08028 -17.08537,-0.38055 v 0"
       id="path39-0"
       sodipodi:nodetypes="cccc" /><path
       style="fill:none;stroke:#00ff00;stroke-width:0.3;stroke-linecap:round;stroke-opacity:0.997898"
       d="m 307.94,214.39019 c 7.30574,-11.27802 14.50857,-22.6086 20.24376,-34.68879 l 1.48651,0.82767 c -4.99556,11.8485 -12.47056,23.31981 -20.28689,34.73919 z"
       id="path40-9"
       sodipodi:nodetypes="ccccc" /><path
       style="fill:none;stroke:#00ff00;stroke-width:0.3;stroke-linecap:round;stroke-opacity:0.997898"
       d="m 309.832,212.71373 0.0752,-0.46099 0.33193,-0.005 0.0101,0.47678 z"
       id="path42-3" /><path
       style="fill:none;stroke:#00ff00;stroke-width:0.3;stroke-linecap:round;stroke-opacity:0.997898"
       d="m 328.2646,181.08262 -0.13683,-0.43216 0.43768,-0.0152 0.11868,0.41802 z"
       id="path43-6" /><path
       style="fill:none;stroke:#00ff00;stroke-width:0.3;stroke-linecap:round;stroke-opacity:0.997898"
       d="m 325.00781,210.25156 -4.75909,-11.9515"
       id="path44-0" /><path
       style="fill:none;stroke:#00ff00;stroke-width:0.3;stroke-linecap:round;stroke-opacity:0.997898"
       d="m 319.40374,200.26654 3.80591,9.50909"
       id="path45-6" /><path
       style="fill:none;stroke:#00ff00;stroke-width:0.3;stroke-linecap:round;stroke-opacity:0.997898"
       d="m 317.42399,195.67706 -3.56297,-8.54427 -0.56297,-0.71864"
       id="path46-2" /><path
       style="fill:none;stroke:#00ff00;stroke-width:0.3;stroke-linecap:round;stroke-opacity:0.997898"
       d="m 314.63172,184.45418 3.9286,8.78472"
       id="path47-6" /><path
       style="fill:none;stroke:#00ff00;stroke-width:0.3;stroke-linecap:round;stroke-opacity:0.997898"
       d="m 308.0633,210.09362 c 1.31367,-6.23124 1.48373,-12.30798 3.95645,-18.69581"
       id="path48-1"
       sodipodi:nodetypes="cc" /><path
       style="fill:none;stroke:#00ff00;stroke-width:0.3;stroke-linecap:round;stroke-opacity:0.997898"
       d="m 316.00695,177.48763 7.69279,1.42477"
       id="path49-8" /><path
       style="fill:none;stroke:#00ff00;stroke-width:0.3;stroke-linecap:round;stroke-opacity:0.997898"
       d="m 325.81047,207.68977 c -0.89265,-4.70269 -1.89535,-9.30587 -0.99025,-15.63396 v 0.62389 l 0.10676,-2.15916"
       id="path50-7"
       sodipodi:nodetypes="cccc" /><path
       style="fill:none;stroke:#00ff00;stroke-width:0.3;stroke-linecap:round;stroke-opacity:0.997898"
       d="m 324.061,183.73511 -0.1201,-4.41401"
       id="path51-9" /><path
       style="fill:none;stroke:#00ff00;stroke-width:0.3;stroke-linecap:round;stroke-opacity:0.997898"
       d="m 297.87487,215.2831 3.09627,0.94267"
       id="path52-2" /><path
       style="fill:none;stroke:#00ff00;stroke-width:0.3;stroke-linecap:round;stroke-opacity:0.997898"
       d="m 299.58613,213.25492 4.17379,-4.59328 c 0.93311,-9.88772 2.08812,-19.81917 6.07369,-30.30846"
       id="path53-0"
       sodipodi:nodetypes="ccc" /><path
       style="fill:none;stroke:#00ff00;stroke-width:0.3;stroke-linecap:round;stroke-opacity:0.997898"
       d="m 308.19112,176.09064 3.31564,-1.81342"
       id="path54-2" /><path
       style="fill:none;stroke:#00ff00;stroke-width:0.3;stroke-linecap:round;stroke-opacity:0.997898"
       d="m 301.32963,218.09573 0.31281,4.66434 c 12.68316,0.45569 21.7589,-2.28048 32.63835,-1.517"
       id="path55-3"
       sodipodi:nodetypes="ccc" /><path
       style="fill:none;stroke:#00ff00;stroke-width:0.3;stroke-linecap:round;stroke-opacity:0.997898"
       d="m 297.44761,216.35268 0.0536,3.12224 1.71318,1.64621"
       id="path56-7" /><path
       style="fill:none;stroke:#00ff00;stroke-width:0.3;stroke-linecap:round;stroke-opacity:0.997898"
       d="m 327.75315,175.69135 c -2.41644,-10.66018 -4.72606,-21.75282 -7.69027,-30.19525 l 1.33997,-0.10555 c 3.04412,8.37538 5.27817,19.46771 7.6991,29.93323"
       id="path57-5"
       sodipodi:nodetypes="cccc" /><path
       style="fill:none;stroke:#00ff00;stroke-width:0.3;stroke-linecap:round;stroke-opacity:0.997898"
       d="m 327.37834,148.0349 c 1.95268,0.0614 1.4581,12.96492 1.39641,22.91649"
       id="path58-9"
       sodipodi:nodetypes="cc" /><path
       style="fill:none;stroke:#00ff00;stroke-width:0.3;stroke-linecap:round;stroke-opacity:0.997898"
       d="m 325.5182,147.41623 1.567,12.50091"
       id="path59-2"
       sodipodi:nodetypes="cc" /><path
       style="fill:none;stroke:#00ff00;stroke-width:0.3;stroke-linecap:round;stroke-opacity:0.997898"
       d="m 323.55219,174.59992 -0.99271,-15.76131"
       id="path60-2" /><path
       style="fill:none;stroke:#00ff00;stroke-width:0.3;stroke-linecap:round;stroke-opacity:0.997898"
       d="M 316.09523,172.72008 320.26634,151.571"
       id="path61-8" /><path
       style="fill:none;stroke:#00ff00;stroke-width:0.3;stroke-linecap:round;stroke-opacity:0.997898"
       d="m 319.2692,148.8304 c 0.86146,-0.78219 -3.4576,21.85412 -4.59005,23.3634"
       id="path62-9"
       sodipodi:nodetypes="cc" /><path
       style="fill:none;stroke:#00ff00;stroke-width:0.3;stroke-linecap:round;stroke-opacity:0.997898"
       d="m 310.90335,173.2556 c 2.70695,-9.0162 4.46331,-17.13184 5.02183,-24.11266"
       id="path63-7"
       sodipodi:nodetypes="cc" /><path
       style="fill:none;stroke:#00ff00;stroke-width:0.3;stroke-linecap:round;stroke-opacity:0.997898"
       d="m 316.28288,147.16101 3.75445,-2.42569"
       id="path64-3" /><path
       style="fill:none;stroke:#00ff00;stroke-width:0.3;stroke-linecap:round;stroke-opacity:0.997898"
       d="m 311.0054,177.42975 1.18668,-0.47259"
       id="path65-6" /><path
       style="fill:none;stroke:#00ff00;stroke-width:0.3;stroke-linecap:round;stroke-opacity:0.997898"
       d="m 314.08074,146.46556 5.83305,-3.46663 9.37932,4.23237"
       id="path66-1" /><path
       style="fill:none;stroke:#00ff00;stroke-width:0.3;stroke-linecap:round;stroke-opacity:0.997898"
       d="m 320.67125,142.25331 c 0.83115,-10.48743 0.34292,-9.45015 1.03251,-15.65346 1.71709,2.66417 4.42936,2.27893 6.74238,3.11707"
       id="path67-2"
       sodipodi:nodetypes="ccc" /><path
       style="fill:none;stroke:#00ff00;stroke-width:0.3;stroke-linecap:round;stroke-opacity:0.997898"
       d="m 328.24112,130.88121 c 1.81461,-4.49271 -0.004,7.02576 -0.81254,14.09035"
       id="path68-9"
       sodipodi:nodetypes="cc" /><path
       style="fill:none;stroke:#00ff00;stroke-width:0.3;stroke-linecap:round;stroke-opacity:0.997898"
       d="m 316.62398,143.33972 c 1.08081,-5.78626 1.45649,-10.66891 1.12791,-14.6491 l 3.3731,-1.63757"
       id="path69-3"
       sodipodi:nodetypes="ccc" /><path
       style="fill:none;stroke:#00ff00;stroke-width:0.3;stroke-linecap:round;stroke-opacity:0.997898"
       d="m 320.62882,125.98401 c 1.39049,-0.91301 1.59462,-3.72651 2.10098,-6.05586 l 4.42432,0.97185 c 0.45636,3.46153 0.27458,5.11954 0.27714,7.29853"
       id="path70-1"
       sodipodi:nodetypes="cccc" /><path
       style="fill:none;stroke:#00ff00;stroke-width:0.3;stroke-linecap:round;stroke-opacity:0.997898"
       d="m 324.32614,126.55617 0.57872,-4.67279"
       id="path71-9" /><path
       style="fill:none;stroke:#00ff00;stroke-width:0.3;stroke-linecap:round;stroke-opacity:0.997898"
       d="m 318.12235,141.45531 c 2.4981,-4.43815 1.44214,-8.54402 1.19024,-12.72507"
       id="path73-4"
       sodipodi:nodetypes="cc" /><path
       style="fill:none;stroke:#00ff00;stroke-width:0.3;stroke-linecap:round;stroke-opacity:0.997898"
       d="m 322.68,136.98516 0.0828,0.31743 0.28951,-0.18315 -0.13262,-0.29028 z"
       id="path74-7"
       sodipodi:nodetypes="ccccc" /><path
       style="fill:none;stroke:#00ff00;stroke-width:0.3;stroke-linecap:round;stroke-opacity:0.997898"
       d="m 325.79998,138.78193 -0.0851,-0.30795 0.24699,-0.0977 0.16805,0.2868 z"
       id="path75-8" /><path
       style="fill:none;stroke:#00ff00;stroke-width:0.3;stroke-linecap:round;stroke-opacity:0.997898"
       d="m 326.16805,142.61429 -0.0609,-0.30581 0.34654,0.0103 0.0106,0.26403 z"
       id="path76-4" /><path
       style="fill:none;stroke:#00ff00;stroke-width:0.3;stroke-linecap:round;stroke-opacity:0.997898"
       d="m 321.96878,140.76935 0.25651,-0.43089 0.13282,0.30806 -0.12484,0.33624 z"
       id="path77-5" /><path
       style="fill:none;stroke:#00ff00;stroke-width:0.3;stroke-linecap:round;stroke-opacity:0.997898"
       d="m 323.34685,133.81226 0.31397,-0.17922 0.16367,0.30114 -0.31582,0.266 z"
       id="path78-0" /><path
       style="fill:none;stroke:#00ff00;stroke-width:0.3;stroke-linecap:round;stroke-opacity:0.997898"
       d="m 323.62114,132.17522 0.33154,-0.17597 0.0254,0.24739 -0.32912,0.25793 z"
       id="path79-3" /><path
       style="fill:none;stroke:#00ff00;stroke-width:0.3;stroke-linecap:round;stroke-opacity:0.997898"
       d="m 323.73334,130.6265 0.35589,-0.0449 0.0315,0.23953 -0.43422,0.10446 z"
       id="path80-6" /><path
       style="fill:none;stroke:#00ff00;stroke-width:0.3;stroke-linecap:round;stroke-opacity:0.997898"
       d="m 322.25512,130.0133 0.3601,-0.12628 -0.15999,-0.21269 -0.40629,0.0812 z"
       id="path81-1" /><path
       style="fill:none;stroke:#00ff00;stroke-width:0.3;stroke-linecap:round;stroke-opacity:0.997898"
       d="m 322.32933,128.47497 0.1586,0.13215 0.15948,-0.11838 -0.15989,-0.19971 z"
       id="path82-0" /><path
       style="fill:none;stroke:#00ff00;stroke-width:0.3;stroke-linecap:round;stroke-opacity:0.997898"
       d="m 323.89226,129.19784 0.14092,0.12267 0.26532,-0.13009 -0.24575,-0.30147 z"
       id="path83-6" /><path
       style="fill:none;stroke:#00ff00;stroke-width:0.3;stroke-linecap:round;stroke-opacity:0.997898"
       d="m 325.64847,130.18675 0.2125,-0.17042 0.12921,0.15956 -0.20561,0.22528 z"
       id="path84-3" /><path
       style="fill:none;stroke:#00ff00;stroke-width:0.3;stroke-linecap:round;stroke-opacity:0.997898"
       d="m 327.26955,130.91394 0.3313,-0.0662 0.0254,0.29278 -0.35726,0.0848 z"
       id="path85-2" /><path
       style="fill:none;stroke:#00ff00;stroke-width:0.3;stroke-linecap:round;stroke-opacity:0.997898"
       d="m 327.06458,132.60031 0.30608,-0.17007 0.0702,0.23619 -0.27778,0.12445 -0.10982,-0.26266 z"
       id="path86-0" /><path
       style="fill:none;stroke:#00ff00;stroke-width:0.3;stroke-linecap:round;stroke-opacity:0.997898"
       d="m 325.45997,133.08881 0.33457,-0.17462 0.1038,0.21024 -0.40484,0.18344 z"
       id="path87-6" /><path
       style="fill:none;stroke:#00ff00;stroke-width:0.3;stroke-linecap:round;stroke-opacity:0.997898"
       d="m 325.65137,131.75786 0.31174,-0.22085 -0.37997,-0.19931 -0.23966,0.19807 z"
       id="path88-1" /><path
       style="fill:none;stroke:#00ff00;stroke-width:0.3;stroke-linecap:round;stroke-opacity:0.997898"
       d="m 325.43659,134.63585 0.27089,-0.0282 0.0575,0.22943 -0.31712,0.0551 z"
       id="path89-5" /><path
       style="fill:none;stroke:#00ff00;stroke-width:0.3;stroke-linecap:round;stroke-opacity:0.997898"
       d="m 281.23738,206.91035 c 2.78388,-7.46356 5.4354,-15.35295 7.27471,-25.85537 l 13.92298,2.04766 c 1.07868,7.10717 -1.85403,13.92993 -0.20092,23.80694"
       id="path90-5"
       sodipodi:nodetypes="cccc" /><path
       style="fill:none;stroke:#00ff00;stroke-width:0.3;stroke-linecap:round;stroke-opacity:0.997898"
       d="m 298.86138,205.89161 c -2.02376,-6.12132 -7.0506,-13.57061 -7.54104,-20.7455"
       id="path91-4"
       sodipodi:nodetypes="cc" /><path
       style="fill:none;stroke:#00ff00;stroke-width:0.3;stroke-linecap:round;stroke-opacity:0.997898"
       d="m 289.31419,178.63657 c -0.87687,-4.89013 3.41179,-13.00459 5.12802,-19.51334 l -0.0719,-1.48273 c 2.64466,0.88255 3.28964,3.08807 8.26097,2.43132 l -1.48562,0.63556 0.24958,18.31643"
       id="path92-7"
       sodipodi:nodetypes="cccccc" /><path
       style="fill:none;stroke:#00ff00;stroke-width:0.3;stroke-linecap:round;stroke-opacity:0.997898"
       d="m 291.12699,178.09533 c 4.09644,-7.73879 5.68211,-10.64706 8.65172,-15.81283"
       id="path93-6"
       sodipodi:nodetypes="cc" /><path
       style="fill:none;stroke:#00ff00;stroke-width:0.3;stroke-linecap:round;stroke-opacity:0.997898"
       d="m 281.05173,206.67595 -4.23176,3.23311 -0.0182,3.26689 0.0311,-0.12178"
       id="path94-5" /><path
       style="fill:none;stroke:#00ff00;stroke-width:0.3;stroke-linecap:round;stroke-opacity:0.997898"
       d="m 277.51684,210.5647 c 4.64475,0.59604 11.6676,0.65366 21.94554,-0.0257"
       id="path95-6"
       sodipodi:nodetypes="cc" /><path
       style="fill:none;stroke:#00ff00;stroke-width:0.3;stroke-linecap:round;stroke-opacity:0.997898"
       d="m 301.43545,157.90787 0.12151,-8.68833 v 0"
       id="path96-9" /><path
       style="fill:none;stroke:#00ff00;stroke-width:0.3;stroke-linecap:round;stroke-opacity:0.997898"
       d="m 295.30086,155.80303 0.17713,-0.99271"
       id="path97-3" /><path
       style="fill:none;stroke:#00ff00;stroke-width:0.3;stroke-linecap:round;stroke-opacity:0.997898"
       d="m 295.54972,152.20502 0.64301,-5.51795"
       id="path98-7" /><path
       style="fill:none;stroke:#00ff00;stroke-width:0.3;stroke-linecap:round;stroke-opacity:0.997898"
       d="m 313.2231,135.06352 2.86001,-2.11197"
       id="path99-4"
       sodipodi:nodetypes="cc" /><path
       style="fill:none;stroke:#00ff00;stroke-width:0.3;stroke-linecap:round;stroke-opacity:0.997898"
       d="m 309.84687,130.19662 c -5.80299,1.60991 -8.56369,5.36124 -11.54572,8.95677 l -1.53279,0.63569 -1.42084,1.8917"
       id="path101-5"
       sodipodi:nodetypes="cccc" /><path
       style="fill:none;stroke:#00ff00;stroke-width:0.3;stroke-linecap:round;stroke-opacity:0.997898"
       d="m 316.4262,124.56263 3.70087,-2.68112"
       id="path102-2" /><path
       style="fill:none;stroke:#00ff00;stroke-width:0.3;stroke-linecap:round;stroke-opacity:0.997898"
       d="m 300.01261,156.20004 -0.0121,-0.83226 v 0"
       id="path103-5" /><path
       style="fill:none;stroke:#00ff00;stroke-width:0.3;stroke-linecap:round;stroke-opacity:0.997898"
       d="m 300.27362,153.40447 -0.10239,-0.38772"
       id="path104-4" /><path
       style="fill:none;stroke:#00ff00;stroke-width:0.3;stroke-linecap:round;stroke-opacity:0.997898"
       d="m 297.18654,149.45545 0.1427,-0.57338"
       id="path105-7" /><path
       style="fill:none;stroke:#00ff00;stroke-width:0.3;stroke-linecap:round;stroke-opacity:0.997898"
       d="m 293.29202,153.44033 0.71005,-4.54057"
       id="path106-4" /><path
       style="fill:none;stroke:#00ff00;stroke-width:0.3;stroke-linecap:round;stroke-opacity:0.997898"
       d="m 287.43571,221.05991 12.53975,5.26342 -6.20408,20.34227"
       id="path108-4"
       sodipodi:nodetypes="ccc" /><path
       style="fill:none;stroke:#00ff00;stroke-width:0.3;stroke-linecap:round;stroke-opacity:0.997898"
       d="m 348.12166,229.25193 c -0.58252,-10.7392 -3.53933,-3.08807 -2.38762,-5.62822 -15.31532,-0.60313 -27.32431,3.02319 -42.65438,2.70706"
       id="path109-3"
       sodipodi:nodetypes="ccc" /><path
       style="fill:none;stroke:#00ff00;stroke-width:0.3;stroke-linecap:round;stroke-opacity:0.997898"
       d="m 338.71909,220.84226 4.50384,1.46253"
       id="path110-0" /><path
       style="fill:none;stroke:#00ff00;stroke-width:0.3;stroke-linecap:round;stroke-opacity:0.997898"
       d="m 302.93346,223.99551 -1.00615,1.39096"
       id="path111-7" /><path
       style="fill:none;stroke:#00ff00;stroke-width:0.3;stroke-linecap:round;stroke-opacity:0.997898"
       d="m 289.53737,220.30352 3.22103,-0.828 2.63849,0.24662"
       id="path112-8" /><path
       style="fill:none;stroke:#00ff00;stroke-width:0.3;stroke-linecap:round;stroke-opacity:0.997898"
       d="m 269.97849,215.68219 -3.88084,-1.78418 -1.67362,6.91015"
       id="path114-8" /><path
       style="fill:none;stroke:#00ff00;stroke-width:0.3;stroke-linecap:round;stroke-opacity:0.997898"
       d="m 268.36927,213.24077 2.91565,-1.18453 3.6926,-0.12599"
       id="path115-8" /><path
       style="fill:none;stroke:#00ff00;stroke-width:0.3;stroke-linecap:round;stroke-opacity:0.997898"
       d="m 278.77521,216.34066 10.8193,-0.35282"
       id="path116-4" /><path
       style="fill:none;stroke:#00ff00;stroke-width:0.3;stroke-linecap:round;stroke-opacity:0.997898"
       d="m 301.06141,138.97853 c 2.17814,-3.516 7.05374,-7.17815 14.19644,-10.3132"
       id="path120-9"
       sodipodi:nodetypes="cc" /><path
       style="fill:none;stroke:#00ff00;stroke-width:0.3;stroke-linecap:round;stroke-opacity:0.997898"
       d="m 309.89384,130.18043 c 2.54577,-1.43561 5.17707,-2.79176 6.36976,-5.48427"
       id="path121-2"
       sodipodi:nodetypes="cc" /><path
       style="fill:none;stroke:#00ff00;stroke-width:0.3;stroke-linecap:round;stroke-opacity:0.997898"
       d="m 293.90691,148.76053 0.4431,-2.38325"
       id="path122-0" /></g><path
     style="fill:none;stroke:#00ff00;stroke-width:0.3;stroke-linecap:round;stroke-opacity:0.997898"
     d="m 498.24348,22.54168 74.90569,80.7859"
     id="path123" /><path
     style="fill:none;stroke:#00ff00;stroke-width:0.3;stroke-linecap:round;stroke-opacity:0.997898"
     d="m 499.37529,26.238807 67.69497,75.573773"
     id="path124" /><path
     style="fill:none;stroke:#00ff00;stroke-width:0.3;stroke-linecap:round;stroke-opacity:0.997898"
     d="m 471.17859,36.468994 13.31614,10.755614"
     id="path125" /><path
     style="fill:none;stroke:#00ff00;stroke-width:0.3;stroke-linecap:round;stroke-opacity:0.997898"
     d="m 506.09457,63.888283 48.31247,41.698797"
     id="path126" /></svg>
