<?xml version="1.0" encoding="UTF-8" standalone="no"?>
<!-- Created with Inkscape (http://www.inkscape.org/) -->

<svg
   version="1.1"
   id="svg1"
   width="268mm"
   height="495.00003mm"
   viewBox="0 0 1012.9134 1870.8662"
   sodipodi:docname="Turm-shaken.svg"
   inkscape:version="1.3.2 (1:1.3.2+202311252150+091e20ef0f)"
   xml:space="preserve"
   xmlns:inkscape="http://www.inkscape.org/namespaces/inkscape"
   xmlns:sodipodi="http://sodipodi.sourceforge.net/DTD/sodipodi-0.dtd"
   xmlns:xlink="http://www.w3.org/1999/xlink"
   xmlns="http://www.w3.org/2000/svg"
   xmlns:svg="http://www.w3.org/2000/svg"><defs
     id="defs1"><inkscape:path-effect
       effect="bspline"
       id="path-effect14"
       is_visible="true"
       lpeversion="1.3"
       weight="33.333333"
       steps="2"
       helper_size="0"
       apply_no_weight="true"
       apply_with_weight="true"
       only_selected="false"
       uniform="false" /><inkscape:path-effect
       effect="bspline"
       id="path-effect13"
       is_visible="true"
       lpeversion="1.3"
       weight="33.333333"
       steps="2"
       helper_size="0"
       apply_no_weight="true"
       apply_with_weight="true"
       only_selected="false"
       uniform="false" /><inkscape:path-effect
       effect="bspline"
       id="path-effect12"
       is_visible="true"
       lpeversion="1.3"
       weight="33.333333"
       steps="2"
       helper_size="0"
       apply_no_weight="true"
       apply_with_weight="true"
       only_selected="false"
       uniform="false" /><inkscape:path-effect
       effect="bspline"
       id="path-effect11"
       is_visible="true"
       lpeversion="1.3"
       weight="33.333333"
       steps="2"
       helper_size="0"
       apply_no_weight="true"
       apply_with_weight="true"
       only_selected="false"
       uniform="false" /><inkscape:path-effect
       effect="bspline"
       id="path-effect10"
       is_visible="true"
       lpeversion="1.3"
       weight="33.333333"
       steps="2"
       helper_size="0"
       apply_no_weight="true"
       apply_with_weight="true"
       only_selected="false"
       uniform="false" /><inkscape:path-effect
       effect="bspline"
       id="path-effect9"
       is_visible="true"
       lpeversion="1.3"
       weight="33.333333"
       steps="2"
       helper_size="0"
       apply_no_weight="true"
       apply_with_weight="true"
       only_selected="false"
       uniform="false" /><inkscape:path-effect
       effect="bspline"
       id="path-effect8"
       is_visible="true"
       lpeversion="1.3"
       weight="33.333333"
       steps="2"
       helper_size="0"
       apply_no_weight="true"
       apply_with_weight="true"
       only_selected="false"
       uniform="false" /><inkscape:path-effect
       effect="bspline"
       id="path-effect7"
       is_visible="true"
       lpeversion="1.3"
       weight="33.333333"
       steps="2"
       helper_size="0"
       apply_no_weight="true"
       apply_with_weight="true"
       only_selected="false"
       uniform="false" /><inkscape:path-effect
       effect="bspline"
       id="path-effect4"
       is_visible="true"
       lpeversion="1.3"
       weight="33.333333"
       steps="2"
       helper_size="0"
       apply_no_weight="true"
       apply_with_weight="true"
       only_selected="false"
       uniform="false" /><inkscape:path-effect
       effect="bspline"
       id="path-effect3"
       is_visible="true"
       lpeversion="1.3"
       weight="33.333333"
       steps="2"
       helper_size="0"
       apply_no_weight="true"
       apply_with_weight="true"
       only_selected="false"
       uniform="false" /><inkscape:path-effect
       effect="bspline"
       id="path-effect2"
       is_visible="true"
       lpeversion="1.3"
       weight="33.333333"
       steps="2"
       helper_size="0"
       apply_no_weight="true"
       apply_with_weight="true"
       only_selected="false"
       uniform="false" /><inkscape:path-effect
       effect="bspline"
       id="path-effect1"
       is_visible="true"
       lpeversion="1.3"
       weight="33.333333"
       steps="2"
       helper_size="0"
       apply_no_weight="true"
       apply_with_weight="true"
       only_selected="false"
       uniform="false" /></defs><sodipodi:namedview
     id="namedview1"
     pagecolor="#ffffff"
     bordercolor="#000000"
     borderopacity="0.25"
     inkscape:showpageshadow="2"
     inkscape:pageopacity="0.0"
     inkscape:pagecheckerboard="0"
     inkscape:deskcolor="#d1d1d1"
     showgrid="false"
     inkscape:zoom="0.78515561"
     inkscape:cx="481.43323"
     inkscape:cy="1453.8519"
     inkscape:window-width="1920"
     inkscape:window-height="1049"
     inkscape:window-x="0"
     inkscape:window-y="0"
     inkscape:window-maximized="1"
     inkscape:current-layer="layer1"
     inkscape:document-units="mm"><inkscape:grid
       id="grid41"
       units="mm"
       originx="-1.0330817e-08"
       originy="5.0636348e-09"
       spacingx="3.7795276"
       spacingy="3.7795276"
       empcolor="#3f3fff"
       empopacity="0.25098039"
       color="#3f3fff"
       opacity="0.1254902"
       empspacing="5"
       dotted="false"
       gridanglex="30"
       gridanglez="30"
       visible="false" /></sodipodi:namedview><g
     inkscape:groupmode="layer"
     inkscape:label="Image"
     id="g1"
     style="display:none;opacity:0.417"
     sodipodi:insensitive="true"><image
       width="588"
       height="868"
       preserveAspectRatio="none"
       xlink:href="dsc_0775c.jpg"
       id="image1" /><image
       width="1604.5122"
       height="2139.3496"
       preserveAspectRatio="none"
       xlink:href="Nuremberg_Outer_Laufertor_Tower_f_e.jpg"
       id="image1-3"
       x="-378.25342"
       y="57.042953"
       style="stroke-width:0.498594" /></g><g
     inkscape:groupmode="layer"
     id="layer1"
     inkscape:label="outline"
     style="display:inline"><path
       style="display:inline;fill:#ffffff;stroke:#ff0000;stroke-width:0.755905;stroke-linecap:round;stroke-opacity:0.997898"
       d="m 500.81388,8.6359704 c 0,0 -2.76188,0.6252564 -5.54914,2.3669776 -2.78727,1.741722 -5.59992,4.599908 -5.70145,9.065768 -0.13881,6.105168 2.21219,10.1615 4.59789,12.691541 2.38569,2.53004 4.80609,3.533789 4.80609,3.533789 l -1.75429,16.536473 -1.75429,16.536474 c 0,0 -4.14288,7.440895 -6.21432,11.161343 -2.07144,3.720447 -2.26723,9.563495 -6.21431,11.161342 -2.41128,0.976127 -5.10919,-3.349097 -7.47044,-2.257494 -16.42187,7.591822 -12.7017,34.052986 -21.69747,49.749796 -4.71809,8.23264 -7.82369,19.81942 -16.76023,23.00924 -2.40499,0.85844 -5.07142,-2.9577 -7.41198,-1.93659 -13.43065,5.85933 -12.60261,26.57932 -20.78467,38.73531 -3.33445,4.95395 -5.47593,14.1537 -11.43643,13.78949 -1.87792,-0.11475 -1.16852,-4.65333 -3.04741,-4.7509 -13.32031,-0.69173 -24.97701,31.26229 -24.97701,31.26229 l -11.06362,9.99117 -11.06361,9.99117 3.19185,16.51785 3.19185,16.51784 6.31185,1.59377 6.31186,1.59377 -2.12093,18.59709 -2.12092,18.59709 c 0,0 -3.58374,0.99893 -7.94197,2.4063 -4.35824,1.40737 -9.49097,3.22319 -12.58898,4.85697 -13.26036,6.99305 -29.93539,15.81274 -47.48899,25.1087 -17.55361,9.29595 -20.03892,1.98022 -36.81355,10.87831 -16.77463,8.89808 -39.49476,44.66356 -58.762,39.8094 -54.04379,-13.61571 -85.71537,42.03119 -145.444455,70.68974 l -42.597084,20.43847 c -7.0245197,5.3145 -13.7628882,19.55791 -8.6541472,35.91561 5.1087411,16.3577 22.0645912,34.8297 62.4285102,48.60137 -10.31174,7.79354 -18.21106,14.93955 -21.79883,22.39773 -3.587769,7.45817 -2.863989,15.22852 4.070474,24.2707 l 0.320426,6.00784 0.320427,6.00785 c -9.317935,9.67803 -13.583054,17.89193 -13.393028,25.75588 0.190025,7.86395 4.835195,15.37795 13.337838,23.65616 -3.02492,4.5595 -3.699539,8.26584 -2.511706,11.30815 1.187832,3.04231 4.238116,5.42059 8.663,7.32396 -1.318287,3.76473 -2.141497,8.10506 -1.600789,12.12986 0.540708,4.02479 2.445335,7.73405 6.582722,10.23667 -3.172373,13.42986 -2.342891,21.25638 0.571854,27.41313 2.914745,6.15676 7.914753,10.64375 13.083432,17.39459 l 0.12555,23.29655 0.12555,23.29655 c -8.107364,4.54234 -14.300078,12.61452 -16.215142,21.08156 -1.915063,8.46704 0.447525,17.32893 9.450764,23.45073 0.601882,0.40925 0.733005,1.56329 0.829145,2.75952 0.09614,1.19622 0.157296,2.43464 0.619245,3.01267 1.058631,1.32464 1.529232,2.09506 2.111835,2.81594 0.582604,0.72089 1.277211,1.39224 2.783854,2.51874 L 66.42752,943.58011 48.490631,941.7584 c 0,0 13.674089,76.3887 7.398521,113.9215 -3.261504,19.5063 -19.611288,35.233 -22.896484,54.7354 -6.292038,37.3523 29.501908,82.8784 7.088931,113.4143 -3.48766,4.7517 -13.677216,-0.5118 -17.167352,4.238 -21.3294482,29.028 6.628983,107.8618 6.628983,107.8618 -12.913525,3.6828 -19.5670759,12.699 -20.8401599,22.0278 -1.273084,9.3287 2.8342989,18.9699 11.4426399,23.9024 l -4.091546,56.11 4.114149,97.247 -12.2972397,14.9728 -4.0915457,56.1099 83.1496114,109.6063 83.149611,109.6063 -1e-5,9.4488 v 9.4488 h 5.66929 5.66929 c 0.94766,1.888 1.42722,2.8329 1.43009,3.7782 0.003,0.9453 -0.47097,1.8911 -1.43009,3.7808 v 9.4489 9.4488 h 328.81891 328.81891 v -9.4488 -9.4489 c -0.96874,-1.8897 -1.46552,-2.8346 -1.47172,-3.7795 -0.006,-0.9449 0.47817,-1.8898 1.47172,-3.7795 h 5.66929 5.66929 l 10e-6,-9.4488 v -9.4488 l 22.67716,-98.2677 22.67716,-98.2678 c 0.36038,-1.768 1.07912,-3.6735 2.29328,-5.1291 1.21416,-1.4556 2.92374,-2.4614 5.26578,-2.4299 l 52.9134,-7.559 52.91339,-7.5591 -5.4121,-59.7129 5.7173,-116.4497 -16.54149,-2.9761 -5.4121,-59.7129 c 8.85845,-3.8813 12.14297,-11.0577 10.36471,-17.8094 -1.77825,-6.7517 -8.61929,-13.0787 -20.01196,-15.261 0,0 14.71638,-76.4393 7.7955,-113.8398 -3.61015,-19.5093 -21.63721,-34.4498 -25.04667,-53.9952 -6.75468,-38.7225 40.38821,-91.9585 10.47242,-117.4556 -5.75047,-4.9011 -15.78082,9.8949 -21.97319,5.5656 -30.728,-21.4832 -7.66719,-74.59329 -11.50078,-111.88994 -1.9168,-18.64833 -5.75039,-55.94498 -5.75039,-55.94498 0,0 5.50514,-3.20618 10.93118,-8.31408 5.42604,-5.10791 10.77298,-12.11753 10.45656,-19.72442 -0.31642,-7.60693 -5.44705,-14.59171 -10.49857,-19.67475 -5.05152,-5.08304 -10.02393,-8.26435 -10.02393,-8.26435 l -0.79707,-22.1091 -0.79707,-22.10909 c 11.00806,-10.26728 16.54766,-17.54205 18.44799,-23.62259 1.90032,-6.08055 0.16136,-10.96686 -3.3877,-16.45723 2.24652,-4.89103 5.11122,-9.05071 7.22954,-14.09341 2.11833,-5.0427 3.49028,-10.96843 2.75134,-19.39155 l 3.73912,-4.19445 3.73912,-4.19444 -0.56222,-5.27962 -0.56222,-5.27962 c 0,0 3.49276,-1.15601 6.87474,-4.15784 3.38197,-3.00183 6.65316,-7.84948 6.21003,-15.23276 -0.44313,-7.38327 -4.52795,-15.00355 -8.50198,-20.77801 -3.97403,-5.77446 -7.83728,-9.7031 -7.83728,-9.7031 0,0 2.36184,-2.70005 4.7845,-7.05429 2.42266,-4.35425 4.90613,-10.3627 5.14942,-16.97949 0.2547,-6.92724 -5.68939,-14.03601 -11.69715,-19.41297 -6.00776,-5.37696 -12.0792,-9.02211 -12.0792,-9.02211 l 22.36541,-12.14537 22.3654,-12.14537 c 11.65419,-6.32873 16.88109,-16.83663 17.63629,-27.61753 0.7551,-10.78089 -2.9614,-21.83483 -9.194,-29.25574 -13.06251,-6.78626 -26.64311,-13.81563 -40.64414,-21.03803 -14.00103,-7.2224 -28.42247,-14.63783 -43.16665,-22.19621 -14.74418,-7.55838 -66.70878,-47.30429 -82.00074,-55.09848 -15.29196,-7.7942 6.08872,16.36332 -9.55565,8.43348 -15.64437,-7.92985 -59.53465,-50.94333 -75.33607,-58.90866 -15.80141,-7.96534 -3.51396,19.11748 -19.27705,11.21681 -15.76309,-7.90066 -31.45817,-15.74394 -46.98756,-23.47976 -15.52939,-7.73583 -30.8931,-15.3642 -45.99342,-22.83502 l -0.87486,-16.87931 -0.87487,-16.87931 12.30962,-2.6322 12.30961,-2.6322 -2.57016,-13.94464 -2.57016,-13.94464 -5.24464,-8.50783 -5.24465,-8.50782 c -12.40473,-8.15694 -23.19619,-17.26377 -33.20792,-26.96338 -10.01174,-9.6996 -19.24375,-19.99196 -28.52957,-30.51996 l 1.85342,-26.0039 1.85342,-26.0039 -6.99881,-10.12029 -6.99882,-10.12028 -4.10959,-0.17043 -4.10959,-0.17043 -8.58349,5.55329 -8.58348,5.55329 -16.14969,-26.738065 -16.14968,-26.738064 c -1.57663,-12.482363 -2.38724,-14.614703 -2.90736,-16.760565 -0.52011,-2.145862 -0.74973,-4.305246 -1.16437,-16.841695 3.78637,-2.028183 6.23523,-4.731031 7.71604,-7.516254 1.48082,-2.785222 1.99359,-5.65282 1.90779,-8.0105 -0.12411,-3.410372 -0.88016,-6.092461 -2.44429,-8.062423 -1.56412,-1.969963 -3.93632,-3.2277995 -7.29273,-3.789666 -0.85869,-1.5581863 -0.91593,-3.9757646 -1.37559,-5.961837 -0.45965,-1.9860724 -1.32172,-3.54063882 -3.79008,-3.37280144 -1.34588,0.2193176 -1.8465,1.65036434 -2.13256,3.38900224 -0.28606,1.7386378 -0.35755,3.7848667 -0.84518,5.2345486 z"
       id="path9"
       sodipodi:nodetypes="cssscccssssssssscccccccccsssssccscscccscscscscccssssscccsssscscccccccccccscccccccscccccccscccccccscssssscssscccscscccccssscsssccsscssssssscccccccccscccccccccccscssscscsc" /><rect
       style="fill:none;stroke:#0000ff;stroke-width:0.755906;stroke-linecap:round;stroke-opacity:0.997898"
       id="rect1"
       width="56.692913"
       height="22.677166"
       x="895.74799"
       y="1628.9764" /><path
       style="color:#000000;fill:none;fill-opacity:0.997898;stroke:#00ff00;stroke-linecap:round;-inkscape-stroke:none"
       d="m 9.5903724,1604.5771 3.8046896,-52.1797 12.529296,-15.2559 -4.191406,-99.0859 4.326166,-59.3418 -3.095696,-1.7734 c -6.51829,-3.735 -9.624,-11.0254 -8.64258,-18.2168 0.98143,-7.1917 5.71673,-14.1875 16.777346,-17.3418 l 5.80664,-1.6563 -2.01758,-5.6914 c 0,0 -6.85383,-19.3606 -11.082026,-42.1836 -4.20173,-22.68 -4.80908,-48.4814 3.539056,-60.1758 0.0505,0 0.003,0.015 0.16211,-0.012 0.65998,-0.1094 2.06937,-0.1129 3.7793,-0.049 1.70993,0.064 3.71916,0.1952 6.06054,-0.1934 2.34139,-0.3885 5.36016,-1.5844 7.30664,-4.2363 12.85352,-17.5119 8.84517,-38.8093 3.40235,-58.9824 -5.44282,-20.1732 -12.26349,-40.2781 -9.47266,-56.8457 1.42816,-8.4782 5.91402,-16.7402 10.82031,-25.5489 4.9063,-8.8086 10.23414,-18.1648 12.07813,-29.1933 3.351396,-20.044 1.353856,-48.6016 -1.30274,-72.59378 -1.88001,-16.9787 -3.73342,-28.78228 -4.90429,-35.87498 l 16.263666,1.6524 6.10156,-64.90437 -2.54687,-1.90429 c -1.31077,-0.98005 -1.49003,-1.19517 -1.76953,-1.54102 -0.18868,-0.23345 -0.84335,-1.11836 -1.41407,-1.88476 -0.0234,-0.23837 -0.0421,-0.41021 -0.0762,-0.83399 v -0.002 c -0.0529,-0.65816 -0.0974,-1.46288 -0.36914,-2.57031 -0.27173,-1.10744 -0.73217,-2.93166 -2.92383,-4.42188 -7.280846,-4.95065 -8.613366,-10.85345 -7.107416,-17.51172 1.505956,-6.65826 6.772386,-13.64258 13.455076,-17.38672 l 2.91601,-1.63476 -0.14257,-26.63867 -0.13672,-25.20118 -1.15625,-1.51171 c -5.50439,-7.18932 -10.16328,-11.51976 -12.46094,-16.37305 -2.297646,-4.85328 -3.187936,-10.94852 -0.17969,-23.68359 l 0.94922,-4.01758 -3.531246,-2.13672 c -2.67401,-1.61745 -3.53045,-3.40148 -3.89844,-6.14063 -0.36799,-2.73915 0.21964,-6.3252 1.33204,-9.50195 l 1.74804,-4.99219 -4.85742,-2.08984 c -3.71893,-1.5997 -5.26706,-3.26598 -5.62305,-4.17774 -0.35598,-0.91175 -0.50206,-2.40764 1.95508,-6.11132 l 2.59961,-3.91797 -3.36914,-3.2793 c -8.01352,-7.802 -11.48676,-14.00991 -11.625,-19.73047 -0.13823,-5.72055 3.00472,-12.54136 11.81055,-21.6875 l 1.70703,-1.77344 -0.45117,-8.46875 -0.41407,-7.76171 -1.06836,-1.39258 c -6.09593,-7.94878 -6.25273,-12.55976 -3.46093,-18.36328 2.7918,-5.80354 10.01645,-12.70388 20.109366,-20.33203 l 8.51953,-6.44141 -10.10742,-3.44727 C 26.694468,572.60159 11.610292,555.21358 7.2036324,541.10386 c -4.34861,-13.92383 1.9553,-25.88091 6.4745996,-29.48828 l 41.816406,-20.06445 c 30.802446,-14.77929 53.995882,-36.21519 75.695302,-51.69336 21.69943,-15.47817 40.9189,-24.90808 65.91211,-18.61133 6.67208,1.68095 13.24859,-0.24515 19.07032,-3.45117 5.82172,-3.20602 11.24686,-7.7771 16.48632,-12.63672 10.47894,-9.71924 20.70252,-20.73887 27.24805,-24.21094 7.71672,-4.09333 11.02531,-4.2042 15.96875,-4.65234 4.94344,-0.44814 11.42169,-1.23504 20.83984,-6.22266 17.55195,-9.29508 34.22523,-18.11511 47.48047,-25.10547 2.34573,-1.23705 7.44761,-3.1074 11.6875,-4.47656 4.2399,-1.36916 7.72071,-2.33984 7.72071,-2.33984 l 3.67968,-1.02539 2.55274,-22.39063 2.68359,-23.52148 -11.11914,-2.8086 -2.81836,-0.71093 -2.50781,-12.97852 -2.58399,-13.37891 8.68946,-7.84765 12.10742,-10.9336 0.48242,-1.32226 c 0,0 2.80097,-7.61955 7.07227,-14.99024 2.13564,-3.68534 4.65269,-7.25348 7.01953,-9.5664 0.99446,-0.97181 1.84136,-1.5285 2.63476,-2 0.73772,1.3637 2.91712,3.59613 5.62696,3.76172 2.961,0.18093 5.83906,-1.00555 7.75781,-2.56836 1.91875,-1.56282 3.14452,-3.36798 4.17187,-5.10742 2.05471,-3.4789 3.48128,-7.01267 4.55469,-8.60743 4.97366,-7.3893 6.73497,-16.05669 9.09571,-23.08984 2.1332,-6.35531 4.42682,-10.64439 8.10351,-12.86133 0.60031,0.34867 1.33845,0.81556 2.56055,1.24805 1.3394,0.47399 3.47454,0.85129 5.64062,0.0781 6.31927,-2.2556 10.19838,-7.29754 12.97266,-12.1289 2.77428,-4.83136 4.74543,-9.814 6.80078,-13.40039 5.34887,-9.33331 6.51567,-20.33225 8.66211,-29.43164 1.95857,-8.30295 4.38784,-14.058746 9.17187,-17.060546 0.59698,0.39437 1.26184,0.87346 2.45899,1.35156 1.40192,0.55988 3.78854,1.01243 6.08203,0.084 4.17129,-1.68861 6.00334,-5.42625 6.98828,-8.03907 0.98495,-2.61281 1.59371,-4.79469 2.05274,-5.61914 2.07143,-3.72044 6.21484,-11.16211 6.21484,-11.16211 l 0.5625,-1.00976 1.875,-17.685546 0.91409,-8.61238 c 0.25823,5.12353 0.52287,8.2805 0.96094,10.08789 0.63524,2.62081 1.23656,3.81246 2.79297,16.134766 l 0.15039,1.1914 16.77148,27.76758 19.17188,31.742186 13.49219,-8.72852 7.07031,-4.57422 2.30859,0.0957 1.28906,0.0527 5.39258,7.79883 5.86328,8.48047 -1.71093,24.01562 -2.02149,28.375 1.57227,1.78125 c 9.30638,10.55132 18.63565,20.95953 28.83594,30.8418 9.89828,9.5897 20.65143,18.66488 32.93945,26.86328 l 4.63086,7.51172 4.6875,7.60352 2.3789,12.90234 1.57032,8.52539 -6.91993,1.47852 -17.0371,3.64257 1.125,21.70703 1.04687,20.19532 2.97656,1.47265 c 15.0954,7.46839 30.45545,15.09447 45.98047,22.82813 15.52503,7.73364 31.21553,15.574 46.97461,23.47265 2.41847,1.21217 4.637,1.9949 7.09961,2.0586 2.46261,0.0637 5.212,-0.98987 6.87695,-2.64453 3.32991,-3.30932 3.32921,-6.70629 3.76563,-9.09766 0.15532,-0.85109 0.34273,-1.37029 0.51758,-1.91601 0.39061,0.13018 0.34842,0.0455 1.00586,0.37695 6.12191,3.08599 21.69184,15.97576 36.59375,28.71484 14.9019,12.73908 29.1282,25.32029 38.73046,30.1875 2.241,1.13592 3.94649,1.9012 6.16016,2.16797 1.10683,0.13339 2.46494,0.14515 4.00391,-0.50976 1.53897,-0.65492 2.97382,-2.17894 3.56445,-3.57618 0.65674,-1.55361 0.7215,-2.69735 0.61719,-3.67382 8.19796,5.04924 21.95427,14.6333 35.70317,24.36718 16.74328,11.85389 32.92848,23.49285 41.48428,27.87891 14.74018,7.55629 29.15788,14.96939 43.15428,22.18945 13.57458,7.00237 26.71048,13.80136 39.40428,20.39453 4.8513,6.17771 7.99948,15.57692 7.37698,24.46485 -0.6457,9.21803 -4.71938,17.61917 -14.68558,23.03125 l -22.3652,12.14453 -31.08588,16.88086 8.5078,5.10742 c 0,0 5.6745,3.42645 11.2168,8.38672 5.5421,4.96026 9.94288,11.43211 9.81248,14.98047 -0.1959,5.32707 -2.29378,10.57532 -4.43948,14.43164 -2.1457,3.85642 -4.0976,6.07812 -4.0976,6.07812 l -3.461,3.95703 3.6856,3.75 c 0,0 3.5289,3.59124 7.21088,8.94141 3.682,5.35021 7.1794,12.36791 7.5117,17.9043 0.3343,5.56961 -1.8413,8.45724 -4.3144,10.65234 -2.473,2.19505 -4.89258,3.01563 -4.89258,3.01563 l -4.3399,1.4375 1.0469,9.82617 0.2969,2.78125 -2.0684,2.31836 -5.3691,6.02343 0.2148,2.43946 c 0.6653,7.58398 -0.4893,12.31481 -2.332,16.70117 -1.8426,4.38641 -4.6537,8.47758 -7.1543,13.92187 l -1.2988,2.83008 1.6894,2.61524 c 3.1749,4.91148 4.0869,7.37218 2.7383,11.6875 -1.3486,4.31525 -6.1792,11.16469 -16.9043,21.16797 l -1.8906,1.76367 0.8887,24.69531 0.9043,25.07813 2.5039,1.60156 c 0,0 4.4846,2.88381 9.0586,7.48633 4.5739,4.60253 8.6388,10.70571 8.8554,15.91406 0.2003,4.81255 -3.7831,10.75363 -8.6777,15.36133 -4.8947,4.60769 -9.8984,7.54297 -9.8984,7.54297 l -3.1621,1.83984 0.375,3.63867 c 0,0 3.8332,37.29506 5.75,55.94336 1.7705,17.2259 -2.8655,39.68908 -4.3516,60.90036 -0.743,10.6057 -0.6879,20.9791 1.7812,30.5293 2.4692,9.5502 7.609,18.3372 16.4629,24.5274 3.38,2.363 7.6504,1.9726 10.4493,0.9394 2.7988,-1.0332 5.0042,-2.5328 6.99408,-3.7988 1.9656,-1.2506 3.7068,-2.2422 4.5644,-2.5449 5.7495,5.15 7.6693,10.9857 7.5782,18.791 -0.094,8.0466 -2.7456,17.8653 -6.2871,28.3574 -7.08308,20.9843 -17.97138,44.4806 -14.13478,66.4746 1.9534,11.1981 7.83568,20.4166 13.22458,29.041 5.3889,8.6245 10.2871,16.6627 11.832,25.0118 3.2039,17.3137 1.4305,45.6819 -1.3574,69.2461 -2.7879,23.5641 -6.4297,42.4902 -6.4297,42.4902 l -1.0742,5.5723 5.5742,1.0664 c 9.816,1.8802 14.5073,7.0063 15.5957,11.1386 1.0884,4.1322 -0.1808,8.1148 -7.1582,11.1719 l -3.7383,1.6387 6.17,68.082 15.89058,2.8594 -5.49218,111.8691 4.96288,54.7442 -47.58396,6.7968 -52.91408,7.5606 0.879,-0.057 c -4.0019,-0.054 -7.6273,1.9874 -9.6954,4.4668 -2.0682,2.4795 -2.9983,5.1967 -3.4941,7.6289 l 0.029,-0.1425"
       id="path3"
       sodipodi:nodetypes="ccccccscccsccsssssssscccsscssssscccccscccssccscccscccccscccsccssssssssscccccccccccsscssssscssssscssssccccssccccccccccccscccccccccssssssccssssscssscsccccssscccssscccccccscccssccccssscccsssssscsssssscccscccccccccscc" /></g><g
     inkscape:groupmode="layer"
     id="layer2"
     inkscape:label="green"
     style="display:inline"><g
       id="g243"
       transform="matrix(1.0503751,0,0,0.98983833,-29.59639,-95.36861)"
       style="stroke-width:0.980725"><path
         style="fill:none;stroke:#00ff00;stroke-width:0.741332;stroke-linecap:round;stroke-opacity:0.997898"
         d="m 496.77256,200.0475 c -1.1082,9.33761 -6.43741,20.88395 -9.24551,34.98435 -3.46864,17.41713 -14.65821,21.68863 -15.25049,36.29324 -0.8421,20.76493 -19.22567,37.04778 -29.75056,52.30131"
         id="path16"
         sodipodi:nodetypes="cssc" /><path
         style="fill:none;stroke:#00ff00;stroke-width:0.741332;stroke-linecap:round;stroke-opacity:0.997898"
         d="m 513.66714,202.39776 c 2.97643,14.65452 9.46305,26.88789 8.58003,38.35859 -1.5707,20.40406 12.28931,22.55494 9.76637,32.62764 -4.73153,18.89033 14.24113,32.84774 24.8769,49.53449"
         id="path17"
         sodipodi:nodetypes="cssc" /><path
         style="fill:none;stroke:#00ff00;stroke-width:0.741332;stroke-linecap:round;stroke-opacity:0.997898"
         d="m 648.97169,358.31004 -85.96011,-25.04569 -129.20998,2.85877 -75.60644,21.66991"
         id="path18" /><path
         style="fill:none;stroke:#00ff00;stroke-width:0.741332;stroke-linecap:round;stroke-opacity:0.997898"
         d="m 545.70704,222.1507 34.63745,61.21408"
         id="path19"
         sodipodi:nodetypes="cc" /><path
         style="fill:none;stroke:#00ff00;stroke-width:0.741332;stroke-linecap:round;stroke-opacity:0.997898"
         d="m 372.22486,431.81785 66.88033,-20.41851 119.88591,4.24341 73.13498,10.13318 v 0"
         id="path20" /><path
         style="fill:none;stroke:#00ff00;stroke-width:0.741332;stroke-linecap:round;stroke-opacity:0.997898"
         d="m 630.46355,391.73801 -0.59019,-25.20042"
         id="path21" /><path
         style="fill:none;stroke:#00ff00;stroke-width:0.741332;stroke-linecap:round;stroke-opacity:0.997898"
         d="M 376.25528,394.31594 379.24116,367.123"
         id="path22" /><path
         style="fill:none;stroke:#00ff00;stroke-width:0.741332;stroke-linecap:round;stroke-opacity:0.997898"
         d="m 439.10519,411.39934 2.25349,-63.52365 v 0"
         id="path23" /><path
         style="fill:none;stroke:#00ff00;stroke-width:0.741332;stroke-linecap:round;stroke-opacity:0.997898"
         d="m 558.9911,415.64275 2.93097,-67.26813"
         id="path24" /><path
         style="fill:none;stroke:#00ff00;stroke-width:0.741332;stroke-linecap:round;stroke-opacity:0.997898"
         d="m 482.51799,353.39942 -0.50347,36.63216 55.9467,-1.01042 -0.26651,-34.40382"
         id="path26" /><path
         style="fill:none;stroke:#00ff00;stroke-width:0.741332;stroke-linecap:round;stroke-opacity:0.997898"
         d="m 402.16843,369.73716 -3.5275,32.48428 c 0,0 30.526,-10.40493 30.36883,-13.24654 -0.15718,-2.8416 1.1697,-32.07247 1.1697,-32.07247"
         id="path27" /><path
         style="fill:none;stroke:#00ff00;stroke-width:0.741332;stroke-linecap:round;stroke-opacity:0.997898"
         d="m 579.74884,364.4504 -0.4016,32.86867 36.53784,6.9959 -2.35122,-34.01449"
         id="path28"
         sodipodi:nodetypes="cccc" /><path
         style="fill:none;stroke:#00ff00;stroke-width:0.741332;stroke-linecap:round;stroke-opacity:0.997898"
         d="m 574.64825,225.9091 -0.76543,22.59488"
         id="path29"
         sodipodi:nodetypes="cc" /><path
         style="fill:none;stroke:#00ff00;stroke-width:0.741332;stroke-linecap:round;stroke-opacity:0.997898"
         d="m 559.45252,217.48319 -1.29265,17.70468"
         id="path30" /><path
         style="fill:none;stroke:#00ff00;stroke-width:0.741332;stroke-linecap:round;stroke-opacity:0.997898"
         d="m 295.38953,528.44781 32.55371,-29.15063 c 23.25565,-13.74754 25.1844,-0.45066 56.95074,-37.63328 l 14.31689,-17.44299 14.83162,-12.03241"
         id="path31"
         sodipodi:nodetypes="ccccc" /><path
         style="fill:none;stroke:#00ff00;stroke-width:0.741332;stroke-linecap:round;stroke-opacity:0.997898"
         d="m 564.65503,428.07708 19.95483,29.33359 c 19.64481,-2.23733 28.77935,51.23384 50.00053,44.5185 13.89949,6.52444 16.54661,13.77919 23.31846,24.61736"
         id="path32"
         sodipodi:nodetypes="cccc" /><path
         style="fill:none;stroke:#00ff00;stroke-width:0.741332;stroke-linecap:round;stroke-opacity:0.997898"
         d="M 641.55138,447.18128 688.05221,476.866"
         id="path33" /><path
         style="fill:none;stroke:#00ff00;stroke-width:0.741332;stroke-linecap:round;stroke-opacity:0.997898"
         d="m 89.521234,688.86439 c 0,0 170.523466,-57.45973 422.421646,-58.8943 251.89819,-1.4346 414.13274,60.24199 414.13274,60.24199"
         id="path34"
         sodipodi:nodetypes="csc" /><path
         style="fill:none;stroke:#00ff00;stroke-width:0.741332;stroke-linecap:round;stroke-opacity:0.997898"
         d="m 271.19882,713.84185 c 62.55576,-9.19357 122.43128,-16.6681 215.21033,-15.56207 199.9914,2.38418 345.08617,13.44939 450.33669,48.48583"
         id="path35"
         sodipodi:nodetypes="csc" /><path
         style="fill:none;stroke:#00ff00;stroke-width:0.741332;stroke-linecap:round;stroke-opacity:0.997898"
         d="m 74.309203,801.83978 c 86.773257,-41.18089 233.137017,-78.69749 449.323067,-78.51515 77.13118,0.0652 144.89213,5.33024 202.2443,13.17236"
         id="path36"
         sodipodi:nodetypes="csc" /><path
         style="fill:none;stroke:#00ff00;stroke-width:0.741332;stroke-linecap:round;stroke-opacity:0.997898"
         d="m 106.0339,580.40722 c 57.79433,-21.29665 120.97948,-30.13794 180.86829,-36.93706 59.23473,-7.69013 340.77178,-8.58741 403.60958,-3.13026 47.57657,3.91305 126.61117,7.71839 221.71922,41.66173"
         id="path41"
         sodipodi:nodetypes="cccc" /><path
         style="fill:none;stroke:#00ff00;stroke-width:0.741332;stroke-linecap:round;stroke-opacity:0.997898"
         d="m 285.52433,782.43883 c 57.55602,-8.61908 128.29746,-13.60637 217.22097,-12.54628 199.99137,2.38416 359.7717,43.95848 423.53375,78.23809"
         id="path42"
         sodipodi:nodetypes="csc" /><path
         style="fill:none;stroke:#00ff00;stroke-width:0.741332;stroke-linecap:round;stroke-opacity:0.997898"
         d="m 83.452024,864.96117 c 86.773226,-41.18088 223.994196,-72.3112 440.180246,-72.12887 95.0286,0.0801 171.40076,8.47372 231.06139,19.90661"
         id="path43"
         sodipodi:nodetypes="csc" /><path
         style="fill:none;stroke:#00ff00;stroke-width:0.741332;stroke-linecap:round;stroke-opacity:0.997898"
         d="m 295.58866,895.70153 c 43.55706,-6.36575 81.95018,-10.88321 118.70197,-13.25131 m 146.5809,1.10152 c 168.73136,8.10843 287.23297,23.33624 353.98617,50.71627"
         id="path44"
         sodipodi:nodetypes="cccc" /><path
         style="fill:none;stroke:#00ff00;stroke-width:0.741332;stroke-linecap:round;stroke-opacity:0.997898"
         d="M 90.028822,977.46237 C 151.43085,944.13333 258.74291,910.88541 414.85454,904.29201 m 149.4105,1.68925 c 52.59231,2.41503 118.19147,5.97137 169.84339,10.42491"
         id="path45"
         sodipodi:nodetypes="cccc" /><path
         style="fill:none;stroke:#00ff00;stroke-width:0.741332;stroke-linecap:round;stroke-opacity:0.997898"
         d="m 108.65533,633.15785 c 0.49949,13.15016 10.43646,30.17029 -1.88546,38.06285"
         id="path46"
         sodipodi:nodetypes="cc" /><path
         style="fill:none;stroke:#00ff00;stroke-width:0.741332;stroke-linecap:round;stroke-opacity:0.997898"
         d="m 157.19643,662.52759 c 9.08949,-12.65583 2.12028,-34.77802 2.39616,-52.62934"
         id="path47"
         sodipodi:nodetypes="cc" /><path
         style="fill:none;stroke:#00ff00;stroke-width:0.741332;stroke-linecap:round;stroke-opacity:0.997898"
         d="m 222.72563,647.62132 c 23.69786,10.20137 3.32763,-59.27853 -0.3095,-61.71631"
         id="path48"
         sodipodi:nodetypes="cc" /><path
         style="fill:none;stroke:#00ff00;stroke-width:0.741332;stroke-linecap:round;stroke-opacity:0.997898"
         d="m 312.33356,630.2518 c 20.42663,-7.22492 -5.22,-42.80621 -0.7522,-59.96343"
         id="path49"
         sodipodi:nodetypes="cc" /><path
         style="fill:none;stroke:#00ff00;stroke-width:0.741332;stroke-linecap:round;stroke-opacity:0.997898"
         d="m 419.55687,614.61353 c 1.21233,-22.12694 -2.57449,-37.62433 -0.53419,-54.6196"
         id="path50"
         sodipodi:nodetypes="cc" /><path
         style="fill:none;stroke:#00ff00;stroke-width:0.741332;stroke-linecap:round;stroke-opacity:0.997898"
         d="m 535.53938,616.61722 c 5.86757,-18.13009 2.19338,-39.02529 2.10431,-58.88156"
         id="path51"
         sodipodi:nodetypes="cc" /><path
         style="fill:none;stroke:#00ff00;stroke-width:0.741332;stroke-linecap:round;stroke-opacity:0.997898"
         d="m 625.97211,619.01239 c -9.38449,-22.48815 -2.60668,-36.89449 1.3149,-52.72906"
         id="path52"
         sodipodi:nodetypes="cc" /><path
         style="fill:none;stroke:#00ff00;stroke-width:0.741332;stroke-linecap:round;stroke-opacity:0.997898"
         d="m 913.00649,674.76439 c -0.59643,-13.84767 -12.19173,-35.05894 -0.15701,-40.45022"
         id="path53"
         sodipodi:nodetypes="cc" /><path
         style="fill:none;stroke:#00ff00;stroke-width:0.741332;stroke-linecap:round;stroke-opacity:0.997898"
         d="m 865.4878,658.67458 c -0.27517,-17.04019 -12.54862,-40.40715 1.9383,-49.66322"
         id="path54"
         sodipodi:nodetypes="cc" /><path
         style="fill:none;stroke:#00ff00;stroke-width:0.741332;stroke-linecap:round;stroke-opacity:0.997898"
         d="M 797.52624,636.56579 C 795.3302,616.1977 785.19939,589.44467 796.77886,580.16142"
         id="path55"
         sodipodi:nodetypes="cc" /><path
         style="fill:none;stroke:#00ff00;stroke-width:0.741332;stroke-linecap:round;stroke-opacity:0.997898"
         d="m 706.62779,626.18444 c -0.27667,-20.31894 -18.85377,-48.4637 0.3482,-60.45297"
         id="path56"
         sodipodi:nodetypes="cc" /><ellipse
         style="fill:none;stroke:#00ff00;stroke-width:0.741332;stroke-linecap:round;stroke-opacity:0.997898"
         id="path57"
         cx="509.48077"
         cy="118.26752"
         rx="5.8715749"
         ry="8.134449" /><path
         style="fill:none;stroke:#00ff00;stroke-width:0.741332;stroke-linecap:round;stroke-opacity:0.997898"
         d="m 89.947395,695.08794 c 0,0 170.097305,-57.65256 421.995485,-59.08714 251.89819,-1.43459 412.86373,59.51183 412.86373,59.51183"
         id="path58"
         sodipodi:nodetypes="csc" /><path
         style="fill:none;stroke:#00ff00;stroke-width:0.741332;stroke-linecap:round;stroke-opacity:0.997898"
         d="m 59.683518,673.45823 c 1.047998,-0.2807 -31.192046,-26.11958 -25.635479,-41.99189 8.202793,-23.43122 21.411882,-26.03754 56.669305,-40.29378 55.809966,-22.56659 137.270796,-36.96754 196.184846,-43.65602 59.23473,-7.69012 340.77178,-8.5874 403.60958,-3.13025 44.70705,3.67704 125.77493,7.54159 223.21859,42.3259 12.67077,4.52307 47.98568,19.61106 59.70983,28.38774 11.25058,23.30196 8.37645,41.11372 -6.27158,51.07334"
         id="path59"
         sodipodi:nodetypes="cssccscc" /><path
         style="fill:none;stroke:#00ff00;stroke-width:0.741332;stroke-linecap:round;stroke-opacity:0.997898"
         d="m 96.651974,991.03446 c 23.644506,-12.7622 42.929106,-19.06377 63.579376,-25.28594"
         id="path60"
         sodipodi:nodetypes="cc" /><path
         style="fill:none;stroke:#00ff00;stroke-width:0.741332;stroke-linecap:round;stroke-opacity:0.997898"
         d="M 96.521588,887.17408 C 120.16611,874.41187 179.64335,853.72577 200.29365,847.50358"
         id="path61"
         sodipodi:nodetypes="cc" /><path
         style="fill:none;stroke:#00ff00;stroke-width:0.741332;stroke-linecap:round;stroke-opacity:0.997898"
         d="M 80.089458,819.91489 C 103.73397,807.15267 158.279,787.49669 178.92928,781.27449"
         id="path62"
         sodipodi:nodetypes="cc" /><path
         style="fill:none;stroke:#00ff00;stroke-width:0.741332;stroke-linecap:round;stroke-opacity:0.997898"
         d="m 83.767676,842.97726 22.948094,-10.377"
         id="path63" /><path
         style="fill:none;stroke:#00ff00;stroke-width:0.741332;stroke-linecap:round;stroke-opacity:0.997898"
         d="m 72.867356,739.8595 22.948096,-10.377"
         id="path64" /><path
         style="fill:none;stroke:#00ff00;stroke-width:0.741332;stroke-linecap:round;stroke-opacity:0.997898"
         d="M 98.135886,935.15168 127.13398,924.7747"
         id="path65" /><path
         style="fill:none;stroke:#00ff00;stroke-width:0.741332;stroke-linecap:round;stroke-opacity:0.997898"
         d="m 913.72992,990.719 -20.98487,-8.60784"
         id="path66" /><path
         style="fill:none;stroke:#00ff00;stroke-width:0.741332;stroke-linecap:round;stroke-opacity:0.997898"
         d="M 912.83476,888.08437 872.2611,873.94154"
         id="path67" /><path
         style="fill:none;stroke:#00ff00;stroke-width:0.741332;stroke-linecap:round;stroke-opacity:0.997898"
         d="M 936.32027,815.14267 918.99865,807.4445"
         id="path68"
         sodipodi:nodetypes="cc" /><path
         style="fill:none;stroke:#00ff00;stroke-width:0.741332;stroke-linecap:round;stroke-opacity:0.997898"
         d="M 943.44611,797.40435 895.46215,779.22832"
         id="path69"
         sodipodi:nodetypes="cc" /><g
         id="g113"
         transform="matrix(1.8214585,0,0,1.8390572,-23.155728,-333.93905)"
         style="display:inline;stroke-width:0.535845"><path
           style="fill:none;stroke:#00ff00;stroke-width:0.405047;stroke-linecap:round;stroke-opacity:0.997898"
           d="m 268.62861,686.45103 c 3.66281,-7.25119 -7.19599,-3.43414 0.0831,-36.32042 12.98603,-0.76486 16.69561,0.39655 26.45753,-0.0812"
           id="path100"
           sodipodi:nodetypes="ccc" /><path
           style="fill:none;stroke:#00ff00;stroke-width:0.405047;stroke-linecap:round;stroke-opacity:0.997898"
           d="m 302.36985,685.1266 c -8.36764,-9.98032 -3.569,-27.19822 0.29602,-43.9029 -15.42813,1.70109 -27.29286,-0.71761 -40.42209,-0.0992 0.11168,3.53372 0.65728,6.85047 0.22211,9.9123 -0.71515,5.03185 -2.42907,10.17673 -2.26258,13.43836 0.36236,7.09851 2.27368,9.90216 2.03642,16.10869 -0.0699,1.82827 -0.1274,3.68688 -0.14988,5.6165"
           id="path101"
           sodipodi:nodetypes="cccsssc" /><path
           style="fill:none;stroke:#00ff00;stroke-width:0.405047;stroke-linecap:round;stroke-opacity:0.997898"
           d="m 316.04219,685.95068 c 0,-0.47837 0.041,-6.89349 0.0966,-15.36256 0.0471,-7.17183 4.75121,-19.37372 4.80304,-27.13348 0.0766,-11.46254 -4.50584,-17.43682 -4.50584,-17.43682 -19.9849,0.12825 -73.16173,-1.24717 -69.02384,0.0383 0.97885,0.30409 -1.7505,19.93119 -0.0887,40.3579 0.56436,6.93724 0.0385,14.13886 0.30808,20.91669"
           id="path102"
           sodipodi:nodetypes="csscssc" /><path
           style="fill:none;stroke:#00ff00;stroke-width:0.405047;stroke-linecap:round;stroke-opacity:0.997898"
           d="m 255.53435,628.55137 4.23501,10.76299 v 0"
           id="path103" /><path
           style="fill:none;stroke:#00ff00;stroke-width:0.405047;stroke-linecap:round;stroke-opacity:0.997898"
           d="m 307.22936,628.29795 c -0.7202,0.99827 -5.11607,10.26025 -5.11607,10.26025"
           id="path104" /><path
           style="fill:none;stroke:#00ff00;stroke-width:0.405047;stroke-linecap:round;stroke-opacity:0.997898"
           d="m 267.2632,695.6204 -23.11407,0.75683 0.25947,-9.02333 76.51814,-0.5867 0.11168,6.58746"
           id="path105"
           sodipodi:nodetypes="ccccc" /><path
           style="fill:none;stroke:#00ff00;stroke-width:0.405047;stroke-linecap:round;stroke-opacity:0.997898"
           d="m 249.52991,646.69996 11.5409,-0.1144"
           id="path106" /><path
           style="fill:none;stroke:#00ff00;stroke-width:0.405047;stroke-linecap:round;stroke-opacity:0.997898"
           d="m 305.85285,647.39003 6.32956,-0.22105"
           id="path107"
           sodipodi:nodetypes="cc" /><path
           style="fill:none;stroke:#00ff00;stroke-width:0.405047;stroke-linecap:round;stroke-opacity:0.997898"
           d="m 249.89919,675.94317 8.91772,0.20534"
           id="path108"
           sodipodi:nodetypes="cc" /><path
           style="fill:none;stroke:#00ff00;stroke-width:0.405047;stroke-linecap:round;stroke-opacity:0.997898"
           d="m 250.42141,665.70004 8.0059,-0.1676"
           id="path109"
           sodipodi:nodetypes="cc" /><path
           style="fill:none;stroke:#00ff00;stroke-width:0.405047;stroke-linecap:round;stroke-opacity:0.997898"
           d="m 304.58398,657.83018 8.91772,0.20534"
           id="path110"
           sodipodi:nodetypes="cc" /><path
           style="fill:none;stroke:#00ff00;stroke-width:0.405047;stroke-linecap:round;stroke-opacity:0.997898"
           d="m 304.43237,675.67805 8.91772,0.20534"
           id="path111"
           sodipodi:nodetypes="cc" /><path
           style="fill:none;stroke:#00ff00;stroke-width:0.405047;stroke-linecap:round;stroke-opacity:0.997898"
           d="m 288.60885,629.45193 -0.20534,8.91772"
           id="path112"
           sodipodi:nodetypes="cc" /><path
           style="fill:none;stroke:#00ff00;stroke-width:0.405047;stroke-linecap:round;stroke-opacity:0.997898"
           d="m 272.87675,629.50996 -0.20534,8.91772"
           id="path113"
           sodipodi:nodetypes="cc" /></g><g
         id="g141"
         transform="matrix(1.8214585,0,0,1.8390572,-30.352258,124.81156)"
         style="display:inline;stroke-width:0.535845"><path
           style="fill:none;stroke:#00ff00;stroke-width:0.405047;stroke-linecap:round;stroke-opacity:0.997898"
           d="m 268.62861,686.45103 c -0.0202,-10.97369 -0.15932,-22.28519 0.0831,-36.32042 12.98603,-0.76486 16.69561,0.39655 26.45753,-0.0812"
           id="path128"
           sodipodi:nodetypes="ccc" /><path
           style="fill:none;stroke:#00ff00;stroke-width:0.405047;stroke-linecap:round;stroke-opacity:0.997898"
           d="m 302.36985,685.1266 c -2.76013,-14.06342 -2.17359,-28.79514 0.29602,-43.9029 -15.42813,1.70109 -27.29286,-0.71761 -40.42209,-0.0992 -2.28024,11.83174 -1.56716,18.99508 -0.76959,26.09814 0.62965,5.60766 1.31197,11.17776 0.61567,18.97771"
           id="path129"
           sodipodi:nodetypes="cccsc" /><path
           style="fill:none;stroke:#00ff00;stroke-width:0.405047;stroke-linecap:round;stroke-opacity:0.997898"
           d="m 316.04219,685.95068 c -5.6099,3.97616 -1.37687,-58.19146 0.39382,-59.93286 -19.9849,0.12825 -73.16173,-1.24717 -69.02384,0.0383 0.81639,0.25362 -6.90252,15.59372 0.0162,30.13939 4.21092,8.8529 -0.20135,20.96443 0.20317,31.1352"
           id="path130"
           sodipodi:nodetypes="ccssc" /><path
           style="fill:none;stroke:#00ff00;stroke-width:0.405047;stroke-linecap:round;stroke-opacity:0.997898"
           d="m 255.53435,628.55137 4.23501,10.76299 v 0"
           id="path131" /><path
           style="fill:none;stroke:#00ff00;stroke-width:0.405047;stroke-linecap:round;stroke-opacity:0.997898"
           d="m 307.22936,628.29795 c -0.7202,0.99827 -5.11607,10.26025 -5.11607,10.26025"
           id="path132" /><path
           style="fill:none;stroke:#00ff00;stroke-width:0.405047;stroke-linecap:round;stroke-opacity:0.997898"
           d="m 320.33641,686.51627 0.13987,9.36701 -76.32715,0.49395 0.25947,-9.02333 53.12297,-0.6823"
           id="path133"
           sodipodi:nodetypes="ccccc" /><path
           style="fill:none;stroke:#00ff00;stroke-width:0.405047;stroke-linecap:round;stroke-opacity:0.997898"
           d="m 249.52991,646.69996 11.5409,-0.1144"
           id="path134" /><path
           style="fill:none;stroke:#00ff00;stroke-width:0.405047;stroke-linecap:round;stroke-opacity:0.997898"
           d="m 305.85285,647.39003 6.32956,-0.22105"
           id="path135"
           sodipodi:nodetypes="cc" /><path
           style="fill:none;stroke:#00ff00;stroke-width:0.405047;stroke-linecap:round;stroke-opacity:0.997898"
           d="m 249.89919,675.94317 8.91772,0.20534"
           id="path136"
           sodipodi:nodetypes="cc" /><path
           style="fill:none;stroke:#00ff00;stroke-width:0.405047;stroke-linecap:round;stroke-opacity:0.997898"
           d="m 250.42141,665.70004 8.0059,-0.1676"
           id="path137"
           sodipodi:nodetypes="cc" /><path
           style="fill:none;stroke:#00ff00;stroke-width:0.405047;stroke-linecap:round;stroke-opacity:0.997898"
           d="m 304.58398,657.83018 c -6.11873,3.06051 4.3399,0.6652 8.91772,0.20534"
           id="path138"
           sodipodi:nodetypes="cc" /><path
           style="fill:none;stroke:#00ff00;stroke-width:0.405047;stroke-linecap:round;stroke-opacity:0.997898"
           d="m 304.43237,675.67805 8.91772,0.20534"
           id="path139"
           sodipodi:nodetypes="cc" /><path
           style="fill:none;stroke:#00ff00;stroke-width:0.405047;stroke-linecap:round;stroke-opacity:0.997898"
           d="m 288.60885,629.45193 -0.20534,8.91772"
           id="path140"
           sodipodi:nodetypes="cc" /><path
           style="fill:none;stroke:#00ff00;stroke-width:0.405047;stroke-linecap:round;stroke-opacity:0.997898"
           d="m 272.87675,629.50996 -0.20534,8.91772"
           id="path141"
           sodipodi:nodetypes="cc" /></g><g
         id="g196"
         transform="matrix(1.8214585,0,0,1.8390572,16.425183,-111.51453)"
         style="display:inline;stroke-width:0.535845"><path
           style="fill:none;stroke:#00ff00;stroke-width:0.405047;stroke-linecap:round;stroke-opacity:0.997898"
           d="m 268.50843,686.45103 c 3.13122,-8.00172 5.47698,-16.96983 0.0831,-36.32042 12.98603,-0.76486 16.69561,0.39655 26.45753,-0.0812"
           id="path183"
           sodipodi:nodetypes="ccc" /><path
           style="fill:none;stroke:#00ff00;stroke-width:0.405047;stroke-linecap:round;stroke-opacity:0.997898"
           d="m 261.24983,685.1266 c 0.93928,-14.44944 1.37256,-28.989 -0.29602,-43.9029 15.42813,1.70109 27.29286,-0.71761 40.42209,-0.0992 2.31087,22.33914 1.74282,32.7682 0.15392,45.07585"
           id="path184"
           sodipodi:nodetypes="cccc" /><path
           style="fill:none;stroke:#00ff00;stroke-width:0.405047;stroke-linecap:round;stroke-opacity:0.997898"
           d="m 247.57749,685.95068 c 0,-0.72276 2.4856,-14.87405 0.3956,-29.14176 -2.07278,-14.15015 -0.78942,-30.7911 -0.78942,-30.7911 19.9849,0.12825 72.89704,-1.96037 69.02384,0.0383 -1.02698,0.52995 5.4152,32.33344 -0.21937,57.49506"
           id="path185"
           sodipodi:nodetypes="cscsc" /><path
           style="fill:none;stroke:#00ff00;stroke-width:0.405047;stroke-linecap:round;stroke-opacity:0.997898"
           d="m 308.08533,628.55137 -4.23501,10.76299 v 0"
           id="path186" /><path
           style="fill:none;stroke:#00ff00;stroke-width:0.405047;stroke-linecap:round;stroke-opacity:0.997898"
           d="m 256.39032,628.29795 c 0.7202,0.99827 5.11607,10.26025 5.11607,10.26025"
           id="path187" /><path
           style="fill:none;stroke:#00ff00;stroke-width:0.405047;stroke-linecap:round;stroke-opacity:0.997898"
           d="m 322.0822,695.64519 -77.93307,0.73204 0.25947,-9.02333 76.24307,-1.02386"
           id="path188"
           sodipodi:nodetypes="cccc" /><path
           style="fill:none;stroke:#00ff00;stroke-width:0.405047;stroke-linecap:round;stroke-opacity:0.997898"
           d="m 314.08977,676.93618 -11.5409,-0.1144"
           id="path189" /><path
           style="fill:none;stroke:#00ff00;stroke-width:0.405047;stroke-linecap:round;stroke-opacity:0.997898"
           d="m 257.76683,637.92424 -6.32956,-0.22105"
           id="path190"
           sodipodi:nodetypes="cc" /><path
           style="fill:none;stroke:#00ff00;stroke-width:0.405047;stroke-linecap:round;stroke-opacity:0.997898"
           d="m 313.72049,645.70695 -8.91772,0.20534"
           id="path191"
           sodipodi:nodetypes="cc" /><path
           style="fill:none;stroke:#00ff00;stroke-width:0.405047;stroke-linecap:round;stroke-opacity:0.997898"
           d="m 313.19827,665.70004 -8.0059,-0.1676"
           id="path192"
           sodipodi:nodetypes="cc" /><path
           style="fill:none;stroke:#00ff00;stroke-width:0.405047;stroke-linecap:round;stroke-opacity:0.997898"
           d="m 259.0357,665.38924 -8.91772,0.20534"
           id="path193"
           sodipodi:nodetypes="cc" /><path
           style="fill:none;stroke:#00ff00;stroke-width:0.405047;stroke-linecap:round;stroke-opacity:0.997898"
           d="m 259.18731,675.67805 -8.91772,0.20534"
           id="path194"
           sodipodi:nodetypes="cc" /><path
           style="fill:none;stroke:#00ff00;stroke-width:0.405047;stroke-linecap:round;stroke-opacity:0.997898"
           d="m 275.01083,629.45193 0.20534,8.91772"
           id="path195"
           sodipodi:nodetypes="cc" /><path
           style="fill:none;stroke:#00ff00;stroke-width:0.405047;stroke-linecap:round;stroke-opacity:0.997898"
           d="m 290.74293,629.50996 0.20534,8.91772"
           id="path196"
           sodipodi:nodetypes="cc" /><path
           style="fill:none;stroke:#00ff00;stroke-width:0.405047;stroke-linecap:round;stroke-opacity:0.997898"
           d="m 256.71588,656.24635 -5.13819,0.20534"
           id="path197"
           sodipodi:nodetypes="cc" /></g><path
         style="fill:none;stroke:#00ff00;stroke-width:0.741332;stroke-linecap:round;stroke-opacity:0.997898"
         d="m 268.43834,1425.5102 c 64.06047,-5.0876 165.80901,-8.9773 264.78184,-8.3517 222.59263,1.4073 304.0523,15.6196 422.60377,26.8789"
         id="path198"
         sodipodi:nodetypes="csc" /><path
         style="fill:none;stroke:#00ff00;stroke-width:0.741332;stroke-linecap:round;stroke-opacity:0.997898"
         d="m 54.635583,1490.2966 c 125.588757,-15.9747 246.871967,-26.9486 487.489447,-32.1974 105.7432,-2.3067 219.45002,4.033 261.87244,6.7112"
         id="path199"
         sodipodi:nodetypes="csc" /><path
         style="fill:none;stroke:#00ff00;stroke-width:0.741332;stroke-linecap:round;stroke-opacity:0.997898"
         d="m 83.670013,1560.045 25.069887,-2.6388"
         id="path200"
         sodipodi:nodetypes="cc" /><g
         id="g238"
         transform="matrix(1.0350602,0,0,1.0450607,-0.98884324,-160.79792)"
         style="stroke-width:0.942957"><path
           style="fill:none;stroke:#00ff00;stroke-width:0.712787;stroke-linecap:round;stroke-opacity:0.997898"
           d="m 392.50731,1809.8374 1.09228,-19.0582 161.49127,1.3448 1.28165,16.2041 v 0 -0.4852"
           id="path201"
           sodipodi:nodetypes="cccccc" /><path
           style="fill:none;stroke:#00ff00;stroke-width:0.712787;stroke-linecap:round;stroke-opacity:0.997898"
           d="m 416.56986,1786.1951 1.67181,-35.8362 c -1.34969,-9.3946 -2.85469,-18.5814 1.6718,-35.8362 4.5164,-8.9749 3.73284,-21.9263 1.67181,-35.8361 -5.6436,-13.8947 0.97869,-23.9335 1.67181,-35.8362 1.43885,-5.7402 3.43563,-10.8094 5.93082,-15.2401 2.49518,-4.4308 5.48877,-8.223 8.92125,-11.4091 3.43248,-3.1862 7.30385,-5.7663 11.55459,-7.7727 4.25074,-2.0065 8.88085,-3.4394 13.83081,-4.331 m 29.1993,2.95 c 7.00171,2.2418 12.59243,5.1915 17.08879,8.7215 4.49636,3.5299 7.89837,7.6401 10.52267,12.2029 2.6243,4.5628 4.47089,9.5781 5.85641,14.9183 1.38552,5.3402 2.30998,11.0052 3.09001,16.8674 -0.55877,10.6018 -2.34762,21.118 3.05432,32.1349 l -2.26824,32.1349 -2.27215,31.9831 3.05824,32.2868"
           id="path202"
           sodipodi:nodetypes="cccccsssccsssccccc" /><path
           style="fill:none;stroke:#00ff00;stroke-width:0.712787;stroke-linecap:round;stroke-opacity:0.997898"
           d="m 426.95125,1566.9134 34.97494,-0.7244 2.40254,45.4411 18.76201,-0.6105 4.60151,-27.9511 -3.15384,-19.2384 -22.76344,-0.074"
           id="path203"
           sodipodi:nodetypes="ccccccc" /><path
           style="fill:none;stroke:#00ff00;stroke-width:0.712787;stroke-linecap:round;stroke-opacity:0.997898"
           d="m 413.3306,1584.314 12.25131,1.0195 14.63187,21.7075"
           id="path204" /><path
           style="fill:none;stroke:#00ff00;stroke-width:0.712787;stroke-linecap:round;stroke-opacity:0.997898"
           d="m 536.9177,1586.1238 c -1.74169,-0.169 -15.10519,-1.2042 -15.10519,-1.2042 l -14.9954,22.4364"
           id="path205" /><path
           style="fill:none;stroke:#00ff00;stroke-width:0.712787;stroke-linecap:round;stroke-opacity:0.997898"
           d="m 536.79927,1610.3142 -13.62886,11.4921"
           id="path206" /><path
           style="fill:none;stroke:#00ff00;stroke-width:0.712787;stroke-linecap:round;stroke-opacity:0.997898"
           d="m 412.20185,1613.0348 14.05502,10.3762"
           id="path207" /><path
           style="fill:none;stroke:#00ff00;stroke-width:0.712787;stroke-linecap:round;stroke-opacity:0.997898"
           d="m 388.24644,1631.1397 29.99357,9.0714"
           id="path208" /><path
           style="fill:none;stroke:#00ff00;stroke-width:0.712787;stroke-linecap:round;stroke-opacity:0.997898"
           d="m 557.66107,1628.0283 -26.10702,8.7203"
           id="path209" /><path
           style="fill:none;stroke:#00ff00;stroke-width:0.712787;stroke-linecap:round;stroke-opacity:0.997898"
           d="m 521.33493,1585.1496 -0.95633,-19.2025 -27.10586,0.6194"
           id="path210" /><path
           style="fill:none;stroke:#00ff00;stroke-width:0.712787;stroke-linecap:round;stroke-opacity:0.997898"
           d="m 537.52429,1585.5121 0.4642,20.8421"
           id="path211" /><path
           style="fill:none;stroke:#00ff00;stroke-width:0.712787;stroke-linecap:round;stroke-opacity:0.997898"
           d="m 558.29376,1627.9987 5.18225,0.204 -1.68249,27.2616"
           id="path212" /><path
           style="fill:none;stroke:#00ff00;stroke-width:0.712787;stroke-linecap:round;stroke-opacity:0.997898"
           d="m 539.6294,1702.8362 100.993,-0.1768"
           id="path213"
           sodipodi:nodetypes="cc" /><path
           style="fill:none;stroke:#00ff00;stroke-width:0.712787;stroke-linecap:round;stroke-opacity:0.997898"
           d="m 534.4462,1727.4166 98.97056,0.832"
           id="path214" /><path
           style="fill:none;stroke:#00ff00;stroke-width:0.712787;stroke-linecap:round;stroke-opacity:0.997898"
           d="m 417.34745,1702.9335 -120.69904,2.5848"
           id="path215" /><path
           style="fill:none;stroke:#00ff00;stroke-width:0.712787;stroke-linecap:round;stroke-opacity:0.997898"
           d="M 296.97826,1730.6211 H 414.43948"
           id="path216" /><path
           style="fill:none;stroke:#00ff00;stroke-width:0.712787;stroke-linecap:round;stroke-opacity:0.997898"
           d="m 393.71294,1667.3438 11.40258,0.9253"
           id="path217" /><path
           style="fill:none;stroke:#00ff00;stroke-width:0.712787;stroke-linecap:round;stroke-opacity:0.997898"
           d="m 545.93341,1681.1437 10.39167,-0.4315"
           id="path218" /><path
           style="fill:none;stroke:#00ff00;stroke-width:0.712787;stroke-linecap:round;stroke-opacity:0.997898"
           d="m 545.72717,1762.3264 11.793,0.2667"
           id="path219" /><path
           style="fill:none;stroke:#00ff00;stroke-width:0.712787;stroke-linecap:round;stroke-opacity:0.997898"
           d="m 383.38737,1758.7871 10.29307,0.1021"
           id="path220" /><path
           style="fill:none;stroke:#00ff00;stroke-width:0.712788;stroke-linecap:round;stroke-opacity:0.997898"
           d="m 427.24841,1782.7468 1.50605,-34.3234 c -2.44687,-10.5707 -0.44582,-22.4542 1.50605,-34.3233 3.66098,-6.8098 1.94346,-21.505 1.50606,-34.3234 -6.19388,-24.1372 0.78398,-23.2995 1.50605,-34.3233 0.37061,-4.4846 1.75975,-8.6453 3.92185,-12.3828 2.16211,-3.7376 5.09718,-7.052 8.55966,-9.8441 3.46248,-2.792 7.45238,-5.0618 11.72413,-6.7101 4.27176,-1.6483 8.82537,-2.6751 13.41529,-2.9812 8.03501,-0.3698 15.17376,0.6708 21.37443,2.9786 6.20067,2.3078 11.46327,5.8829 15.74599,10.5823 4.28272,4.6994 7.58556,10.5231 9.86671,17.328 2.28116,6.8049 3.54063,14.5911 3.73662,23.2156 0.0169,0.7451 -3.19721,8.9656 -0.13669,19.6995 4.28929,15.0434 1.58272,27.4525 -0.36675,40.4331 -2.16114,14.3899 -0.27501,29.0418 -0.37945,39.8742 -0.10445,10.8325 -0.17479,18.0231 -0.17479,18.0231 l -23.3278,-0.7307 -23.32781,-0.7307 -23.3278,-0.7307 z"
           id="path239"
           sodipodi:nodetypes="cccccssscsssssssccccc" /><path
           style="fill:none;stroke:#00ff00;stroke-width:0.712788;stroke-linecap:round;stroke-opacity:0.997898"
           d="m 434.66344,1739.8307 80.06747,1.9565 -1.03,9.8225 c 0,0 -51.83599,-3.9783 -65.62576,-2.8099 -13.78977,1.1685 -13.78977,1.1685 -13.41171,-8.9691 z"
           id="path240" /><path
           style="fill:none;stroke:#00ff00;stroke-width:0.712788;stroke-linecap:round;stroke-opacity:0.997898"
           d="m 437.13814,1688.1263 c 0,0 48.36556,-0.1401 58.97546,0.2128 10.6099,0.3528 14.47993,-0.1132 14.47993,-0.1132 0,0 2.41402,-10.6044 0,-10.582 -27.39957,0.254 -55.71834,-0.561 -74.08122,0.8684"
           id="path241"
           sodipodi:nodetypes="cscsc" /><path
           style="fill:none;stroke:#00ff00;stroke-width:0.712788;stroke-linecap:round;stroke-opacity:0.997898"
           d="m 439.13867,1660.9339 c 0,0 57.13532,-0.8646 62.90724,-0.6246 5.77193,0.2401 6.72495,0.5281 6.72495,0.5281 l 1.43188,-11.1571 c 0,0 -50.71539,-0.3987 -54.48468,1.5339 -3.7693,1.9327 -3.7693,1.9327 -3.7693,1.9327"
           id="path242" /></g><path
         style="fill:none;stroke:#00ff00;stroke-width:0.741333;stroke-linecap:round;stroke-opacity:0.997898"
         d="m 710.1704,1108.2854 33.94729,2.5407"
         id="path221"
         sodipodi:nodetypes="cc" /><path
         style="fill:none;stroke:#00ff00;stroke-width:0.741333;stroke-linecap:round;stroke-opacity:0.997898"
         d="m 779.96408,1167.8478 29.48274,3.6598"
         id="path222" /><path
         style="fill:none;stroke:#00ff00;stroke-width:0.741333;stroke-linecap:round;stroke-opacity:0.997898"
         d="m 809.68884,1022.604 28.98105,5.2314"
         id="path223" /><path
         style="fill:none;stroke:#00ff00;stroke-width:0.741333;stroke-linecap:round;stroke-opacity:0.997898"
         d="m 820.74409,1329.6852 30.07417,5.0063"
         id="path224" /><path
         style="fill:none;stroke:#00ff00;stroke-width:0.741333;stroke-linecap:round;stroke-opacity:0.997898"
         d="m 675.63383,1378.6199 29.8255,1.6882"
         id="path225" /><path
         style="fill:none;stroke:#00ff00;stroke-width:0.741333;stroke-linecap:round;stroke-opacity:0.997898"
         d="m 710.7405,1248.5799 34.09191,2.1978"
         id="path226"
         sodipodi:nodetypes="cc" /><path
         style="fill:none;stroke:#00ff00;stroke-width:0.741333;stroke-linecap:round;stroke-opacity:0.997898"
         d="m 844.48561,1663.1632 40.6001,1.4421"
         id="path227"
         sodipodi:nodetypes="cc" /><path
         style="fill:none;stroke:#00ff00;stroke-width:0.741333;stroke-linecap:round;stroke-opacity:0.997898"
         d="m 863.38528,1104.6347 21.62935,5.9641"
         id="path228"
         sodipodi:nodetypes="cc" /><path
         style="fill:none;stroke:#00ff00;stroke-width:0.741333;stroke-linecap:round;stroke-opacity:0.997898"
         d="m 883.00047,1262.3268 25.54034,6.4962"
         id="path229"
         sodipodi:nodetypes="cc" /><path
         style="fill:none;stroke:#00ff00;stroke-width:0.741333;stroke-linecap:round;stroke-opacity:0.997898"
         d="m 103.12444,1081.3759 20.51433,-8.3578"
         id="path230" /><path
         style="fill:none;stroke:#00ff00;stroke-width:0.741333;stroke-linecap:round;stroke-opacity:0.997898"
         d="m 100.47066,1215.3666 22.8501,-5.5417"
         id="path231" /><path
         style="fill:none;stroke:#00ff00;stroke-width:0.741333;stroke-linecap:round;stroke-opacity:0.997898"
         d="m 154.02533,1139.3231 21.39447,-5.2091"
         id="path232" /><path
         style="fill:none;stroke:#00ff00;stroke-width:0.741333;stroke-linecap:round;stroke-opacity:0.997898"
         d="m 81.920393,1408.9953 20.885207,-4.2407"
         id="path233" /><path
         style="fill:none;stroke:#00ff00;stroke-width:0.741333;stroke-linecap:round;stroke-opacity:0.997898"
         d="m 252.4546,1024.5146 31.2405,-7.1741"
         id="path234"
         sodipodi:nodetypes="cc" /><path
         style="fill:none;stroke:#00ff00;stroke-width:0.741333;stroke-linecap:round;stroke-opacity:0.997898"
         d="m 235.31027,1281.1963 43.75206,-4.0397"
         id="path235" /><path
         style="fill:none;stroke:#00ff00;stroke-width:0.741333;stroke-linecap:round;stroke-opacity:0.997898"
         d="m 133.56505,1662.15 49.9684,-2.9147"
         id="path236"
         sodipodi:nodetypes="cc" /><path
         style="fill:none;stroke:#00ff00;stroke-width:0.741333;stroke-linecap:round;stroke-opacity:0.997898"
         d="m 900.89419,1546.2134 29.56075,2.1253"
         id="path237"
         sodipodi:nodetypes="cc" /><path
         style="fill:none;stroke:#00ff00;stroke-width:0.741333;stroke-linecap:round;stroke-opacity:0.997898"
         d="m 797.08968,1582.6951 43.40827,2.9566"
         id="path238"
         sodipodi:nodetypes="cc" /><path
         style="fill:none;stroke:#00ff00;stroke-width:0.741332;stroke-linecap:round;stroke-opacity:0.997898"
         d="m 650.81279,384.56974 -4.32531,-21.77428 -83.4759,-24.48636 -129.20998,2.85876 -71.35777,20.57904 5.00166,26.43467"
         id="path243"
         sodipodi:nodetypes="cccccc" /><path
         style="fill:#ffffff;stroke:#00ff00;stroke-width:0.741333;stroke-linecap:round;stroke-opacity:0.997898"
         d="m 60.561354,1734.4106 802.413026,2e-4"
         id="path245"
         sodipodi:nodetypes="cc" /></g></g></svg>
