<?xml version="1.0" encoding="UTF-8" standalone="no"?>
<!-- Created with Inkscape (http://www.inkscape.org/) -->

<svg
   version="1.1"
   id="svg1"
   width="268mm"
   height="495.00003mm"
   viewBox="0 0 1012.9134 1870.8662"
   sodipodi:docname="Turm.svg"
   inkscape:version="1.3.2 (1:1.3.2+202311252150+091e20ef0f)"
   xml:space="preserve"
   xmlns:inkscape="http://www.inkscape.org/namespaces/inkscape"
   xmlns:sodipodi="http://sodipodi.sourceforge.net/DTD/sodipodi-0.dtd"
   xmlns:xlink="http://www.w3.org/1999/xlink"
   xmlns="http://www.w3.org/2000/svg"
   xmlns:svg="http://www.w3.org/2000/svg"><defs
     id="defs1"><inkscape:path-effect
       effect="bspline"
       id="path-effect14"
       is_visible="true"
       lpeversion="1.3"
       weight="33.333333"
       steps="2"
       helper_size="0"
       apply_no_weight="true"
       apply_with_weight="true"
       only_selected="false"
       uniform="false" /><inkscape:path-effect
       effect="bspline"
       id="path-effect13"
       is_visible="true"
       lpeversion="1.3"
       weight="33.333333"
       steps="2"
       helper_size="0"
       apply_no_weight="true"
       apply_with_weight="true"
       only_selected="false"
       uniform="false" /><inkscape:path-effect
       effect="bspline"
       id="path-effect12"
       is_visible="true"
       lpeversion="1.3"
       weight="33.333333"
       steps="2"
       helper_size="0"
       apply_no_weight="true"
       apply_with_weight="true"
       only_selected="false"
       uniform="false" /><inkscape:path-effect
       effect="bspline"
       id="path-effect11"
       is_visible="true"
       lpeversion="1.3"
       weight="33.333333"
       steps="2"
       helper_size="0"
       apply_no_weight="true"
       apply_with_weight="true"
       only_selected="false"
       uniform="false" /><inkscape:path-effect
       effect="bspline"
       id="path-effect10"
       is_visible="true"
       lpeversion="1.3"
       weight="33.333333"
       steps="2"
       helper_size="0"
       apply_no_weight="true"
       apply_with_weight="true"
       only_selected="false"
       uniform="false" /><inkscape:path-effect
       effect="bspline"
       id="path-effect9"
       is_visible="true"
       lpeversion="1.3"
       weight="33.333333"
       steps="2"
       helper_size="0"
       apply_no_weight="true"
       apply_with_weight="true"
       only_selected="false"
       uniform="false" /><inkscape:path-effect
       effect="bspline"
       id="path-effect8"
       is_visible="true"
       lpeversion="1.3"
       weight="33.333333"
       steps="2"
       helper_size="0"
       apply_no_weight="true"
       apply_with_weight="true"
       only_selected="false"
       uniform="false" /><inkscape:path-effect
       effect="bspline"
       id="path-effect7"
       is_visible="true"
       lpeversion="1.3"
       weight="33.333333"
       steps="2"
       helper_size="0"
       apply_no_weight="true"
       apply_with_weight="true"
       only_selected="false"
       uniform="false" /><inkscape:path-effect
       effect="bspline"
       id="path-effect4"
       is_visible="true"
       lpeversion="1.3"
       weight="33.333333"
       steps="2"
       helper_size="0"
       apply_no_weight="true"
       apply_with_weight="true"
       only_selected="false"
       uniform="false" /><inkscape:path-effect
       effect="bspline"
       id="path-effect3"
       is_visible="true"
       lpeversion="1.3"
       weight="33.333333"
       steps="2"
       helper_size="0"
       apply_no_weight="true"
       apply_with_weight="true"
       only_selected="false"
       uniform="false" /><inkscape:path-effect
       effect="bspline"
       id="path-effect2"
       is_visible="true"
       lpeversion="1.3"
       weight="33.333333"
       steps="2"
       helper_size="0"
       apply_no_weight="true"
       apply_with_weight="true"
       only_selected="false"
       uniform="false" /><inkscape:path-effect
       effect="bspline"
       id="path-effect1"
       is_visible="true"
       lpeversion="1.3"
       weight="33.333333"
       steps="2"
       helper_size="0"
       apply_no_weight="true"
       apply_with_weight="true"
       only_selected="false"
       uniform="false" /></defs><sodipodi:namedview
     id="namedview1"
     pagecolor="#ffffff"
     bordercolor="#000000"
     borderopacity="0.25"
     inkscape:showpageshadow="2"
     inkscape:pageopacity="0.0"
     inkscape:pagecheckerboard="0"
     inkscape:deskcolor="#d1d1d1"
     showgrid="false"
     inkscape:zoom="0.4087365"
     inkscape:cx="505.21547"
     inkscape:cy="935.81074"
     inkscape:window-width="1920"
     inkscape:window-height="1009"
     inkscape:window-x="0"
     inkscape:window-y="1200"
     inkscape:window-maximized="1"
     inkscape:current-layer="layer1"
     inkscape:document-units="mm"><inkscape:grid
       id="grid41"
       units="mm"
       originx="-1.0330817e-08"
       originy="5.0636348e-09"
       spacingx="3.7795276"
       spacingy="3.7795276"
       empcolor="#3f3fff"
       empopacity="0.25098039"
       color="#3f3fff"
       opacity="0.1254902"
       empspacing="5"
       dotted="false"
       gridanglex="30"
       gridanglez="30"
       visible="false" /></sodipodi:namedview><g
     inkscape:groupmode="layer"
     inkscape:label="Image"
     id="g1"
     style="display:none;opacity:0.417"
     sodipodi:insensitive="true"><image
       width="588"
       height="868"
       preserveAspectRatio="none"
       xlink:href="dsc_0775c.jpg"
       id="image1" /><image
       width="1604.5122"
       height="2139.3496"
       preserveAspectRatio="none"
       xlink:href="Nuremberg_Outer_Laufertor_Tower_f_e.jpg"
       id="image1-3"
       x="-378.25342"
       y="57.042953"
       style="stroke-width:0.498594" /></g><g
     inkscape:groupmode="layer"
     id="layer1"
     inkscape:label="outline"
     style="display:inline"><path
       style="display:inline;fill:#ffffff;stroke:#ff0000;stroke-width:0.755905;stroke-linecap:round;stroke-opacity:0.997898"
       d="m 500.81388,8.6359704 c 0,0 -11.04752,2.5010256 -11.25059,11.4327456 -0.27761,12.210336 9.40398,16.22533 9.40398,16.22533 l -3.50858,33.072947 -12.42863,22.322685 -29.16791,47.492302 -33.52045,46.01847 -22.87286,27.57898 -28.02442,26.51139 -22.12723,19.98234 6.3837,33.03569 12.62371,3.18754 -4.24185,37.19418 c 0,0 -14.33494,3.99571 -20.53095,7.26327 -53.04142,27.97218 -160.71774,85.17075 -160.71774,85.17075 L 10.445721,506.87846 c -14.0490395,10.629 -26.953474,56.97363 53.774363,84.51698 -20.62348,15.58707 -31.597281,28.58406 -17.728356,46.66843 l 0.640853,12.01569 c -18.63587,19.35606 -17.060475,32.85562 -0.05519,49.41204 -6.04984,9.119 -2.698474,14.82537 6.151294,18.63211 -2.636574,7.52947 -3.292841,17.3613 4.981933,22.36653 -6.344746,26.85973 3.317928,31.30605 13.655286,44.80772 l 0.2511,46.5931 c -16.214728,9.08469 -24.770857,32.2887 -6.764378,44.53229 1.20376,0.81851 0.524493,4.61614 1.44839,5.77219 2.11726,2.64928 1.882403,3.08168 4.895689,5.33468 L 29.54323,1335.9294 c -25.8270505,7.3655 -26.6142025,36.0651 -9.39752,45.9302 l -16.3661824,224.4397 166.2992224,219.2126 -1e-5,18.8976 h 11.33858 c 1.89533,3.7761 1.91824,3.7795 0,7.559 v 18.8977 h 657.63782 v -18.8977 c -1.93748,-3.7795 -1.9871,-3.7795 0,-7.559 h 11.33858 l 10e-6,-18.8976 45.35432,-196.5355 c 0.72076,-3.536 2.87498,-7.622 7.55906,-7.559 l 105.82679,-15.1181 -21.64839,-238.8516 c 17.71689,-7.7626 13.13809,-28.7058 -9.64725,-33.0704 L 931.83515,886.81738 c 0,0 22.02058,-12.82472 21.38774,-28.0385 -0.63285,-15.21386 -20.5225,-27.9391 -20.5225,-27.9391 l -1.59414,-44.21819 c 22.01612,-20.53456 22.15842,-29.09908 15.06029,-40.07982 4.49305,-9.78206 11.45877,-16.63871 9.98088,-33.48496 l 7.47824,-8.38889 -1.12444,-10.55924 c 0,0 13.97104,-4.62404 13.08477,-19.3906 -0.88636,-14.76654 -16.33926,-30.48111 -16.33926,-30.48111 0,0 9.44735,-10.80019 9.93392,-24.03378 0.5093,-13.85448 -23.77635,-28.43508 -23.77635,-28.43508 l 44.73081,-24.29074 C 1013.4435,554.81984 1011.0426,525.44592 998.5774,510.6041 894.07737,456.31401 756.41872,386.46483 635.61612,326.69823 l -1.74973,-33.75862 24.61923,-5.2644 -5.14032,-27.88928 -10.48929,-17.01565 C 618.04655,226.4564 599.69017,206.34294 581.11852,185.28694 l 3.70684,-52.0078 -13.99763,-20.24057 -8.21918,-0.34086 -17.16697,11.10658 -32.29937,-53.476129 c -3.15326,-24.964726 -3.24245,-8.529361 -4.07173,-33.60226 7.57274,-4.056365 9.79543,-10.811393 9.62383,-15.526754 -0.24822,-6.820743 -3.02421,-10.728356 -9.73702,-11.852089 -1.71739,-3.1163726 -0.22895,-9.67031319 -5.16567,-9.33463844 -2.69177,0.43863521 -2.00248,5.72418714 -2.97774,8.62355084 z"
       id="path9"
       sodipodi:nodetypes="cscccccccccccsccccccccccssccccccccccccccccccccsccccccscscscccccccccccccsccc" /><rect
       style="fill:none;stroke:#0000ff;stroke-width:0.755906;stroke-linecap:round;stroke-opacity:0.997898"
       id="rect1"
       width="56.692913"
       height="22.677166"
       x="895.74799"
       y="1628.9764" /></g><g
     inkscape:groupmode="layer"
     id="layer2"
     inkscape:label="green"
     style="display:inline"><g
       id="g243"
       transform="matrix(1.0503751,0,0,0.98983833,-29.59639,-95.36861)"
       style="stroke-width:0.980725"><path
         style="fill:none;stroke:#00ff00;stroke-width:0.741332;stroke-linecap:round;stroke-opacity:0.997898"
         d="M 496.77256,200.0475 C 493.30725,229.24584 468.3431,286.21014 442.526,323.6264"
         id="path16"
         sodipodi:nodetypes="cc" /><path
         style="fill:none;stroke:#00ff00;stroke-width:0.741332;stroke-linecap:round;stroke-opacity:0.997898"
         d="m 513.66714,202.39776 c 12.65047,62.28482 22.01014,87.23882 43.2233,120.52072"
         id="path17"
         sodipodi:nodetypes="cc" /><path
         style="fill:none;stroke:#00ff00;stroke-width:0.741332;stroke-linecap:round;stroke-opacity:0.997898"
         d="m 648.97169,358.31004 -85.96011,-25.04569 -129.20998,2.85877 -75.60644,21.66991"
         id="path18" /><path
         style="fill:none;stroke:#00ff00;stroke-width:0.741332;stroke-linecap:round;stroke-opacity:0.997898"
         d="m 545.70704,222.1507 34.63745,61.21408"
         id="path19"
         sodipodi:nodetypes="cc" /><path
         style="fill:none;stroke:#00ff00;stroke-width:0.741332;stroke-linecap:round;stroke-opacity:0.997898"
         d="m 372.22486,431.81785 66.88033,-20.41851 119.88591,4.24341 73.13498,10.13318 v 0"
         id="path20" /><path
         style="fill:none;stroke:#00ff00;stroke-width:0.741332;stroke-linecap:round;stroke-opacity:0.997898"
         d="m 630.46355,391.73801 -0.59019,-25.20042"
         id="path21" /><path
         style="fill:none;stroke:#00ff00;stroke-width:0.741332;stroke-linecap:round;stroke-opacity:0.997898"
         d="M 376.25528,394.31594 379.24116,367.123"
         id="path22" /><path
         style="fill:none;stroke:#00ff00;stroke-width:0.741332;stroke-linecap:round;stroke-opacity:0.997898"
         d="m 439.10519,411.39934 2.25349,-63.52365 v 0"
         id="path23" /><path
         style="fill:none;stroke:#00ff00;stroke-width:0.741332;stroke-linecap:round;stroke-opacity:0.997898"
         d="m 558.9911,415.64275 2.93097,-67.26813"
         id="path24" /><path
         style="fill:none;stroke:#00ff00;stroke-width:0.741332;stroke-linecap:round;stroke-opacity:0.997898"
         d="m 482.51799,353.39942 -0.50347,36.63216 55.9467,-1.01042 -0.26651,-34.40382"
         id="path26" /><path
         style="fill:none;stroke:#00ff00;stroke-width:0.741332;stroke-linecap:round;stroke-opacity:0.997898"
         d="m 402.16843,369.73716 -3.5275,32.48428 c 0,0 30.526,-10.40493 30.36883,-13.24654 -0.15718,-2.8416 1.1697,-32.07247 1.1697,-32.07247"
         id="path27" /><path
         style="fill:none;stroke:#00ff00;stroke-width:0.741332;stroke-linecap:round;stroke-opacity:0.997898"
         d="m 579.74884,364.4504 -0.4016,32.86867 36.53784,6.9959 -2.35122,-34.01449"
         id="path28"
         sodipodi:nodetypes="cccc" /><path
         style="fill:none;stroke:#00ff00;stroke-width:0.741332;stroke-linecap:round;stroke-opacity:0.997898"
         d="m 574.64825,225.9091 -0.76543,22.59488"
         id="path29"
         sodipodi:nodetypes="cc" /><path
         style="fill:none;stroke:#00ff00;stroke-width:0.741332;stroke-linecap:round;stroke-opacity:0.997898"
         d="m 559.45252,217.48319 -1.29265,17.70468"
         id="path30" /><path
         style="fill:none;stroke:#00ff00;stroke-width:0.741332;stroke-linecap:round;stroke-opacity:0.997898"
         d="M 295.38953,528.44781 414.04249,432.1885"
         id="path31"
         sodipodi:nodetypes="cc" /><path
         style="fill:none;stroke:#00ff00;stroke-width:0.741332;stroke-linecap:round;stroke-opacity:0.997898"
         d="m 564.65503,428.07708 93.27382,98.46945"
         id="path32" /><path
         style="fill:none;stroke:#00ff00;stroke-width:0.741332;stroke-linecap:round;stroke-opacity:0.997898"
         d="M 641.55138,447.18128 688.05221,476.866"
         id="path33" /><path
         style="fill:none;stroke:#00ff00;stroke-width:0.741332;stroke-linecap:round;stroke-opacity:0.997898"
         d="m 89.521234,688.86439 c 0,0 170.523466,-57.45973 422.421646,-58.8943 251.89819,-1.4346 414.13274,60.24199 414.13274,60.24199"
         id="path34"
         sodipodi:nodetypes="csc" /><path
         style="fill:none;stroke:#00ff00;stroke-width:0.741332;stroke-linecap:round;stroke-opacity:0.997898"
         d="m 271.19882,713.84185 c 62.55576,-9.19357 122.43128,-16.6681 215.21033,-15.56207 199.9914,2.38418 345.08617,13.44939 450.33669,48.48583"
         id="path35"
         sodipodi:nodetypes="csc" /><path
         style="fill:none;stroke:#00ff00;stroke-width:0.741332;stroke-linecap:round;stroke-opacity:0.997898"
         d="m 74.309203,801.83978 c 86.773257,-41.18089 233.137017,-78.69749 449.323067,-78.51515 77.13118,0.0652 144.89213,5.33024 202.2443,13.17236"
         id="path36"
         sodipodi:nodetypes="csc" /><path
         style="fill:none;stroke:#00ff00;stroke-width:0.741332;stroke-linecap:round;stroke-opacity:0.997898"
         d="m 106.0339,580.40722 c 57.79433,-21.29665 120.97948,-30.13794 180.86829,-36.93706 59.23473,-7.69013 340.77178,-8.58741 403.60958,-3.13026 47.57657,3.91305 126.61117,7.71839 221.71922,41.66173"
         id="path41"
         sodipodi:nodetypes="cccc" /><path
         style="fill:none;stroke:#00ff00;stroke-width:0.741332;stroke-linecap:round;stroke-opacity:0.997898"
         d="m 285.52433,782.43883 c 57.55602,-8.61908 128.29746,-13.60637 217.22097,-12.54628 199.99137,2.38416 359.7717,43.95848 423.53375,78.23809"
         id="path42"
         sodipodi:nodetypes="csc" /><path
         style="fill:none;stroke:#00ff00;stroke-width:0.741332;stroke-linecap:round;stroke-opacity:0.997898"
         d="m 83.452024,864.96117 c 86.773226,-41.18088 223.994196,-72.3112 440.180246,-72.12887 95.0286,0.0801 171.40076,8.47372 231.06139,19.90661"
         id="path43"
         sodipodi:nodetypes="csc" /><path
         style="fill:none;stroke:#00ff00;stroke-width:0.741332;stroke-linecap:round;stroke-opacity:0.997898"
         d="m 295.58866,895.70153 c 43.55706,-6.36575 81.95018,-10.88321 118.70197,-13.25131 m 146.5809,1.10152 c 168.73136,8.10843 287.23297,23.33624 353.98617,50.71627"
         id="path44"
         sodipodi:nodetypes="cccc" /><path
         style="fill:none;stroke:#00ff00;stroke-width:0.741332;stroke-linecap:round;stroke-opacity:0.997898"
         d="M 90.028822,977.46237 C 151.43085,944.13333 258.74291,910.88541 414.85454,904.29201 m 149.4105,1.68925 c 52.59231,2.41503 118.19147,5.97137 169.84339,10.42491"
         id="path45"
         sodipodi:nodetypes="cccc" /><path
         style="fill:none;stroke:#00ff00;stroke-width:0.741332;stroke-linecap:round;stroke-opacity:0.997898"
         d="m 108.65533,633.15785 -1.88546,38.06285"
         id="path46"
         sodipodi:nodetypes="cc" /><path
         style="fill:none;stroke:#00ff00;stroke-width:0.741332;stroke-linecap:round;stroke-opacity:0.997898"
         d="m 157.19643,662.52759 2.39616,-52.62934"
         id="path47"
         sodipodi:nodetypes="cc" /><path
         style="fill:none;stroke:#00ff00;stroke-width:0.741332;stroke-linecap:round;stroke-opacity:0.997898"
         d="m 222.72563,647.62132 c 1.59274,-4.61455 -0.3095,-61.71631 -0.3095,-61.71631"
         id="path48"
         sodipodi:nodetypes="cc" /><path
         style="fill:none;stroke:#00ff00;stroke-width:0.741332;stroke-linecap:round;stroke-opacity:0.997898"
         d="m 312.33356,630.2518 -0.7522,-59.96343"
         id="path49"
         sodipodi:nodetypes="cc" /><path
         style="fill:none;stroke:#00ff00;stroke-width:0.741332;stroke-linecap:round;stroke-opacity:0.997898"
         d="m 419.55687,614.61353 -0.53419,-54.6196"
         id="path50"
         sodipodi:nodetypes="cc" /><path
         style="fill:none;stroke:#00ff00;stroke-width:0.741332;stroke-linecap:round;stroke-opacity:0.997898"
         d="m 535.53938,616.61722 2.10431,-58.88156"
         id="path51" /><path
         style="fill:none;stroke:#00ff00;stroke-width:0.741332;stroke-linecap:round;stroke-opacity:0.997898"
         d="m 625.97211,619.01239 1.3149,-52.72906"
         id="path52"
         sodipodi:nodetypes="cc" /><path
         style="fill:none;stroke:#00ff00;stroke-width:0.741332;stroke-linecap:round;stroke-opacity:0.997898"
         d="m 913.00649,674.76439 -0.15701,-40.45022"
         id="path53"
         sodipodi:nodetypes="cc" /><path
         style="fill:none;stroke:#00ff00;stroke-width:0.741332;stroke-linecap:round;stroke-opacity:0.997898"
         d="m 865.4878,658.67458 1.9383,-49.66322"
         id="path54"
         sodipodi:nodetypes="cc" /><path
         style="fill:none;stroke:#00ff00;stroke-width:0.741332;stroke-linecap:round;stroke-opacity:0.997898"
         d="m 797.52624,636.56579 -0.74738,-56.40437"
         id="path55"
         sodipodi:nodetypes="cc" /><path
         style="fill:none;stroke:#00ff00;stroke-width:0.741332;stroke-linecap:round;stroke-opacity:0.997898"
         d="m 706.62779,626.18444 0.3482,-60.45297"
         id="path56"
         sodipodi:nodetypes="cc" /><ellipse
         style="fill:none;stroke:#00ff00;stroke-width:0.741332;stroke-linecap:round;stroke-opacity:0.997898"
         id="path57"
         cx="509.48077"
         cy="118.26752"
         rx="5.8715749"
         ry="8.134449" /><path
         style="fill:none;stroke:#00ff00;stroke-width:0.741332;stroke-linecap:round;stroke-opacity:0.997898"
         d="m 89.947395,695.08794 c 0,0 170.097305,-57.65256 421.995485,-59.08714 251.89819,-1.43459 412.86373,59.51183 412.86373,59.51183"
         id="path58"
         sodipodi:nodetypes="csc" /><path
         style="fill:none;stroke:#00ff00;stroke-width:0.741332;stroke-linecap:round;stroke-opacity:0.997898"
         d="m 59.683518,673.45823 c 1.047998,-0.2807 -31.192046,-26.11958 -25.635479,-41.99189 8.202793,-23.43122 21.411882,-26.03754 56.669305,-40.29378 55.809966,-22.56659 137.270796,-36.96754 196.184846,-43.65602 59.23473,-7.69012 340.77178,-8.5874 403.60958,-3.13025 44.70705,3.67704 125.77493,7.54159 223.21859,42.3259 12.67077,4.52307 47.98568,19.61106 59.70983,28.38774 11.25058,23.30196 8.37645,41.11372 -6.27158,51.07334"
         id="path59"
         sodipodi:nodetypes="cssccscc" /><path
         style="fill:none;stroke:#00ff00;stroke-width:0.741332;stroke-linecap:round;stroke-opacity:0.997898"
         d="m 96.651974,991.03446 c 23.644506,-12.7622 42.929106,-19.06377 63.579376,-25.28594"
         id="path60"
         sodipodi:nodetypes="cc" /><path
         style="fill:none;stroke:#00ff00;stroke-width:0.741332;stroke-linecap:round;stroke-opacity:0.997898"
         d="M 96.521588,887.17408 C 120.16611,874.41187 179.64335,853.72577 200.29365,847.50358"
         id="path61"
         sodipodi:nodetypes="cc" /><path
         style="fill:none;stroke:#00ff00;stroke-width:0.741332;stroke-linecap:round;stroke-opacity:0.997898"
         d="M 80.089458,819.91489 C 103.73397,807.15267 158.279,787.49669 178.92928,781.27449"
         id="path62"
         sodipodi:nodetypes="cc" /><path
         style="fill:none;stroke:#00ff00;stroke-width:0.741332;stroke-linecap:round;stroke-opacity:0.997898"
         d="m 83.767676,842.97726 22.948094,-10.377"
         id="path63" /><path
         style="fill:none;stroke:#00ff00;stroke-width:0.741332;stroke-linecap:round;stroke-opacity:0.997898"
         d="m 72.867356,739.8595 22.948096,-10.377"
         id="path64" /><path
         style="fill:none;stroke:#00ff00;stroke-width:0.741332;stroke-linecap:round;stroke-opacity:0.997898"
         d="M 98.135886,935.15168 127.13398,924.7747"
         id="path65" /><path
         style="fill:none;stroke:#00ff00;stroke-width:0.741332;stroke-linecap:round;stroke-opacity:0.997898"
         d="m 913.72992,990.719 -20.98487,-8.60784"
         id="path66" /><path
         style="fill:none;stroke:#00ff00;stroke-width:0.741332;stroke-linecap:round;stroke-opacity:0.997898"
         d="M 912.83476,888.08437 872.2611,873.94154"
         id="path67" /><path
         style="fill:none;stroke:#00ff00;stroke-width:0.741332;stroke-linecap:round;stroke-opacity:0.997898"
         d="M 936.32027,815.14267 918.99865,807.4445"
         id="path68"
         sodipodi:nodetypes="cc" /><path
         style="fill:none;stroke:#00ff00;stroke-width:0.741332;stroke-linecap:round;stroke-opacity:0.997898"
         d="M 943.44611,797.40435 895.46215,779.22832"
         id="path69"
         sodipodi:nodetypes="cc" /><g
         id="g113"
         transform="matrix(1.8214585,0,0,1.8390572,-23.155728,-333.93905)"
         style="display:inline;stroke-width:0.535845"><path
           style="fill:none;stroke:#00ff00;stroke-width:0.405047;stroke-linecap:round;stroke-opacity:0.997898"
           d="m 268.62861,686.45103 c -0.0202,-10.97369 -0.15932,-22.28519 0.0831,-36.32042 12.98603,-0.76486 16.69561,0.39655 26.45753,-0.0812"
           id="path100"
           sodipodi:nodetypes="ccc" /><path
           style="fill:none;stroke:#00ff00;stroke-width:0.405047;stroke-linecap:round;stroke-opacity:0.997898"
           d="m 302.36985,685.1266 0.29602,-43.9029 c -15.42813,1.70109 -27.29286,-0.71761 -40.42209,-0.0992 0.60053,19.00157 0.0129,30.75548 -0.15392,45.07585"
           id="path101"
           sodipodi:nodetypes="cccc" /><path
           style="fill:none;stroke:#00ff00;stroke-width:0.405047;stroke-linecap:round;stroke-opacity:0.997898"
           d="m 316.04219,685.95068 c 0,-1.48187 0.39382,-59.93286 0.39382,-59.93286 -19.9849,0.12825 -73.16173,-1.24717 -69.02384,0.0383 1.30339,0.40491 -0.86326,34.0539 0.21937,61.27459"
           id="path102"
           sodipodi:nodetypes="ccsc" /><path
           style="fill:none;stroke:#00ff00;stroke-width:0.405047;stroke-linecap:round;stroke-opacity:0.997898"
           d="m 255.53435,628.55137 4.23501,10.76299 v 0"
           id="path103" /><path
           style="fill:none;stroke:#00ff00;stroke-width:0.405047;stroke-linecap:round;stroke-opacity:0.997898"
           d="m 307.22936,628.29795 c -0.7202,0.99827 -5.11607,10.26025 -5.11607,10.26025"
           id="path104" /><path
           style="fill:none;stroke:#00ff00;stroke-width:0.405047;stroke-linecap:round;stroke-opacity:0.997898"
           d="m 267.2632,695.6204 -23.11407,0.75683 0.25947,-9.02333 76.51814,-0.5867 0.11168,6.58746"
           id="path105"
           sodipodi:nodetypes="ccccc" /><path
           style="fill:none;stroke:#00ff00;stroke-width:0.405047;stroke-linecap:round;stroke-opacity:0.997898"
           d="m 249.52991,646.69996 11.5409,-0.1144"
           id="path106" /><path
           style="fill:none;stroke:#00ff00;stroke-width:0.405047;stroke-linecap:round;stroke-opacity:0.997898"
           d="m 305.85285,647.39003 6.32956,-0.22105"
           id="path107"
           sodipodi:nodetypes="cc" /><path
           style="fill:none;stroke:#00ff00;stroke-width:0.405047;stroke-linecap:round;stroke-opacity:0.997898"
           d="m 249.89919,675.94317 8.91772,0.20534"
           id="path108"
           sodipodi:nodetypes="cc" /><path
           style="fill:none;stroke:#00ff00;stroke-width:0.405047;stroke-linecap:round;stroke-opacity:0.997898"
           d="m 250.42141,665.70004 8.0059,-0.1676"
           id="path109"
           sodipodi:nodetypes="cc" /><path
           style="fill:none;stroke:#00ff00;stroke-width:0.405047;stroke-linecap:round;stroke-opacity:0.997898"
           d="m 304.58398,657.83018 8.91772,0.20534"
           id="path110"
           sodipodi:nodetypes="cc" /><path
           style="fill:none;stroke:#00ff00;stroke-width:0.405047;stroke-linecap:round;stroke-opacity:0.997898"
           d="m 304.43237,675.67805 8.91772,0.20534"
           id="path111"
           sodipodi:nodetypes="cc" /><path
           style="fill:none;stroke:#00ff00;stroke-width:0.405047;stroke-linecap:round;stroke-opacity:0.997898"
           d="m 288.60885,629.45193 -0.20534,8.91772"
           id="path112"
           sodipodi:nodetypes="cc" /><path
           style="fill:none;stroke:#00ff00;stroke-width:0.405047;stroke-linecap:round;stroke-opacity:0.997898"
           d="m 272.87675,629.50996 -0.20534,8.91772"
           id="path113"
           sodipodi:nodetypes="cc" /></g><g
         id="g141"
         transform="matrix(1.8214585,0,0,1.8390572,-23.155728,124.81156)"
         style="display:inline;stroke-width:0.535845"><path
           style="fill:none;stroke:#00ff00;stroke-width:0.405047;stroke-linecap:round;stroke-opacity:0.997898"
           d="m 268.62861,686.45103 c -0.0202,-10.97369 -0.15932,-22.28519 0.0831,-36.32042 12.98603,-0.76486 16.69561,0.39655 26.45753,-0.0812"
           id="path128"
           sodipodi:nodetypes="ccc" /><path
           style="fill:none;stroke:#00ff00;stroke-width:0.405047;stroke-linecap:round;stroke-opacity:0.997898"
           d="m 302.36985,685.1266 0.29602,-43.9029 c -15.42813,1.70109 -27.29286,-0.71761 -40.42209,-0.0992 0.60053,19.00157 0.0129,30.75548 -0.15392,45.07585"
           id="path129"
           sodipodi:nodetypes="cccc" /><path
           style="fill:none;stroke:#00ff00;stroke-width:0.405047;stroke-linecap:round;stroke-opacity:0.997898"
           d="m 316.04219,685.95068 c 0,-1.48187 0.39382,-59.93286 0.39382,-59.93286 -19.9849,0.12825 -73.16173,-1.24717 -69.02384,0.0383 1.30339,0.40491 -0.86326,34.0539 0.21937,61.27459"
           id="path130"
           sodipodi:nodetypes="ccsc" /><path
           style="fill:none;stroke:#00ff00;stroke-width:0.405047;stroke-linecap:round;stroke-opacity:0.997898"
           d="m 255.53435,628.55137 4.23501,10.76299 v 0"
           id="path131" /><path
           style="fill:none;stroke:#00ff00;stroke-width:0.405047;stroke-linecap:round;stroke-opacity:0.997898"
           d="m 307.22936,628.29795 c -0.7202,0.99827 -5.11607,10.26025 -5.11607,10.26025"
           id="path132" /><path
           style="fill:none;stroke:#00ff00;stroke-width:0.405047;stroke-linecap:round;stroke-opacity:0.997898"
           d="m 320.33641,686.51627 0.13987,9.36701 -76.32715,0.49395 0.25947,-9.02333 53.12297,-0.6823"
           id="path133"
           sodipodi:nodetypes="ccccc" /><path
           style="fill:none;stroke:#00ff00;stroke-width:0.405047;stroke-linecap:round;stroke-opacity:0.997898"
           d="m 249.52991,646.69996 11.5409,-0.1144"
           id="path134" /><path
           style="fill:none;stroke:#00ff00;stroke-width:0.405047;stroke-linecap:round;stroke-opacity:0.997898"
           d="m 305.85285,647.39003 6.32956,-0.22105"
           id="path135"
           sodipodi:nodetypes="cc" /><path
           style="fill:none;stroke:#00ff00;stroke-width:0.405047;stroke-linecap:round;stroke-opacity:0.997898"
           d="m 249.89919,675.94317 8.91772,0.20534"
           id="path136"
           sodipodi:nodetypes="cc" /><path
           style="fill:none;stroke:#00ff00;stroke-width:0.405047;stroke-linecap:round;stroke-opacity:0.997898"
           d="m 250.42141,665.70004 8.0059,-0.1676"
           id="path137"
           sodipodi:nodetypes="cc" /><path
           style="fill:none;stroke:#00ff00;stroke-width:0.405047;stroke-linecap:round;stroke-opacity:0.997898"
           d="m 304.58398,657.83018 8.91772,0.20534"
           id="path138"
           sodipodi:nodetypes="cc" /><path
           style="fill:none;stroke:#00ff00;stroke-width:0.405047;stroke-linecap:round;stroke-opacity:0.997898"
           d="m 304.43237,675.67805 8.91772,0.20534"
           id="path139"
           sodipodi:nodetypes="cc" /><path
           style="fill:none;stroke:#00ff00;stroke-width:0.405047;stroke-linecap:round;stroke-opacity:0.997898"
           d="m 288.60885,629.45193 -0.20534,8.91772"
           id="path140"
           sodipodi:nodetypes="cc" /><path
           style="fill:none;stroke:#00ff00;stroke-width:0.405047;stroke-linecap:round;stroke-opacity:0.997898"
           d="m 272.87675,629.50996 -0.20534,8.91772"
           id="path141"
           sodipodi:nodetypes="cc" /></g><g
         id="g196"
         transform="matrix(1.8214585,0,0,1.8390572,-23.155728,-111.51453)"
         style="display:inline;stroke-width:0.535845"><path
           style="fill:none;stroke:#00ff00;stroke-width:0.405047;stroke-linecap:round;stroke-opacity:0.997898"
           d="m 268.50843,686.45103 c -0.0202,-10.97369 -0.15932,-22.28519 0.0831,-36.32042 12.98603,-0.76486 16.69561,0.39655 26.45753,-0.0812"
           id="path183"
           sodipodi:nodetypes="ccc" /><path
           style="fill:none;stroke:#00ff00;stroke-width:0.405047;stroke-linecap:round;stroke-opacity:0.997898"
           d="m 261.24983,685.1266 -0.29602,-43.9029 c 15.42813,1.70109 27.29286,-0.71761 40.42209,-0.0992 -0.60053,19.00157 -0.0129,30.75548 0.15392,45.07585"
           id="path184"
           sodipodi:nodetypes="cccc" /><path
           style="fill:none;stroke:#00ff00;stroke-width:0.405047;stroke-linecap:round;stroke-opacity:0.997898"
           d="m 247.57749,685.95068 c 0,-1.48187 -0.39382,-59.93286 -0.39382,-59.93286 19.9849,0.12825 73.16173,-1.24717 69.02384,0.0383 -1.30339,0.40491 0.86326,30.27437 -0.21937,57.49506"
           id="path185"
           sodipodi:nodetypes="ccsc" /><path
           style="fill:none;stroke:#00ff00;stroke-width:0.405047;stroke-linecap:round;stroke-opacity:0.997898"
           d="m 308.08533,628.55137 -4.23501,10.76299 v 0"
           id="path186" /><path
           style="fill:none;stroke:#00ff00;stroke-width:0.405047;stroke-linecap:round;stroke-opacity:0.997898"
           d="m 256.39032,628.29795 c 0.7202,0.99827 5.11607,10.26025 5.11607,10.26025"
           id="path187" /><path
           style="fill:none;stroke:#00ff00;stroke-width:0.405047;stroke-linecap:round;stroke-opacity:0.997898"
           d="m 322.0822,695.64519 -77.93307,0.73204 0.25947,-9.02333 76.24307,-1.02386"
           id="path188"
           sodipodi:nodetypes="cccc" /><path
           style="fill:none;stroke:#00ff00;stroke-width:0.405047;stroke-linecap:round;stroke-opacity:0.997898"
           d="m 314.08977,676.93618 -11.5409,-0.1144"
           id="path189" /><path
           style="fill:none;stroke:#00ff00;stroke-width:0.405047;stroke-linecap:round;stroke-opacity:0.997898"
           d="m 257.76683,637.92424 -6.32956,-0.22105"
           id="path190"
           sodipodi:nodetypes="cc" /><path
           style="fill:none;stroke:#00ff00;stroke-width:0.405047;stroke-linecap:round;stroke-opacity:0.997898"
           d="m 313.72049,645.70695 -8.91772,0.20534"
           id="path191"
           sodipodi:nodetypes="cc" /><path
           style="fill:none;stroke:#00ff00;stroke-width:0.405047;stroke-linecap:round;stroke-opacity:0.997898"
           d="m 313.19827,665.70004 -8.0059,-0.1676"
           id="path192"
           sodipodi:nodetypes="cc" /><path
           style="fill:none;stroke:#00ff00;stroke-width:0.405047;stroke-linecap:round;stroke-opacity:0.997898"
           d="m 259.0357,665.38924 -8.91772,0.20534"
           id="path193"
           sodipodi:nodetypes="cc" /><path
           style="fill:none;stroke:#00ff00;stroke-width:0.405047;stroke-linecap:round;stroke-opacity:0.997898"
           d="m 259.18731,675.67805 -8.91772,0.20534"
           id="path194"
           sodipodi:nodetypes="cc" /><path
           style="fill:none;stroke:#00ff00;stroke-width:0.405047;stroke-linecap:round;stroke-opacity:0.997898"
           d="m 275.01083,629.45193 0.20534,8.91772"
           id="path195"
           sodipodi:nodetypes="cc" /><path
           style="fill:none;stroke:#00ff00;stroke-width:0.405047;stroke-linecap:round;stroke-opacity:0.997898"
           d="m 290.74293,629.50996 0.20534,8.91772"
           id="path196"
           sodipodi:nodetypes="cc" /><path
           style="fill:none;stroke:#00ff00;stroke-width:0.405047;stroke-linecap:round;stroke-opacity:0.997898"
           d="m 256.71588,656.24635 -5.13819,0.20534"
           id="path197"
           sodipodi:nodetypes="cc" /></g><path
         style="fill:none;stroke:#00ff00;stroke-width:0.741332;stroke-linecap:round;stroke-opacity:0.997898"
         d="m 268.43834,1425.5102 c 64.06047,-5.0876 165.80901,-8.9773 264.78184,-8.3517 222.59263,1.4073 304.0523,15.6196 422.60377,26.8789"
         id="path198"
         sodipodi:nodetypes="csc" /><path
         style="fill:none;stroke:#00ff00;stroke-width:0.741332;stroke-linecap:round;stroke-opacity:0.997898"
         d="m 54.635583,1490.2966 c 125.588757,-15.9747 246.871967,-26.9486 487.489447,-32.1974 105.7432,-2.3067 219.45002,4.033 261.87244,6.7112"
         id="path199"
         sodipodi:nodetypes="csc" /><path
         style="fill:none;stroke:#00ff00;stroke-width:0.741332;stroke-linecap:round;stroke-opacity:0.997898"
         d="m 83.670013,1560.045 25.069887,-2.6388"
         id="path200"
         sodipodi:nodetypes="cc" /><g
         id="g238"
         transform="matrix(1.0350602,0,0,1.0450607,-0.98884324,-160.79792)"
         style="stroke-width:0.942957"><path
           style="fill:none;stroke:#00ff00;stroke-width:0.712787;stroke-linecap:round;stroke-opacity:0.997898"
           d="m 392.50731,1809.8374 1.09228,-19.0582 161.49127,1.3448 1.28165,16.2041 v 0 -0.4852"
           id="path201"
           sodipodi:nodetypes="cccccc" /><path
           style="fill:none;stroke:#00ff00;stroke-width:0.712787;stroke-linecap:round;stroke-opacity:0.997898"
           d="m 416.56986,1786.1951 6.68723,-143.3447 c 5.75542,-22.9607 20.43762,-35.1863 40.23747,-38.7529 m 29.1993,2.95 c 28.00685,8.9671 33.43775,29.2613 36.55788,52.7101 l 1.57217,128.5397"
           id="path202"
           sodipodi:nodetypes="cccccc" /><path
           style="fill:none;stroke:#00ff00;stroke-width:0.712787;stroke-linecap:round;stroke-opacity:0.997898"
           d="m 426.95125,1566.9134 34.97494,-0.7244 2.40254,45.4411 18.76201,-0.6105 4.60151,-27.9511 -3.15384,-19.2384 -22.76344,-0.074"
           id="path203"
           sodipodi:nodetypes="ccccccc" /><path
           style="fill:none;stroke:#00ff00;stroke-width:0.712787;stroke-linecap:round;stroke-opacity:0.997898"
           d="m 413.3306,1584.314 12.25131,1.0195 14.63187,21.7075"
           id="path204" /><path
           style="fill:none;stroke:#00ff00;stroke-width:0.712787;stroke-linecap:round;stroke-opacity:0.997898"
           d="m 536.9177,1586.1238 c -1.74169,-0.169 -15.10519,-1.2042 -15.10519,-1.2042 l -14.9954,22.4364"
           id="path205" /><path
           style="fill:none;stroke:#00ff00;stroke-width:0.712787;stroke-linecap:round;stroke-opacity:0.997898"
           d="m 536.79927,1610.3142 -13.62886,11.4921"
           id="path206" /><path
           style="fill:none;stroke:#00ff00;stroke-width:0.712787;stroke-linecap:round;stroke-opacity:0.997898"
           d="m 412.20185,1613.0348 14.05502,10.3762"
           id="path207" /><path
           style="fill:none;stroke:#00ff00;stroke-width:0.712787;stroke-linecap:round;stroke-opacity:0.997898"
           d="m 388.24644,1631.1397 29.99357,9.0714"
           id="path208" /><path
           style="fill:none;stroke:#00ff00;stroke-width:0.712787;stroke-linecap:round;stroke-opacity:0.997898"
           d="m 557.66107,1628.0283 -26.10702,8.7203"
           id="path209" /><path
           style="fill:none;stroke:#00ff00;stroke-width:0.712787;stroke-linecap:round;stroke-opacity:0.997898"
           d="m 521.33493,1585.1496 -0.95633,-19.2025 -27.10586,0.6194"
           id="path210" /><path
           style="fill:none;stroke:#00ff00;stroke-width:0.712787;stroke-linecap:round;stroke-opacity:0.997898"
           d="m 537.52429,1585.5121 0.4642,20.8421"
           id="path211" /><path
           style="fill:none;stroke:#00ff00;stroke-width:0.712787;stroke-linecap:round;stroke-opacity:0.997898"
           d="m 558.29376,1627.9987 5.18225,0.204 -1.68249,27.2616"
           id="path212" /><path
           style="fill:none;stroke:#00ff00;stroke-width:0.712787;stroke-linecap:round;stroke-opacity:0.997898"
           d="m 532.67664,1702.8362 100.993,-0.1768"
           id="path213" /><path
           style="fill:none;stroke:#00ff00;stroke-width:0.712787;stroke-linecap:round;stroke-opacity:0.997898"
           d="m 534.4462,1727.4166 98.97056,0.832"
           id="path214" /><path
           style="fill:none;stroke:#00ff00;stroke-width:0.712787;stroke-linecap:round;stroke-opacity:0.997898"
           d="m 417.34745,1702.9335 -120.69904,2.5848"
           id="path215" /><path
           style="fill:none;stroke:#00ff00;stroke-width:0.712787;stroke-linecap:round;stroke-opacity:0.997898"
           d="M 296.97826,1730.6211 H 414.43948"
           id="path216" /><path
           style="fill:none;stroke:#00ff00;stroke-width:0.712787;stroke-linecap:round;stroke-opacity:0.997898"
           d="m 393.71294,1667.3438 11.40258,0.9253"
           id="path217" /><path
           style="fill:none;stroke:#00ff00;stroke-width:0.712787;stroke-linecap:round;stroke-opacity:0.997898"
           d="m 545.93341,1681.1437 10.39167,-0.4315"
           id="path218" /><path
           style="fill:none;stroke:#00ff00;stroke-width:0.712787;stroke-linecap:round;stroke-opacity:0.997898"
           d="m 545.72717,1762.3264 11.793,0.2667"
           id="path219" /><path
           style="fill:none;stroke:#00ff00;stroke-width:0.712787;stroke-linecap:round;stroke-opacity:0.997898"
           d="m 383.38737,1758.7871 10.29307,0.1021"
           id="path220" /><path
           style="fill:none;stroke:#00ff00;stroke-width:0.712788;stroke-linecap:round;stroke-opacity:0.997898"
           d="m 427.24841,1782.7468 6.02421,-137.2934 c 1.48246,-17.9385 19.26126,-30.6937 37.62093,-31.9182 32.14005,-1.479 49.93981,19.6066 50.72375,54.1045 0.0677,2.9803 -1.05768,118.0299 -1.05768,118.0299 z"
           id="path239"
           sodipodi:nodetypes="cccscc" /><path
           style="fill:none;stroke:#00ff00;stroke-width:0.712788;stroke-linecap:round;stroke-opacity:0.997898"
           d="m 434.66344,1739.8307 80.06747,1.9565 -1.03,9.8225 c 0,0 -51.83599,-3.9783 -65.62576,-2.8099 -13.78977,1.1685 -13.78977,1.1685 -13.41171,-8.9691 z"
           id="path240" /><path
           style="fill:none;stroke:#00ff00;stroke-width:0.712788;stroke-linecap:round;stroke-opacity:0.997898"
           d="m 437.13814,1688.1263 c 0,0 48.36556,-0.1401 58.97546,0.2128 10.6099,0.3528 14.47993,-0.1132 14.47993,-0.1132 0,0 2.41402,-10.6044 0,-10.582 -27.39957,0.254 -55.71834,-0.561 -74.08122,0.8684"
           id="path241"
           sodipodi:nodetypes="cscsc" /><path
           style="fill:none;stroke:#00ff00;stroke-width:0.712788;stroke-linecap:round;stroke-opacity:0.997898"
           d="m 439.13867,1660.9339 c 0,0 57.13532,-0.8646 62.90724,-0.6246 5.77193,0.2401 6.72495,0.5281 6.72495,0.5281 l 1.43188,-11.1571 c 0,0 -50.71539,-0.3987 -54.48468,1.5339 -3.7693,1.9327 -3.7693,1.9327 -3.7693,1.9327"
           id="path242" /></g><path
         style="fill:none;stroke:#00ff00;stroke-width:0.741333;stroke-linecap:round;stroke-opacity:0.997898"
         d="m 710.1704,1108.2854 33.94729,2.5407"
         id="path221"
         sodipodi:nodetypes="cc" /><path
         style="fill:none;stroke:#00ff00;stroke-width:0.741333;stroke-linecap:round;stroke-opacity:0.997898"
         d="m 779.96408,1167.8478 29.48274,3.6598"
         id="path222" /><path
         style="fill:none;stroke:#00ff00;stroke-width:0.741333;stroke-linecap:round;stroke-opacity:0.997898"
         d="m 809.68884,1022.604 28.98105,5.2314"
         id="path223" /><path
         style="fill:none;stroke:#00ff00;stroke-width:0.741333;stroke-linecap:round;stroke-opacity:0.997898"
         d="m 820.74409,1329.6852 30.07417,5.0063"
         id="path224" /><path
         style="fill:none;stroke:#00ff00;stroke-width:0.741333;stroke-linecap:round;stroke-opacity:0.997898"
         d="m 675.63383,1378.6199 29.8255,1.6882"
         id="path225" /><path
         style="fill:none;stroke:#00ff00;stroke-width:0.741333;stroke-linecap:round;stroke-opacity:0.997898"
         d="m 710.7405,1248.5799 34.09191,2.1978"
         id="path226"
         sodipodi:nodetypes="cc" /><path
         style="fill:none;stroke:#00ff00;stroke-width:0.741333;stroke-linecap:round;stroke-opacity:0.997898"
         d="m 844.48561,1663.1632 40.6001,1.4421"
         id="path227"
         sodipodi:nodetypes="cc" /><path
         style="fill:none;stroke:#00ff00;stroke-width:0.741333;stroke-linecap:round;stroke-opacity:0.997898"
         d="m 863.38528,1104.6347 21.62935,5.9641"
         id="path228"
         sodipodi:nodetypes="cc" /><path
         style="fill:none;stroke:#00ff00;stroke-width:0.741333;stroke-linecap:round;stroke-opacity:0.997898"
         d="m 883.00047,1262.3268 25.54034,6.4962"
         id="path229"
         sodipodi:nodetypes="cc" /><path
         style="fill:none;stroke:#00ff00;stroke-width:0.741333;stroke-linecap:round;stroke-opacity:0.997898"
         d="m 103.12444,1081.3759 20.51433,-8.3578"
         id="path230" /><path
         style="fill:none;stroke:#00ff00;stroke-width:0.741333;stroke-linecap:round;stroke-opacity:0.997898"
         d="m 100.47066,1215.3666 22.8501,-5.5417"
         id="path231" /><path
         style="fill:none;stroke:#00ff00;stroke-width:0.741333;stroke-linecap:round;stroke-opacity:0.997898"
         d="m 154.02533,1139.3231 21.39447,-5.2091"
         id="path232" /><path
         style="fill:none;stroke:#00ff00;stroke-width:0.741333;stroke-linecap:round;stroke-opacity:0.997898"
         d="m 81.920393,1408.9953 20.885207,-4.2407"
         id="path233" /><path
         style="fill:none;stroke:#00ff00;stroke-width:0.741333;stroke-linecap:round;stroke-opacity:0.997898"
         d="m 252.4546,1024.5146 31.2405,-7.1741"
         id="path234"
         sodipodi:nodetypes="cc" /><path
         style="fill:none;stroke:#00ff00;stroke-width:0.741333;stroke-linecap:round;stroke-opacity:0.997898"
         d="m 235.31027,1281.1963 43.75206,-4.0397"
         id="path235" /><path
         style="fill:none;stroke:#00ff00;stroke-width:0.741333;stroke-linecap:round;stroke-opacity:0.997898"
         d="m 133.56505,1662.15 49.9684,-2.9147"
         id="path236"
         sodipodi:nodetypes="cc" /><path
         style="fill:none;stroke:#00ff00;stroke-width:0.741333;stroke-linecap:round;stroke-opacity:0.997898"
         d="m 900.89419,1546.2134 29.56075,2.1253"
         id="path237"
         sodipodi:nodetypes="cc" /><path
         style="fill:none;stroke:#00ff00;stroke-width:0.741333;stroke-linecap:round;stroke-opacity:0.997898"
         d="m 797.08968,1582.6951 43.40827,2.9566"
         id="path238"
         sodipodi:nodetypes="cc" /><path
         style="fill:none;stroke:#00ff00;stroke-width:0.741332;stroke-linecap:round;stroke-opacity:0.997898"
         d="m 650.81279,384.56974 -4.32531,-21.77428 -83.4759,-24.48636 -129.20998,2.85876 -71.35777,20.57904 5.00166,26.43467"
         id="path243"
         sodipodi:nodetypes="cccccc" /><path
         style="fill:#ffffff;stroke:#00ff00;stroke-width:0.741333;stroke-linecap:round;stroke-opacity:0.997898"
         d="m 60.561354,1734.4106 802.413026,2e-4"
         id="path245"
         sodipodi:nodetypes="cc" /></g></g></svg>
