<?xml version="1.0"?>
<!DOCTYPE svg PUBLIC "-//W3C//DTD SVG 1.1//EN" "http://www.w3.org/Graphics/SVG/1.1/DTD/svg11.dtd">
<svg width="397.8mm" height="120.80000000000008mm" viewBox="0 0 397.8 120.80000000000008" xmlns="http://www.w3.org/2000/svg" version="1.1">
<g id="Sketch128" transform="translate(198.900000,39.400000) scale(1,-1)">
<path id="Sketch128_w0000"  d="M -189.0 35.50000000000008 L -195.0 35.50000000000008 L -195.0 -77.5 L 195.0 -77.5 L 195.0 35.5 L 189.0 35.5 L 185.8 35.5 L -185.8 35.5 L -189.0 35.50000000000008 " stroke="#000000" stroke-width="0.35 px" style="stroke-width:0.35;stroke-miterlimit:4;stroke-dasharray:none;stroke-linecap:square;fill:none;fill-opacity:1;fill-rule: evenodd"/>
<path id="Sketch128_w0001"  d="M -188.04359622797242 -63.10770518829289 L -191.13455887209744 -62.279484243964816 L -188.49460461205172 -52.42704081581632 L -185.40364196792672 -53.255261760144386 L -188.04359622797242 -63.10770518829289 " stroke="#000000" stroke-width="0.35 px" style="stroke-width:0.35;stroke-miterlimit:4;stroke-dasharray:none;stroke-linecap:square;fill:none;fill-opacity:1;fill-rule: evenodd"/>
<path id="Sketch128_w0002"  d="M -181.48770981552556 -38.64080400839078 L -184.5786724596506 -37.812583064062714 L -181.93871819960486 -27.960139635914214 L -178.84775555547986 -28.78836058024228 L -181.48770981552556 -38.64080400839078 " stroke="#000000" stroke-width="0.35 px" style="stroke-width:0.35;stroke-miterlimit:4;stroke-dasharray:none;stroke-linecap:square;fill:none;fill-opacity:1;fill-rule: evenodd"/>
<path id="Sketch128_w0003"  d="M -174.9318234030787 -14.173902828488671 L -178.02278604720374 -13.345681884160605 L -175.382831787158 -3.493238456012106 L -172.29186914303298 -4.3214594003401725 L -174.9318234030787 -14.173902828488671 " stroke="#000000" stroke-width="0.35 px" style="stroke-width:0.35;stroke-miterlimit:4;stroke-dasharray:none;stroke-linecap:square;fill:none;fill-opacity:1;fill-rule: evenodd"/>
<path id="Sketch128_w0004"  d="M -168.37593699063186 10.292998351413436 L -171.46689963475689 11.121219295741502 L -168.82694537471116 20.97366272389 L -165.73598273058613 20.145441779561935 L -168.37593699063186 10.292998351413436 " stroke="#000000" stroke-width="0.35 px" style="stroke-width:0.35;stroke-miterlimit:4;stroke-dasharray:none;stroke-linecap:square;fill:none;fill-opacity:1;fill-rule: evenodd"/>
<path id="Sketch128_w0005"  d="M 188.04359622797244 -63.10770518829289 L 191.13455887209747 -62.27948424396482 L 188.49460461205175 -52.427040815816326 L 185.40364196792672 -53.25526176014439 L 188.04359622797244 -63.10770518829289 " stroke="#000000" stroke-width="0.35 px" style="stroke-width:0.35;stroke-miterlimit:4;stroke-dasharray:none;stroke-linecap:square;fill:none;fill-opacity:1;fill-rule: evenodd"/>
<path id="Sketch128_w0006"  d="M 181.4877098155256 -38.64080400839079 L 184.57867245965062 -37.81258306406272 L 181.9387181996049 -27.960139635914228 L 178.84775555547986 -28.788360580242294 L 181.4877098155256 -38.64080400839079 " stroke="#000000" stroke-width="0.35 px" style="stroke-width:0.35;stroke-miterlimit:4;stroke-dasharray:none;stroke-linecap:square;fill:none;fill-opacity:1;fill-rule: evenodd"/>
<path id="Sketch128_w0007"  d="M 174.93182340307874 -14.17390282848869 L 178.02278604720374 -13.345681884160623 L 175.38283178715804 -3.4932384560121275 L 172.291869143033 -4.321459400340195 L 174.93182340307874 -14.17390282848869 " stroke="#000000" stroke-width="0.35 px" style="stroke-width:0.35;stroke-miterlimit:4;stroke-dasharray:none;stroke-linecap:square;fill:none;fill-opacity:1;fill-rule: evenodd"/>
<path id="Sketch128_w0008"  d="M 168.37593699063189 10.292998351413408 L 171.46689963475689 11.121219295741476 L 168.8269453747112 20.97366272388997 L 165.73598273058616 20.145441779561903 L 168.37593699063189 10.292998351413408 " stroke="#000000" stroke-width="0.35 px" style="stroke-width:0.35;stroke-miterlimit:4;stroke-dasharray:none;stroke-linecap:square;fill:none;fill-opacity:1;fill-rule: evenodd"/>
<path id="Sketch128_w0009"  d="M -169.84735565801603 29.529290278530617 L -166.756393013891 28.70106933420255 L -168.36107109352662 22.712329211210324 L -171.45203373765165 23.540550155538394 L -169.84735565801603 29.529290278530617 " stroke="#000000" stroke-width="0.35 px" style="stroke-width:0.35;stroke-miterlimit:4;stroke-dasharray:none;stroke-linecap:square;fill:none;fill-opacity:1;fill-rule: evenodd"/>
<path id="Sketch128_w0010"  d="M -176.05901274047653 6.347070447592974 L -177.66369082011215 0.35833032460074765 L -174.57272817598712 -0.4698906197273196 L -172.9680500963515 5.5188495032649065 L -176.05901274047653 6.347070447592974 " stroke="#000000" stroke-width="0.35 px" style="stroke-width:0.35;stroke-miterlimit:4;stroke-dasharray:none;stroke-linecap:square;fill:none;fill-opacity:1;fill-rule: evenodd"/>
<path id="Sketch128_w0011"  d="M 172.9680500963515 5.518849503264914 L 174.57272817598712 -0.46989061972730983 L 177.66369082011215 0.3583303246007574 L 176.0590127404765 6.347070447592981 L 172.9680500963515 5.518849503264914 " stroke="#000000" stroke-width="0.35 px" style="stroke-width:0.35;stroke-miterlimit:4;stroke-dasharray:none;stroke-linecap:square;fill:none;fill-opacity:1;fill-rule: evenodd"/>
<path id="Sketch128_w0012"  d="M 168.36107109352662 22.712329211210328 L 171.45203373765165 23.540550155538394 L 169.847355658016 29.529290278530617 L 166.756393013891 28.70106933420255 L 168.36107109352662 22.712329211210328 " stroke="#000000" stroke-width="0.35 px" style="stroke-width:0.35;stroke-miterlimit:4;stroke-dasharray:none;stroke-linecap:square;fill:none;fill-opacity:1;fill-rule: evenodd"/>
<circle cx="-180.0" cy="31.5" r="2.0" stroke="#000000" stroke-width="0.35 px" style="stroke-width:0.35;stroke-miterlimit:4;stroke-dasharray:none;stroke-linecap:square;fill:none"/>
<circle cx="180.0" cy="31.5" r="2.0" stroke="#000000" stroke-width="0.35 px" style="stroke-width:0.35;stroke-miterlimit:4;stroke-dasharray:none;stroke-linecap:square;fill:none"/>
<circle cx="0.0" cy="31.5" r="2.0" stroke="#000000" stroke-width="0.35 px" style="stroke-width:0.35;stroke-miterlimit:4;stroke-dasharray:none;stroke-linecap:square;fill:none"/>
<path id="Sketch128_w0016"  d="M -160.0 15.500000000000007 L -160.0 -57.49999999999999 L 160.0 -57.49999999999999 L 160.0 15.500000000000007 L -160.0 15.500000000000007 " stroke="#000000" stroke-width="0.35 px" style="stroke-width:0.35;stroke-miterlimit:4;stroke-dasharray:none;stroke-linecap:square;fill:none;fill-opacity:1;fill-rule: evenodd"/>
<title>b'Sketch128'</title>
</g>
</svg>