<?xml version="1.0"?>
<!DOCTYPE svg PUBLIC "-//W3C//DTD SVG 1.1//EN" "http://www.w3.org/Graphics/SVG/1.1/DTD/svg11.dtd">
<svg width="397.8mm" height="120.80000000000001mm" viewBox="0 0 397.8 120.80000000000001" xmlns="http://www.w3.org/2000/svg" version="1.1">
<g id="Sketch126" transform="translate(198.900000,39.400000) scale(1,-1)">
<path id="Sketch126_w0000"  d="M -189.0 35.49999999999996 L -195.0 35.49999999999996 L -195.0 16.999999999999957 L -192.0 16.999999999999957 L -192.0 13.999999999999957 L -195.0 13.999999999999957 L -195.0 -11.299999999999997 L -185.8 -11.299999999999997 L -185.8 -20.5 L -185.8 -35.5 L -189.0 -35.5 L -189.0 -20.5 L -195.0 -20.5 L -195.0 -77.5 L 195.0 -77.5 L 195.0 -20.5 L 189.0 -20.5 L 189.0 -35.5 L 185.8 -35.5 L 185.8 -20.5 L 185.8 -11.3 L 195.0 -11.3 L 195.0 14.0 L 192.0 14.0 L 192.0 17.0 L 195.0 17.0 L 195.0 35.5 L 189.0 35.5 L 189.0 20.5 L 185.8 20.5 L 185.8 35.5 L 162.0 35.5 L 162.0 32.5 L -162.0 32.5 L -162.0 35.5 L -185.8 35.5 L -185.8 20.5 L -189.0 20.5 L -189.0 35.49999999999996 " stroke="#000000" stroke-width="0.35 px" style="stroke-width:0.35;stroke-miterlimit:4;stroke-dasharray:none;stroke-linecap:square;fill:none;fill-opacity:1;fill-rule: evenodd"/>
<path id="Sketch126_w0001"  d="M -188.04359622797244 -63.10770518829288 L -191.13455887209744 -62.279484243964816 L -188.49460461205175 -52.42704081581632 L -185.40364196792672 -53.255261760144386 L -188.04359622797244 -63.10770518829288 " stroke="#000000" stroke-width="0.35 px" style="stroke-width:0.35;stroke-miterlimit:4;stroke-dasharray:none;stroke-linecap:square;fill:none;fill-opacity:1;fill-rule: evenodd"/>
<path id="Sketch126_w0002"  d="M -181.4877098155256 -38.64080400839078 L -184.5786724596506 -37.812583064062714 L -181.9387181996049 -27.96013963591422 L -178.84775555547986 -28.788360580242287 L -181.4877098155256 -38.64080400839078 " stroke="#000000" stroke-width="0.35 px" style="stroke-width:0.35;stroke-miterlimit:4;stroke-dasharray:none;stroke-linecap:square;fill:none;fill-opacity:1;fill-rule: evenodd"/>
<path id="Sketch126_w0003"  d="M -174.93182340307874 -14.173902828488682 L -178.02278604720374 -13.345681884160616 L -175.38283178715804 -3.4932384560121204 L -172.291869143033 -4.321459400340187 L -174.93182340307874 -14.173902828488682 " stroke="#000000" stroke-width="0.35 px" style="stroke-width:0.35;stroke-miterlimit:4;stroke-dasharray:none;stroke-linecap:square;fill:none;fill-opacity:1;fill-rule: evenodd"/>
<path id="Sketch126_w0004"  d="M -168.37593699063189 10.292998351413416 L -171.46689963475689 11.121219295741483 L -168.8269453747112 20.97366272388998 L -165.73598273058616 20.14544177956191 L -168.37593699063189 10.292998351413416 " stroke="#000000" stroke-width="0.35 px" style="stroke-width:0.35;stroke-miterlimit:4;stroke-dasharray:none;stroke-linecap:square;fill:none;fill-opacity:1;fill-rule: evenodd"/>
<path id="Sketch126_w0005"  d="M 188.04359622797244 -63.10770518829288 L 191.13455887209747 -62.279484243964816 L 188.49460461205175 -52.42704081581632 L 185.40364196792672 -53.255261760144386 L 188.04359622797244 -63.10770518829288 " stroke="#000000" stroke-width="0.35 px" style="stroke-width:0.35;stroke-miterlimit:4;stroke-dasharray:none;stroke-linecap:square;fill:none;fill-opacity:1;fill-rule: evenodd"/>
<path id="Sketch126_w0006"  d="M 181.4877098155256 -38.64080400839078 L 184.57867245965062 -37.812583064062714 L 181.9387181996049 -27.96013963591422 L 178.84775555547986 -28.788360580242287 L 181.4877098155256 -38.64080400839078 " stroke="#000000" stroke-width="0.35 px" style="stroke-width:0.35;stroke-miterlimit:4;stroke-dasharray:none;stroke-linecap:square;fill:none;fill-opacity:1;fill-rule: evenodd"/>
<path id="Sketch126_w0007"  d="M 174.93182340307874 -14.173902828488682 L 178.02278604720377 -13.345681884160614 L 175.38283178715804 -3.4932384560121204 L 172.291869143033 -4.321459400340187 L 174.93182340307874 -14.173902828488682 " stroke="#000000" stroke-width="0.35 px" style="stroke-width:0.35;stroke-miterlimit:4;stroke-dasharray:none;stroke-linecap:square;fill:none;fill-opacity:1;fill-rule: evenodd"/>
<path id="Sketch126_w0008"  d="M 168.37593699063189 10.292998351413418 L 171.4668996347569 11.121219295741485 L 168.8269453747112 20.97366272388998 L 165.73598273058616 20.145441779561914 L 168.37593699063189 10.292998351413418 " stroke="#000000" stroke-width="0.35 px" style="stroke-width:0.35;stroke-miterlimit:4;stroke-dasharray:none;stroke-linecap:square;fill:none;fill-opacity:1;fill-rule: evenodd"/>
<path id="Sketch126_w0009"  d="M -169.84735565801603 29.529290278530592 L -166.75639301389103 28.701069334202526 L -168.36107109352665 22.712329211210303 L -171.45203373765167 23.54055015553837 L -169.84735565801603 29.529290278530592 " stroke="#000000" stroke-width="0.35 px" style="stroke-width:0.35;stroke-miterlimit:4;stroke-dasharray:none;stroke-linecap:square;fill:none;fill-opacity:1;fill-rule: evenodd"/>
<path id="Sketch126_w0010"  d="M -176.05901274047653 6.347070447592953 L -177.66369082011218 0.3583303246007308 L -174.57272817598715 -0.4698906197273359 L -172.96805009635153 5.518849503264887 L -176.05901274047653 6.347070447592953 " stroke="#000000" stroke-width="0.35 px" style="stroke-width:0.35;stroke-miterlimit:4;stroke-dasharray:none;stroke-linecap:square;fill:none;fill-opacity:1;fill-rule: evenodd"/>
<path id="Sketch126_w0011"  d="M 172.96805009635153 5.518849503264884 L 174.57272817598718 -0.46989061972733914 L 177.66369082011218 0.35833032460072767 L 176.05901274047656 6.34707044759295 L 172.96805009635153 5.518849503264884 " stroke="#000000" stroke-width="0.35 px" style="stroke-width:0.35;stroke-miterlimit:4;stroke-dasharray:none;stroke-linecap:square;fill:none;fill-opacity:1;fill-rule: evenodd"/>
<path id="Sketch126_w0012"  d="M 168.36107109352668 22.712329211210303 L 171.4520337376517 23.54055015553837 L 169.84735565801606 29.529290278530592 L 166.75639301389106 28.701069334202526 L 168.36107109352668 22.712329211210303 " stroke="#000000" stroke-width="0.35 px" style="stroke-width:0.35;stroke-miterlimit:4;stroke-dasharray:none;stroke-linecap:square;fill:none;fill-opacity:1;fill-rule: evenodd"/>
<path id="Sketch126_w0013"  d="M -155.0 26.0 L -155.0 18.0 L 155.0 18.0 L 155.0 26.0 L -155.0 26.0 " stroke="#000000" stroke-width="0.35 px" style="stroke-width:0.35;stroke-miterlimit:4;stroke-dasharray:none;stroke-linecap:square;fill:none;fill-opacity:1;fill-rule: evenodd"/>
<path id="Sketch126_w0014"  d="M -155.0 -14.0 L -155.0 -22.0 L 155.0 -22.0 L 155.0 -14.0 L -155.0 -14.0 " stroke="#000000" stroke-width="0.35 px" style="stroke-width:0.35;stroke-miterlimit:4;stroke-dasharray:none;stroke-linecap:square;fill:none;fill-opacity:1;fill-rule: evenodd"/>
<path id="Sketch126_w0015"  d="M -155.0 -55.0 L -155.0 -63.0 L 155.0 -63.0 L 155.0 -55.0 L -155.0 -55.0 " stroke="#000000" stroke-width="0.35 px" style="stroke-width:0.35;stroke-miterlimit:4;stroke-dasharray:none;stroke-linecap:square;fill:none;fill-opacity:1;fill-rule: evenodd"/>
<path id="Sketch126_w0016"  d="M -70.00000000000895 15.0 L -70.00000000000895 13.0 L -50.0 13.0 L -50.0 15.0 L -70.00000000000895 15.0 " stroke="#000000" stroke-width="0.35 px" style="stroke-width:0.35;stroke-miterlimit:4;stroke-dasharray:none;stroke-linecap:square;fill:none;fill-opacity:1;fill-rule: evenodd"/>
<path id="Sketch126_w0017"  d="M -70.0 31.0 L -70.0 29.0 L -50.0 29.0 L -50.0 31.0 L -70.0 31.0 " stroke="#000000" stroke-width="0.35 px" style="stroke-width:0.35;stroke-miterlimit:4;stroke-dasharray:none;stroke-linecap:square;fill:none;fill-opacity:1;fill-rule: evenodd"/>
<path id="Sketch126_w0018"  d="M -70.00000000001934 -9.0 L -70.00000000001934 -11.0 L -50.0 -11.0 L -50.0 -9.0 L -70.00000000001934 -9.0 " stroke="#000000" stroke-width="0.35 px" style="stroke-width:0.35;stroke-miterlimit:4;stroke-dasharray:none;stroke-linecap:square;fill:none;fill-opacity:1;fill-rule: evenodd"/>
<path id="Sketch126_w0019"  d="M -70.00000000002153 -25.0 L -70.00000000002153 -27.0 L -50.0 -27.0 L -50.0 -25.0 L -70.00000000002153 -25.0 " stroke="#000000" stroke-width="0.35 px" style="stroke-width:0.35;stroke-miterlimit:4;stroke-dasharray:none;stroke-linecap:square;fill:none;fill-opacity:1;fill-rule: evenodd"/>
<path id="Sketch126_w0020"  d="M -70.00000000002298 -50.0 L -70.00000000002298 -52.0 L -50.0 -52.0 L -50.0 -50.0 L -70.00000000002298 -50.0 " stroke="#000000" stroke-width="0.35 px" style="stroke-width:0.35;stroke-miterlimit:4;stroke-dasharray:none;stroke-linecap:square;fill:none;fill-opacity:1;fill-rule: evenodd"/>
<path id="Sketch126_w0021"  d="M -70.00000000002298 -66.0 L -70.00000000002298 -68.0 L -50.0 -68.0 L -50.0 -66.0 L -70.00000000002298 -66.0 " stroke="#000000" stroke-width="0.35 px" style="stroke-width:0.35;stroke-miterlimit:4;stroke-dasharray:none;stroke-linecap:square;fill:none;fill-opacity:1;fill-rule: evenodd"/>
<path id="Sketch126_w0022"  d="M 70.00000000002554 15.0 L 70.00000000002554 13.0 L 50.0 13.0 L 50.0 15.0 L 70.00000000002554 15.0 " stroke="#000000" stroke-width="0.35 px" style="stroke-width:0.35;stroke-miterlimit:4;stroke-dasharray:none;stroke-linecap:square;fill:none;fill-opacity:1;fill-rule: evenodd"/>
<path id="Sketch126_w0023"  d="M 70.00000000000072 31.0 L 70.00000000000072 29.0 L 50.0 29.0 L 50.0 31.0 L 70.00000000000072 31.0 " stroke="#000000" stroke-width="0.35 px" style="stroke-width:0.35;stroke-miterlimit:4;stroke-dasharray:none;stroke-linecap:square;fill:none;fill-opacity:1;fill-rule: evenodd"/>
<path id="Sketch126_w0024"  d="M 70.00000000002554 -9.000000000000002 L 70.00000000002554 -11.000000000000002 L 49.99999999997592 -11.000000000000002 L 49.99999999997592 -9.000000000000002 L 70.00000000002554 -9.000000000000002 " stroke="#000000" stroke-width="0.35 px" style="stroke-width:0.35;stroke-miterlimit:4;stroke-dasharray:none;stroke-linecap:square;fill:none;fill-opacity:1;fill-rule: evenodd"/>
<path id="Sketch126_w0025"  d="M 70.00000000005929 -25.0 L 70.00000000005929 -27.0 L 49.99999999997592 -27.0 L 49.99999999997592 -25.0 L 70.00000000005929 -25.0 " stroke="#000000" stroke-width="0.35 px" style="stroke-width:0.35;stroke-miterlimit:4;stroke-dasharray:none;stroke-linecap:square;fill:none;fill-opacity:1;fill-rule: evenodd"/>
<path id="Sketch126_w0026"  d="M 70.00000000005929 -50.0 L 70.00000000005929 -52.0 L 49.999999999941444 -52.0 L 49.999999999941444 -50.0 L 70.00000000005929 -50.0 " stroke="#000000" stroke-width="0.35 px" style="stroke-width:0.35;stroke-miterlimit:4;stroke-dasharray:none;stroke-linecap:square;fill:none;fill-opacity:1;fill-rule: evenodd"/>
<path id="Sketch126_w0027"  d="M 70.00000000009521 -66.0 L 70.00000000009521 -68.0 L 49.999999999941444 -68.0 L 49.999999999941444 -66.0 L 70.00000000009521 -66.0 " stroke="#000000" stroke-width="0.35 px" style="stroke-width:0.35;stroke-miterlimit:4;stroke-dasharray:none;stroke-linecap:square;fill:none;fill-opacity:1;fill-rule: evenodd"/>
<title>b'Sketch126'</title>
</g>
</svg>