<?xml version="1.0"?>
<!DOCTYPE svg PUBLIC "-//W3C//DTD SVG 1.1//EN" "http://www.w3.org/Graphics/SVG/1.1/DTD/svg11.dtd">
<svg width="42.84mm" height="112.64000000000001mm" viewBox="0 0 42.84 112.64000000000001" xmlns="http://www.w3.org/2000/svg" version="1.1">
<g id="Sketch125" transform="translate(42.420000,106.320000) scale(1,-1)">
<path id="Sketch125_w0000"  d="M 0.0 100.0 L 0.0 9.0 L -5.0 9.0 L -5.0 6.0 L 0.0 6.0 L 0.0 0.0 L -6.0 0.0 L -6.0 -5.9 L -12.0 -5.9 L -12.0 0.0 L -30.0 0.0 L -30.0 -5.9 L -36.0 -5.9 L -36.0 0.0 L -42.0 0.0 L -42.0 100.0 L -36.0 100.0 L -36.0 105.9 L -30.0 105.9 L -30.0 100.0 L -12.0 100.0 L -12.0 105.9 L -6.0 105.9 L -6.0 100.0 L 4e-16 100.0 " stroke="#000000" stroke-width="0.35 px" style="stroke-width:0.35;stroke-miterlimit:4;stroke-dasharray:none;stroke-linecap:square;fill:none;fill-opacity:1;fill-rule: evenodd"/>
<path id="Sketch125_w0001"  d="M -27.000000000000853 75.00000000000712 L -27.000000000000853 25.000000000007113 L -15.000000000000854 25.000000000007113 L -15.000000000000854 75.0000000000071 L -27.000000000000853 75.00000000000712 " stroke="#000000" stroke-width="0.35 px" style="stroke-width:0.35;stroke-miterlimit:4;stroke-dasharray:none;stroke-linecap:square;fill:none;fill-opacity:1;fill-rule: evenodd"/>
<title>b'Sketch125'</title>
</g>
</svg>