<?xml version="1.0"?>
<!DOCTYPE svg PUBLIC "-//W3C//DTD SVG 1.1//EN" "http://www.w3.org/Graphics/SVG/1.1/DTD/svg11.dtd">
<svg width="397.8mm" height="120.80000000000007mm" viewBox="0 0 397.8 120.80000000000007" xmlns="http://www.w3.org/2000/svg" version="1.1">
<g id="Sketch127" transform="translate(198.900000,39.400000) scale(1,-1)">
<path id="Sketch127_w0000"  d="M -189.0 35.50000000000006 L -195.0 35.50000000000006 L -195.0 17.000000000000057 L -192.0 17.000000000000057 L -192.0 14.000000000000057 L -195.0 14.000000000000057 L -195.0 -77.5 L 195.0 -77.5 L 195.0 14.0 L 192.0 14.0 L 192.0 17.0 L 195.0 17.0 L 195.0 35.5 L 189.0 35.5 L 185.8 35.5 L -185.8 35.5 L -189.0 35.50000000000006 " stroke="#000000" stroke-width="0.35 px" style="stroke-width:0.35;stroke-miterlimit:4;stroke-dasharray:none;stroke-linecap:square;fill:none;fill-opacity:1;fill-rule: evenodd"/>
<path id="Sketch127_w0001"  d="M -188.04359622797244 -63.10770518829288 L -191.13455887209747 -62.279484243964816 L -188.49460461205175 -52.42704081581632 L -185.40364196792672 -53.255261760144386 L -188.04359622797244 -63.10770518829288 " stroke="#000000" stroke-width="0.35 px" style="stroke-width:0.35;stroke-miterlimit:4;stroke-dasharray:none;stroke-linecap:square;fill:none;fill-opacity:1;fill-rule: evenodd"/>
<path id="Sketch127_w0002"  d="M -181.4877098155256 -38.64080400839078 L -184.5786724596506 -37.812583064062714 L -181.9387181996049 -27.96013963591422 L -178.84775555547986 -28.788360580242287 L -181.4877098155256 -38.64080400839078 " stroke="#000000" stroke-width="0.35 px" style="stroke-width:0.35;stroke-miterlimit:4;stroke-dasharray:none;stroke-linecap:square;fill:none;fill-opacity:1;fill-rule: evenodd"/>
<path id="Sketch127_w0003"  d="M -174.93182340307874 -14.173902828488682 L -178.02278604720374 -13.345681884160616 L -175.38283178715804 -3.4932384560121204 L -172.291869143033 -4.321459400340187 L -174.93182340307874 -14.173902828488682 " stroke="#000000" stroke-width="0.35 px" style="stroke-width:0.35;stroke-miterlimit:4;stroke-dasharray:none;stroke-linecap:square;fill:none;fill-opacity:1;fill-rule: evenodd"/>
<path id="Sketch127_w0004"  d="M -168.37593699063189 10.292998351413418 L -171.46689963475689 11.121219295741485 L -168.8269453747112 20.97366272388998 L -165.73598273058616 20.145441779561914 L -168.37593699063189 10.292998351413418 " stroke="#000000" stroke-width="0.35 px" style="stroke-width:0.35;stroke-miterlimit:4;stroke-dasharray:none;stroke-linecap:square;fill:none;fill-opacity:1;fill-rule: evenodd"/>
<path id="Sketch127_w0005"  d="M 188.04359622797244 -63.10770518829288 L 191.13455887209747 -62.279484243964816 L 188.49460461205175 -52.42704081581632 L 185.40364196792672 -53.255261760144386 L 188.04359622797244 -63.10770518829288 " stroke="#000000" stroke-width="0.35 px" style="stroke-width:0.35;stroke-miterlimit:4;stroke-dasharray:none;stroke-linecap:square;fill:none;fill-opacity:1;fill-rule: evenodd"/>
<path id="Sketch127_w0006"  d="M 181.4877098155256 -38.64080400839078 L 184.5786724596506 -37.812583064062714 L 181.9387181996049 -27.96013963591422 L 178.84775555547986 -28.788360580242287 L 181.4877098155256 -38.64080400839078 " stroke="#000000" stroke-width="0.35 px" style="stroke-width:0.35;stroke-miterlimit:4;stroke-dasharray:none;stroke-linecap:square;fill:none;fill-opacity:1;fill-rule: evenodd"/>
<path id="Sketch127_w0007"  d="M 174.93182340307874 -14.173902828488682 L 178.02278604720374 -13.345681884160616 L 175.38283178715804 -3.493238456012122 L 172.291869143033 -4.321459400340188 L 174.93182340307874 -14.173902828488682 " stroke="#000000" stroke-width="0.35 px" style="stroke-width:0.35;stroke-miterlimit:4;stroke-dasharray:none;stroke-linecap:square;fill:none;fill-opacity:1;fill-rule: evenodd"/>
<path id="Sketch127_w0008"  d="M 168.37593699063189 10.292998351413416 L 171.46689963475689 11.121219295741485 L 168.8269453747112 20.97366272388998 L 165.73598273058616 20.145441779561914 L 168.37593699063189 10.292998351413416 " stroke="#000000" stroke-width="0.35 px" style="stroke-width:0.35;stroke-miterlimit:4;stroke-dasharray:none;stroke-linecap:square;fill:none;fill-opacity:1;fill-rule: evenodd"/>
<path id="Sketch127_w0009"  d="M -169.84735565801603 29.529290278530592 L -166.756393013891 28.701069334202526 L -168.36107109352665 22.712329211210303 L -171.45203373765165 23.54055015553837 L -169.84735565801603 29.529290278530592 " stroke="#000000" stroke-width="0.35 px" style="stroke-width:0.35;stroke-miterlimit:4;stroke-dasharray:none;stroke-linecap:square;fill:none;fill-opacity:1;fill-rule: evenodd"/>
<path id="Sketch127_w0010"  d="M -176.05901274047653 6.34707044759295 L -177.66369082011215 0.35833032460072634 L -174.57272817598715 -0.4698906197273405 L -172.9680500963515 5.518849503264882 L -176.05901274047653 6.34707044759295 " stroke="#000000" stroke-width="0.35 px" style="stroke-width:0.35;stroke-miterlimit:4;stroke-dasharray:none;stroke-linecap:square;fill:none;fill-opacity:1;fill-rule: evenodd"/>
<path id="Sketch127_w0011"  d="M 172.96805009635153 5.518849503264888 L 174.57272817598718 -0.4698906197273356 L 177.66369082011218 0.3583303246007312 L 176.05901274047656 6.347070447592955 L 172.96805009635153 5.518849503264888 " stroke="#000000" stroke-width="0.35 px" style="stroke-width:0.35;stroke-miterlimit:4;stroke-dasharray:none;stroke-linecap:square;fill:none;fill-opacity:1;fill-rule: evenodd"/>
<path id="Sketch127_w0012"  d="M 168.36107109352668 22.712329211210303 L 171.4520337376517 23.54055015553837 L 169.84735565801606 29.529290278530592 L 166.75639301389106 28.701069334202526 L 168.36107109352668 22.712329211210303 " stroke="#000000" stroke-width="0.35 px" style="stroke-width:0.35;stroke-miterlimit:4;stroke-dasharray:none;stroke-linecap:square;fill:none;fill-opacity:1;fill-rule: evenodd"/>
<path id="Sketch127_w0013"  d="M -155.0 26.0 L -155.0 18.0 L -70.0 18.0 L -70.0 13.0 L 70.0 13.0 L 69.99999999999999 18.0 L 155.0 18.0 L 155.0 26.0 L 69.99999999999999 26.0 L 69.99999999999999 31.0 L -70.00000000000001 31.0 L -70.00000000000001 26.0 L -155.0 26.0 " stroke="#000000" stroke-width="0.35 px" style="stroke-width:0.35;stroke-miterlimit:4;stroke-dasharray:none;stroke-linecap:square;fill:none;fill-opacity:1;fill-rule: evenodd"/>
<path id="Sketch127_w0014"  d="M -155.0 -14.0 L -155.0 -22.0 L -70.00000000000001 -22.0 L -70.00000000000001 -27.0 L 69.99999999999999 -27.0 L 69.99999999999999 -22.0 L 155.0 -22.0 L 155.0 -14.0 L 69.99999999999999 -14.0 L 69.99999999999999 -9.0 L -70.00000000000001 -9.0 L -70.00000000000001 -14.0 L -155.0 -14.0 " stroke="#000000" stroke-width="0.35 px" style="stroke-width:0.35;stroke-miterlimit:4;stroke-dasharray:none;stroke-linecap:square;fill:none;fill-opacity:1;fill-rule: evenodd"/>
<path id="Sketch127_w0015"  d="M -155.0 -55.0 L -155.0 -63.0 L -70.0 -63.0 L -70.0 -68.0 L 70.0 -68.0 L 69.99999999999999 -63.0 L 155.0 -63.0 L 155.0 -55.0 L 69.99999999999999 -55.0 L 69.99999999999999 -50.0 L -70.00000000000001 -50.0 L -70.00000000000001 -55.0 L -155.0 -55.0 " stroke="#000000" stroke-width="0.35 px" style="stroke-width:0.35;stroke-miterlimit:4;stroke-dasharray:none;stroke-linecap:square;fill:none;fill-opacity:1;fill-rule: evenodd"/>
<path id="Sketch127_w0016"  d="M -125.0 3.5999999999999996 L -125.0 0.39999999999999947 L 125.0 0.39999999999999947 L 125.0 3.5999999999999996 L -125.0 3.5999999999999996 " stroke="#000000" stroke-width="0.35 px" style="stroke-width:0.35;stroke-miterlimit:4;stroke-dasharray:none;stroke-linecap:square;fill:none;fill-opacity:1;fill-rule: evenodd"/>
<path id="Sketch127_w0017"  d="M -125.0 -36.9 L -125.0 -40.099999999999994 L 125.0 -40.099999999999994 L 125.0 -36.9 L -125.0 -36.9 " stroke="#000000" stroke-width="0.35 px" style="stroke-width:0.35;stroke-miterlimit:4;stroke-dasharray:none;stroke-linecap:square;fill:none;fill-opacity:1;fill-rule: evenodd"/>
<title>b'Sketch127'</title>
</g>
</svg>