<?xml version="1.0"?>
<!DOCTYPE svg PUBLIC "-//W3C//DTD SVG 1.1//EN" "http://www.w3.org/Graphics/SVG/1.1/DTD/svg11.dtd">
<svg width="118.32mm" height="114.12mm" viewBox="0 0 118.32 114.12" xmlns="http://www.w3.org/2000/svg" version="1.1">
<g id="Sketch124" transform="translate(1.160000,107.060000) scale(1,-1)">
<path id="Sketch124_w0000"  d="M 0.0 100.0 L 0.0 0.0 L 15.0 0.0 L 15.0 -5.899999999999997 L 25.0 -5.899999999999997 L 25.0 0.0 L 40.333333333333336 0.0 L 40.333333333333336 -5.899999999999998 L 50.333333333333336 -5.899999999999998 L 50.333333333333336 0.0 L 65.66666666666667 0.0 L 65.66666666666667 -5.899999999999999 L 75.66666666666667 -5.899999999999999 L 75.66666666666667 0.0 L 91.0 0.0 L 91.0 -5.9 L 101.0 -5.9 L 101.0 0.0 L 116.0 0.0 L 116.0 6.0 L 109.8 6.0 L 109.8 9.0 L 116.0 9.0 L 116.0 100.0 L 101.0 100.0 L 101.0 105.9 L 91.0 105.9 L 91.0 100.0 L 75.66666666666667 100.0 L 75.66666666666667 105.9 L 65.66666666666667 105.9 L 65.66666666666667 100.0 L 50.333333333333336 100.0 L 50.333333333333336 105.9 L 40.333333333333336 105.9 L 40.333333333333336 100.0 L 25.0 100.0 L 25.0 105.9 L 15.0 105.9 L 15.0 100.0 L 0.0 100.0 " stroke="#000000" stroke-width="0.35 px" style="stroke-width:0.35;stroke-miterlimit:4;stroke-dasharray:none;stroke-linecap:square;fill:none;fill-opacity:1;fill-rule: evenodd"/>
<title>b'Sketch124'</title>
</g>
</svg>