<?xml version="1.0"?>
<!DOCTYPE svg PUBLIC "-//W3C//DTD SVG 1.1//EN" "http://www.w3.org/Graphics/SVG/1.1/DTD/svg11.dtd">
<svg width="329.46mm" height="112.25999999999999mm" viewBox="0 0 329.46 112.25999999999999" xmlns="http://www.w3.org/2000/svg" version="1.1">
<g id="Sketch129" transform="translate(164.730000,106.130000) scale(1,-1)">
<path id="Sketch129_w0000"  d="M -161.5 102.89999999999998 L -161.5 -2.900000000000006 L -112.5 -2.900000000000006 L -112.5 23.700000000000003 M -112.5 23.700000000000003 L -112.4991611470162 23.80032712560095 L -112.49664482262288 23.900626197965682 L -112.49245173042881 24.000869171702146 L -112.48658304289661 24.101028017104472 L -112.47904040101497 24.20107472799055 L -112.46982591383976 24.30098132953307 L -112.45894215790433 24.400719886081756 L -112.44639217649909 24.500262508974693 L -112.43217947882046 24.599581364336466 L -112.41630803898974 24.698648680861027 L -112.3987822949418 24.797436757577017 L -112.37960714718422 24.89591797159346 L -112.35878795742697 24.994064785823614 L -112.3363305470832 25.09184975668483 L -112.31224119564145 25.18924554177224 L -112.28652663890985 25.28622490750421 L -112.2591940671326 25.382760736737296 L -112.23025112297951 25.478826036348696 L -112.19970589940894 25.574393944784013 L -112.16756693740484 25.669437739568195 L -112.13384322358863 25.76393084477762 L -112.09854418770628 25.857846838471207 L -112.06167969999166 25.951159460078447 L -112.0232600684066 26.043842617742314 L -111.98329603575863 26.13587039561503 L -111.9417987766971 26.227217061104568 L -111.89877989458853 26.317857072069962 L -111.85425141827213 26.407765083963326 L -111.80822579869631 26.496915956916645 L -111.76071590543717 26.58528476277133 L -111.71173502309995 26.672846792048553 L -111.66129684760442 26.75957756085847 L -111.60941548235525 26.84545281774635 L -111.55610543429846 26.930448550473702 L -111.50138160986499 27.01454099273252 L -111.44525931080267 27.097706630790775 L -111.38775422989748 27.179922210067247 L -111.32888244658568 27.26116474163394 L -111.26866042245761 27.34141150864419 L -111.20710499665485 27.420640072684673 L -111.14423338116156 27.498828280049608 L -111.08006315599185 27.575954267935316 L -111.01461226427399 27.651996470553435 L -110.94789900723327 27.72693362516112 L -110.87994203907459 27.800744778006447 L -110.81076036176644 27.873409290187492 L -110.74037331972765 27.944906843423297 L -110.66880059441829 28.01521744573524 L -110.59606219883642 28.084321437037136 L -110.5221784719221 28.152199494632562 L -110.44717007287025 28.218832638617794 L -110.371057975354 28.284202237188953 L -110.29386346166005 28.34829001185176 L -110.21560811673777 28.411078042532562 L -110.1363138221637 28.47254877258905 L -110.05600275002304 28.53268501371946 L -109.97469735670994 28.591469950768683 L -109.89242037664835 28.648887146430102 L -109.809194815935 28.704920545841755 L -109.72504394590653 28.759554481075547 L -109.63999129663243 28.812773675518272 L -109.55406065033556 28.864563248143256 L -109.46727603474226 28.914908717671317 L -109.37966171636378 28.963796006620015 L -109.29124219371093 29.011211445239947 L -109.20204219044385 29.05714177533705 L -109.11208664845883 29.101574153979854 L -109.02140072091413 29.14449615709055 L -108.93000976519671 29.185895782919015 L -108.8379393358319 29.225761455398693 L -108.74521517733783 29.264082027383488 L -108.6518632170268 29.300846783764673 L -108.55790955775568 29.336045444467057 L -108.4633804706269 29.369668167323454 L -108.36830238764276 29.401705550826737 L -108.27270189431442 29.432148636758654 L -108.17660572222829 29.460988912694713 L -108.08004074157122 29.488218314384408 L -107.9830339536173 29.513829228006124 L -107.88561248317767 29.53781449229609 L -107.78780357101608 29.560167400550796 L -107.68963456623179 29.580881702502317 L -107.59113291861232 29.599951606065986 L -107.49232617095801 29.617371778959967 L -107.39324195138057 29.633137350196257 L -107.29390796557773 29.6472439114427 L -107.1943519890863 29.65968751825563 L -107.09460185951558 29.670464691182808 L -106.99468546876352 29.679572416736356 L -106.89463075521762 29.687008148235343 L -106.79446569594288 29.692769806517926 L -106.69421829885891 29.69685578052269 L -106.59391659490845 29.699264927739133 L -106.49358863021936 29.69999657452715 L -106.3932624582625 29.699050516305384 L -106.29296613200742 29.696427017608407 L -106.19272769607832 29.692126812012802 L -106.09257517891221 29.686151101931994 L -105.99253658492171 29.67850155828006 L -105.89263988666453 29.66918032000451 L -105.79291301702177 29.65818999348819 L -105.69338386138752 29.645533651820493 L -105.59408024987148 29.63121483393808 L -105.49502994951727 29.615237543635317 L -105.39626065653823 29.597606248444755 L -64.8 22.0 L -64.8 6.5 L -37.800000000000004 6.5 L -33.8 10.5 L -26.5 10.5 L -22.0 6.0 L -22.0 0.0 L 60.80000000000001 0.0 L 60.80000000000001 21.3 L 106.80000000000001 30.5 L 127.5 30.5 L 127.5 43.1 L 153.5 43.1 L 153.5 -2.899999999999999 L 161.5 -2.899999999999999 L 161.5 102.89999999999998 L -161.5 102.89999999999998 " stroke="#000000" stroke-width="0.35 px" style="stroke-width:0.35;stroke-miterlimit:4;stroke-dasharray:none;stroke-linecap:square;fill:none;fill-opacity:1;fill-rule: evenodd"/>
<path id="Sketch129_w0001"  d="M 119.0 82.0 L 119.0 62.0 L 157.0 62.0 L 157.0 82.0 L 119.0 82.0 " stroke="#000000" stroke-width="0.35 px" style="stroke-width:0.35;stroke-miterlimit:4;stroke-dasharray:none;stroke-linecap:square;fill:none;fill-opacity:1;fill-rule: evenodd"/>
<title>b'Sketch129'</title>
</g>
</svg>