<?xml version="1.0"?>
<!DOCTYPE svg PUBLIC "-//W3C//DTD SVG 1.1//EN" "http://www.w3.org/Graphics/SVG/1.1/DTD/svg11.dtd">
<svg width="397.8mm" height="120.80000000000007mm" viewBox="0 0 397.8 120.80000000000007" xmlns="http://www.w3.org/2000/svg" version="1.1">
<g id="Sketch122" transform="translate(198.900000,39.400000) scale(1,-1)">
<path id="Sketch122_w0000"  d="M -189.0 35.50000000000007 L -195.0 35.50000000000007 L -195.0 -11.299999999999997 L -185.8 -11.299999999999997 L -185.8 -20.5 L -185.8 -35.5 L -189.0 -35.5 L -189.0 -20.5 L -195.0 -20.5 L -195.0 -77.5 L 195.0 -77.5 L 195.0 -20.5 L 189.0 -20.5 L 189.0 -35.5 L 185.8 -35.5 L 185.8 -20.5 L 185.8 -11.299999999999999 L 195.0 -11.299999999999999 L 195.0 35.5 L 189.0 35.5 L 189.0 20.5 L 185.8 20.5 L 185.8 35.5 L 162.0 35.5 L 162.0 32.5 L 153.0 32.5 L 153.0 35.5 L -112.0 35.5 L -112.0 32.5 L -162.0 32.5 L -162.0 35.5 L -185.8 35.5 L -185.8 20.5 L -189.0 20.5 L -189.0 35.50000000000007 " stroke="#000000" stroke-width="0.35 px" style="stroke-width:0.35;stroke-miterlimit:4;stroke-dasharray:none;stroke-linecap:square;fill:none;fill-opacity:1;fill-rule: evenodd"/>
<path id="Sketch122_w0001"  d="M -188.04359622797244 -63.10770518829288 L -191.13455887209744 -62.279484243964816 L -188.49460461205175 -52.42704081581632 L -185.40364196792672 -53.255261760144386 L -188.04359622797244 -63.10770518829288 " stroke="#000000" stroke-width="0.35 px" style="stroke-width:0.35;stroke-miterlimit:4;stroke-dasharray:none;stroke-linecap:square;fill:none;fill-opacity:1;fill-rule: evenodd"/>
<path id="Sketch122_w0002"  d="M -181.4877098155256 -38.64080400839078 L -184.5786724596506 -37.812583064062714 L -181.9387181996049 -27.96013963591422 L -178.84775555547986 -28.78836058024229 L -181.4877098155256 -38.64080400839078 " stroke="#000000" stroke-width="0.35 px" style="stroke-width:0.35;stroke-miterlimit:4;stroke-dasharray:none;stroke-linecap:square;fill:none;fill-opacity:1;fill-rule: evenodd"/>
<path id="Sketch122_w0003"  d="M -174.93182340307874 -14.173902828488682 L -178.02278604720374 -13.345681884160618 L -175.38283178715804 -3.493238456012122 L -172.291869143033 -4.321459400340189 L -174.93182340307874 -14.173902828488682 " stroke="#000000" stroke-width="0.35 px" style="stroke-width:0.35;stroke-miterlimit:4;stroke-dasharray:none;stroke-linecap:square;fill:none;fill-opacity:1;fill-rule: evenodd"/>
<path id="Sketch122_w0004"  d="M -168.37593699063189 10.292998351413416 L -171.46689963475689 11.121219295741481 L -168.8269453747112 20.973662723889976 L -165.73598273058616 20.14544177956191 L -168.37593699063189 10.292998351413416 " stroke="#000000" stroke-width="0.35 px" style="stroke-width:0.35;stroke-miterlimit:4;stroke-dasharray:none;stroke-linecap:square;fill:none;fill-opacity:1;fill-rule: evenodd"/>
<path id="Sketch122_w0005"  d="M 188.04359622797244 -63.10770518829288 L 191.13455887209747 -62.279484243964816 L 188.49460461205175 -52.42704081581632 L 185.40364196792672 -53.255261760144386 L 188.04359622797244 -63.10770518829288 " stroke="#000000" stroke-width="0.35 px" style="stroke-width:0.35;stroke-miterlimit:4;stroke-dasharray:none;stroke-linecap:square;fill:none;fill-opacity:1;fill-rule: evenodd"/>
<path id="Sketch122_w0006"  d="M 181.4877098155256 -38.64080400839078 L 184.57867245965062 -37.812583064062714 L 181.9387181996049 -27.96013963591422 L 178.84775555547986 -28.788360580242287 L 181.4877098155256 -38.64080400839078 " stroke="#000000" stroke-width="0.35 px" style="stroke-width:0.35;stroke-miterlimit:4;stroke-dasharray:none;stroke-linecap:square;fill:none;fill-opacity:1;fill-rule: evenodd"/>
<path id="Sketch122_w0007"  d="M 174.93182340307874 -14.173902828488682 L 178.02278604720377 -13.345681884160614 L 175.38283178715804 -3.4932384560121186 L 172.291869143033 -4.321459400340186 L 174.93182340307874 -14.173902828488682 " stroke="#000000" stroke-width="0.35 px" style="stroke-width:0.35;stroke-miterlimit:4;stroke-dasharray:none;stroke-linecap:square;fill:none;fill-opacity:1;fill-rule: evenodd"/>
<path id="Sketch122_w0008"  d="M 168.37593699063189 10.29299835141342 L 171.4668996347569 11.121219295741486 L 168.8269453747112 20.97366272388998 L 165.73598273058616 20.145441779561914 L 168.37593699063189 10.29299835141342 " stroke="#000000" stroke-width="0.35 px" style="stroke-width:0.35;stroke-miterlimit:4;stroke-dasharray:none;stroke-linecap:square;fill:none;fill-opacity:1;fill-rule: evenodd"/>
<path id="Sketch122_w0009"  d="M -169.84735565801603 29.529290278530585 L -166.756393013891 28.70106933420252 L -168.36107109352662 22.712329211210296 L -171.45203373765165 23.540550155538362 L -169.84735565801603 29.529290278530585 " stroke="#000000" stroke-width="0.35 px" style="stroke-width:0.35;stroke-miterlimit:4;stroke-dasharray:none;stroke-linecap:square;fill:none;fill-opacity:1;fill-rule: evenodd"/>
<path id="Sketch122_w0010"  d="M -176.0590127404765 6.347070447592944 L -177.66369082011215 0.3583303246007201 L -174.57272817598712 -0.4698906197273468 L -172.9680500963515 5.518849503264876 L -176.0590127404765 6.347070447592944 " stroke="#000000" stroke-width="0.35 px" style="stroke-width:0.35;stroke-miterlimit:4;stroke-dasharray:none;stroke-linecap:square;fill:none;fill-opacity:1;fill-rule: evenodd"/>
<path id="Sketch122_w0011"  d="M 172.96805009635156 5.518849503264878 L 174.57272817598718 -0.46989061972734536 L 177.6636908201122 0.3583303246007208 L 176.05901274047656 6.3470704475929445 L 172.96805009635156 5.518849503264878 " stroke="#000000" stroke-width="0.35 px" style="stroke-width:0.35;stroke-miterlimit:4;stroke-dasharray:none;stroke-linecap:square;fill:none;fill-opacity:1;fill-rule: evenodd"/>
<path id="Sketch122_w0012"  d="M 168.36107109352668 22.712329211210296 L 171.4520337376517 23.540550155538362 L 169.84735565801606 29.529290278530585 L 166.75639301389106 28.70106933420252 L 168.36107109352668 22.712329211210296 " stroke="#000000" stroke-width="0.35 px" style="stroke-width:0.35;stroke-miterlimit:4;stroke-dasharray:none;stroke-linecap:square;fill:none;fill-opacity:1;fill-rule: evenodd"/>
<circle cx="-180.0" cy="31.5" r="2.0" stroke="#000000" stroke-width="0.35 px" style="stroke-width:0.35;stroke-miterlimit:4;stroke-dasharray:none;stroke-linecap:square;fill:none"/>
<circle cx="180.0" cy="31.5" r="2.0" stroke="#000000" stroke-width="0.35 px" style="stroke-width:0.35;stroke-miterlimit:4;stroke-dasharray:none;stroke-linecap:square;fill:none"/>
<circle cx="0.0" cy="31.5" r="2.0" stroke="#000000" stroke-width="0.35 px" style="stroke-width:0.35;stroke-miterlimit:4;stroke-dasharray:none;stroke-linecap:square;fill:none"/>
<path id="Sketch122_w0016"  d="M 141.0 14.500000000000002 L 141.0 9.500000000000002 L 156.0 9.500000000000002 L 156.0 14.500000000000002 L 141.0 14.500000000000002 " stroke="#000000" stroke-width="0.35 px" style="stroke-width:0.35;stroke-miterlimit:4;stroke-dasharray:none;stroke-linecap:square;fill:none;fill-opacity:1;fill-rule: evenodd"/>
<path id="Sketch122_w0017"  d="M -60.0 15.50000000000007 L -45.0 15.50000000000007 L -45.0 10.50000000000007 L -60.0 10.50000000000007 L -60.0 15.50000000000007 " stroke="#000000" stroke-width="0.35 px" style="stroke-width:0.35;stroke-miterlimit:4;stroke-dasharray:none;stroke-linecap:square;fill:none;fill-opacity:1;fill-rule: evenodd"/>
<path id="Sketch122_w0018"  d="M 56.0 -57.5 L 61.0 -57.5 L 61.0 -42.5 L 56.0 -42.5 L 56.0 -57.5 " stroke="#000000" stroke-width="0.35 px" style="stroke-width:0.35;stroke-miterlimit:4;stroke-dasharray:none;stroke-linecap:square;fill:none;fill-opacity:1;fill-rule: evenodd"/>
<path id="Sketch122_w0019"  d="M 86.0 -29.5 L 91.0 -29.5 L 91.0 -14.5 L 86.0 -14.5 L 86.0 -29.5 " stroke="#000000" stroke-width="0.35 px" style="stroke-width:0.35;stroke-miterlimit:4;stroke-dasharray:none;stroke-linecap:square;fill:none;fill-opacity:1;fill-rule: evenodd"/>
<path id="Sketch122_w0020"  d="M -160.0 15.50000000000007 L -160.0 10.50000000000007 L -116.0 10.50000000000007 L -116.0 15.50000000000007 L -160.0 15.50000000000007 " stroke="#000000" stroke-width="0.35 px" style="stroke-width:0.35;stroke-miterlimit:4;stroke-dasharray:none;stroke-linecap:square;fill:none;fill-opacity:1;fill-rule: evenodd"/>
<path id="Sketch122_w0021"  d="M 111.99999999999999 -24.5 L 111.99999999999999 -29.5 L 116.99999999999999 -29.5 L 116.99999999999999 -24.5 L 111.99999999999999 -24.5 " stroke="#000000" stroke-width="0.35 px" style="stroke-width:0.35;stroke-miterlimit:4;stroke-dasharray:none;stroke-linecap:square;fill:none;fill-opacity:1;fill-rule: evenodd"/>
<path id="Sketch122_w0022"  d="M 122.99999999999999 -24.5 L 122.99999999999999 -29.5 L 127.99999999999999 -29.5 L 127.99999999999999 -24.5 L 122.99999999999999 -24.5 " stroke="#000000" stroke-width="0.35 px" style="stroke-width:0.35;stroke-miterlimit:4;stroke-dasharray:none;stroke-linecap:square;fill:none;fill-opacity:1;fill-rule: evenodd"/>
<path id="Sketch122_w0023"  d="M -38.0 -24.5 L -38.0 -29.5 L -33.0 -29.5 L -33.0 -24.5 L -38.0 -24.5 " stroke="#000000" stroke-width="0.35 px" style="stroke-width:0.35;stroke-miterlimit:4;stroke-dasharray:none;stroke-linecap:square;fill:none;fill-opacity:1;fill-rule: evenodd"/>
<path id="Sketch122_w0024"  d="M -27.0 -24.5 L -27.0 -29.5 L -22.0 -29.5 L -22.0 -24.5 L -27.0 -24.5 " stroke="#000000" stroke-width="0.35 px" style="stroke-width:0.35;stroke-miterlimit:4;stroke-dasharray:none;stroke-linecap:square;fill:none;fill-opacity:1;fill-rule: evenodd"/>
<title>b'Sketch122'</title>
</g>
</svg>