<?xml version="1.0" encoding="UTF-8" standalone="no"?>
<!-- Created with Inkscape (http://www.inkscape.org/) -->

<svg
   width="400mm"
   height="300mm"
   viewBox="0 0 400 300"
   version="1.1"
   id="svg1"
   inkscape:version="1.3.2 (1:1.3.2+202311252150+091e20ef0f)"
   xml:space="preserve"
   sodipodi:docname="devil.svg"
   xmlns:inkscape="http://www.inkscape.org/namespaces/inkscape"
   xmlns:sodipodi="http://sodipodi.sourceforge.net/DTD/sodipodi-0.dtd"
   xmlns="http://www.w3.org/2000/svg"
   xmlns:svg="http://www.w3.org/2000/svg"><sodipodi:namedview
     id="namedview1"
     pagecolor="#ffffff"
     bordercolor="#000000"
     borderopacity="0.25"
     inkscape:showpageshadow="2"
     inkscape:pageopacity="0.0"
     inkscape:pagecheckerboard="0"
     inkscape:deskcolor="#d1d1d1"
     inkscape:document-units="mm"
     showgrid="false"
     inkscape:zoom="0.68285966"
     inkscape:cx="174.26714"
     inkscape:cy="194.03694"
     inkscape:window-width="1920"
     inkscape:window-height="1009"
     inkscape:window-x="0"
     inkscape:window-y="1080"
     inkscape:window-maximized="1"
     inkscape:current-layer="layer1"><inkscape:grid
       id="grid1"
       units="mm"
       originx="0"
       originy="0"
       spacingx="0.99999999"
       spacingy="0.99999999"
       empcolor="#3f3fff"
       empopacity="0.25098039"
       color="#3f3fff"
       opacity="0.1254902"
       empspacing="5"
       dotted="false"
       gridanglex="30"
       gridanglez="30"
       visible="false" /></sodipodi:namedview><defs
     id="defs1" /><g
     inkscape:label="Ebene 1"
     inkscape:groupmode="layer"
     id="layer1"><g
       id="g1"
       transform="translate(-104,-9)"><g
         id="g2"
         transform="translate(80)"><path
           sodipodi:type="star"
           style="fill:#f2f2f2;stroke:#0000ff;stroke-width:0.178429;stroke-linecap:round;stroke-dasharray:none;stroke-opacity:0.997898"
           id="path2"
           inkscape:flatsided="true"
           sodipodi:sides="6"
           sodipodi:cx="9"
           sodipodi:cy="40"
           sodipodi:r1="3.6055515"
           sodipodi:r2="3.122499"
           sodipodi:arg1="1.0471976"
           sodipodi:arg2="1.5707963"
           inkscape:rounded="0"
           inkscape:randomized="0"
           d="m 10.802776,43.122499 -3.6055519,0 L 5.3944485,40 l 1.8027759,-3.122499 3.6055516,0 L 12.605551,40 Z"
           transform="matrix(1.120897,0,0,1.120897,44.911927,-4.8358797)" /><circle
           style="fill:none;stroke:#0000ff;stroke-width:0.2;stroke-linecap:round;stroke-dasharray:none;stroke-opacity:0.997898"
           id="path1"
           cx="55"
           cy="40"
           r="27" /></g><path
         id="path17"
         style="color:#000000;fill:#000000;stroke:#000000;stroke-width:0.1;stroke-dasharray:none"
         d="m 138.06157,13.094677 c -0.25116,0.0084 -0.40007,0.05787 -0.51056,0.161747 -0.11049,0.103887 -0.17198,0.249977 -0.18965,0.411861 -0.0234,0.214692 0.10818,0.539871 0.20722,0.841809 0.2155,0.979286 0.0983,1.861757 -0.0816,2.725932 -0.0755,0.350984 -0.32419,1.072439 -0.61598,1.805575 -0.10106,-0.0084 -0.19429,0.0082 -0.71572,0.0067 -2.41227,-0.02111 -4.32957,0.213075 -6.13193,0.567407 -1.74225,0.34103 -3.29668,0.965708 -4.74803,1.810742 l -0.76951,-0.992187 -0.58963,-0.443384 c -0.39072,-0.293968 -0.74706,-0.852897 -1.002,-1.424203 -0.25493,-0.571289 -0.41359,-1.159213 -0.44959,-1.476395 -0.0207,-0.182272 -0.0454,-0.327225 -0.0858,-0.447001 -0.0404,-0.119792 -0.0953,-0.240653 -0.23823,-0.295073 -0.0715,-0.02721 -0.1538,-0.02053 -0.21652,0.0021 -0.0627,0.02243 -0.11315,0.05544 -0.15865,0.0956 -0.091,0.08033 -0.17114,0.188719 -0.26355,0.330212 -0.15442,0.236415 -0.24341,0.616211 -0.33383,1.152384 -0.0904,0.53619 -0.16452,1.215469 -0.21497,1.978174 -0.0993,1.500833 -0.10037,3.324911 0.045,5.005896 -1.49292,1.613103 -4.4111,5.928321 -4.4111,5.928321 0,0 -0.2411,-0.2957 -0.66301,-0.721403 -0.51338,-0.518036 -1.40959,-1.167037 -1.94562,-1.486215 -0.51414,-0.306119 -1.12275,-0.684457 -1.33377,-0.826306 -0.30716,-0.206471 -0.56673,-0.323891 -0.82217,-0.306441 -0.12772,0.0087 -0.25254,0.06246 -0.34365,0.152445 -0.0911,0.08999 -0.14878,0.205842 -0.18397,0.337964 -0.14075,0.528487 0.001,1.370079 0.35761,2.623096 0.10926,0.384063 0.25641,1.60119 0.30075,2.613277 0.0749,1.709035 0.76477,3.718704 1.59784,5.34541 0.41652,0.81337 0.86998,1.52981 1.30638,2.064474 0.43638,0.534647 1.3255,0.915706 1.3255,0.915706 0,0 0.45658,1.031502 0.7059,1.764234 0.089,0.261627 0.0979,0.69267 0.0408,1.189074 -0.0571,0.49642 -0.17402,1.058855 -0.30076,1.60352 -0.12674,0.544665 -0.26338,1.072152 -0.36328,1.507918 -0.0499,0.217891 -0.092,0.412341 -0.11731,0.57826 -0.0253,0.165904 -0.0394,0.297048 -0.0176,0.423746 l 0.36535,2.121318 c 0.51558,2.99676 1.2856,4.617097 3.10369,6.880717 l 0.52141,0.650606 -0.71882,1.240234 1.78543,-0.486792 c -0.0137,0.004 0.15021,-0.01668 0.38447,-0.0021 0.23427,0.0152 0.56373,0.0548 0.98443,0.136426 0.36812,0.0715 0.7461,0.135481 1.0604,0.181901 0.31431,0.0464 0.55058,0.0756 0.69557,0.0739 0.12403,-0.001 0.19598,0.01611 0.293,0.07441 0.097,0.0583 0.21913,0.169461 0.38448,0.357601 2.17558,2.47539 3.64298,3.311777 7.15047,4.077787 2.38354,0.52054 4.54744,-0.275779 5.95312,-2.357479 0.35751,-0.52947 0.61191,-0.863643 0.79685,-1.040763 0.18494,-0.17713 0.25753,-0.189506 0.34778,-0.170016 0.11347,0.0245 0.24854,0.01848 0.36897,-0.04082 0.12044,-0.0594 0.22049,-0.156316 0.32453,-0.293006 0.20809,-0.27338 0.44552,-0.721095 0.82217,-1.474845 0.42457,-0.8496 1.54822,-1.926367 2.81844,-2.578137 1.27021,-0.65178 2.65639,-0.88025 3.67574,-0.19327 l 0.55449,0.375171 -0.25787,-0.619084 c -0.2065,-0.49171 -0.17572,-0.883727 0.002,-1.254187 0.17763,-0.37044 0.51816,-0.714839 0.93948,-1.035079 0.84262,-0.64045 3.95428,-2.336291 3.95428,-2.336291 0,0 -0.97348,-0.433395 -0.90744,-0.697115 0.13835,-0.55245 0.21324,-0.874293 0.2403,-1.126547 0.0271,-0.252244 -0.0977,-0.864546 -0.0977,-0.864546 0,0 0.42111,-0.258427 0.80667,-0.555522 1.89294,-1.458521 3.70469,-3.6316 4.80487,-5.763989 0.50025,-0.96957 1.01736,-3.121173 1.25006,-5.081861 0.21013,-1.770523 -1.28468,-4.995043 -1.28468,-4.995043 0.37464,-0.503541 0.53613,-0.764778 0.59893,-1.237134 0.0942,-0.393027 0.17654,-0.883443 0.23823,-1.390613 0.0617,-0.507185 0.10409,-1.029701 0.11317,-1.482597 0.009,-0.452891 -0.007,-0.827135 -0.0878,-1.087789 -0.13231,-0.42874 -0.46082,-0.742322 -0.81235,-0.88315 -0.17577,-0.07041 -0.3626,-0.09873 -0.54106,-0.05839 -0.17845,0.04034 -0.34387,0.164892 -0.43149,0.349849 -0.15161,0.32001 -0.74952,0.938255 -1.33584,1.32395 -0.29408,0.193451 -2.0221,1.574064 -2.0221,1.574064 0,0 -0.60315,-0.923639 -0.86506,-1.238167 -1.03364,-1.241283 -2.47462,-2.55586 -3.54449,-3.224609 -0.38036,-0.237747 -0.98982,-0.657384 -1.3379,-0.919841 -1.08168,-0.815588 -3.11433,-2.335982 -4.98264,-3.043225 0.0726,-2.156751 -0.54396,-3.418797 -1.68776,-5.126302 -0.47127,-0.727489 -0.96813,-1.291634 -1.41593,-1.677934 -0.44779,-0.386284 -0.82576,-0.615119 -1.07694,-0.606681 z m 0.56689,1.372009 c 0,0 0.48076,0.593188 0.61392,0.774113 0.2663,0.361851 0.59809,0.883362 0.94723,1.529106 0.5903,1.091804 0.91987,2.344056 1.01957,4.064351 -0.0482,2.40004 -0.70878,4.120737 -1.84381,4.955253 -0.51303,0.377201 -0.98085,0.450166 -1.39475,0.335897 -0.41391,-0.114269 -0.78608,-0.430238 -1.05833,-0.886767 -0.54449,-0.913087 -0.66198,-2.366654 0.078,-3.661792 0.24642,-0.431282 0.47621,-0.899774 0.84542,-1.769918 l 0.002,-0.0036 0.002,-0.0041 c 0.79852,-2.078139 0.78859,-5.332491 0.78859,-5.332491 z m -16.74781,4.525822 c 0.0987,0.284351 0.21522,0.605658 0.39687,0.859379 0.18953,0.264724 0.44308,0.587256 0.68523,0.871265 0.24217,0.284009 0.45788,0.521528 0.63304,0.646472 0.32504,0.231872 0.64748,0.471998 1.1405,1.1467 0.58404,1.024524 0.87286,2.075172 0.87488,2.952791 0.002,0.879926 -0.27588,1.568746 -0.79065,1.925981 -0.2215,0.153715 -0.65393,0.278329 -1.06867,0.300757 -0.41472,0.02243 -0.80947,-0.06703 -0.97048,-0.205156 -0.0741,-0.06356 -0.22582,-0.310613 -0.36535,-0.740006 -0.13896,-0.42757 -0.28208,-1.038511 -0.41807,-1.842265 -0.31475,-2.28587 -0.36482,-4.384399 -0.23047,-5.392436 0.0327,-0.24524 0.0737,-0.372841 0.11317,-0.523482 z m 14.51384,1.23455 c -0.13807,0.330293 -0.2757,0.660902 -0.40618,0.992188 -0.7332,1.277149 -0.86258,2.642405 -0.48265,3.753776 0.37992,1.111371 1.28144,1.966026 2.55281,2.195215 1.09405,0.197206 2.0974,-0.387729 2.82619,-1.408183 0.68256,-0.95576 1.12478,-2.319681 1.28726,-3.849378 0.8975,0.457964 1.79235,0.965942 2.72438,1.535307 3.47721,2.124204 5.2843,3.137596 6.42596,5.04672 0.36443,0.609444 0.62735,0.905888 0.62735,0.905888 0,0 -0.34028,0.308856 -0.51211,0.406694 -2.8301,1.611409 -4.39662,4.444189 -4.46794,7.847583 -0.96632,-1.28642 -1.84211,-2.642603 -2.61173,-3.118673 -0.76963,-0.476066 -0.82174,-0.6108 -0.89504,-0.748275 -0.0733,-0.137465 -0.1898,-0.284197 -0.35346,-0.439766 -0.61612,-0.585645 -1.47382,-0.882444 -2.43138,-0.902271 -0.95756,-0.01983 -2.01971,0.2334 -3.06441,0.758094 -0.0697,0.035 -0.1389,0.05801 -0.21756,0.09508 v -0.236161 h -0.007 c 0.0464,-0.02382 0.0917,-0.0516 0.13436,-0.08578 0.74275,-0.59459 1.84501,-1.070034 2.90628,-1.314648 1.06127,-0.244613 2.08469,-0.245528 2.63447,0.01395 0.16494,0.07785 0.27409,0.12591 0.3948,0.14056 0.0604,0.0073 0.15818,0.01222 0.23823,-0.07803 0.08,-0.09025 0.062,-0.194619 0.045,-0.252181 -0.0845,-0.286417 -0.36315,-0.437363 -0.69763,-0.54467 -0.33449,-0.107307 -0.75495,-0.166711 -1.21853,-0.177767 -0.55629,-0.01327 -1.17205,0.0439 -1.7539,0.183452 -0.86033,0.206348 -1.75803,0.575156 -2.40037,0.93741 -0.32117,0.181132 -0.57683,0.356269 -0.74414,0.531234 -0.0837,0.08748 -0.15064,0.173123 -0.17777,0.293005 -0.0271,0.119882 0.0343,0.280738 0.1385,0.353467 v 0.457853 c -0.12876,0.05374 -0.29686,0.137231 -0.37879,0.165365 -0.30803,0.105769 -0.75031,0.372998 -1.06247,0.627352 -0.28385,0.23128 -0.91998,0.718128 -1.4025,1.071769 -0.48787,0.357575 -1.44615,1.076442 -2.0624,1.609721 -0.6012,0.520233 -1.36749,1.132344 -1.6676,1.335836 -0.59962,0.381693 -0.71639,0.901181 -1.47485,0.951363 -0.45829,-0.16109 -0.87261,-0.396213 -1.08572,-0.971 -0.15421,-0.438913 -0.0834,-0.869784 0.29094,-1.124996 0.32606,-0.222237 0.26654,-0.385867 0.0506,-0.64854 -0.25086,-0.305147 -0.73549,-0.348259 -1.17771,0.340031 -0.173,0.2693 -0.3009,0.609839 -0.3607,0.964799 h -0.29559 c -0.0308,-0.769212 -0.1105,-1.341469 -0.25786,-1.748213 -0.0737,-0.20338 -0.16547,-0.368241 -0.29094,-0.489893 -0.12547,-0.121651 -0.29158,-0.193787 -0.46302,-0.193787 -0.3017,0 -0.53023,0.238053 -0.57619,0.502295 -0.046,0.264258 0.0398,0.563782 0.25011,0.816488 0.15006,0.18029 0.24089,0.632247 0.18345,1.449007 -0.0363,0.51678 -0.17306,0.881001 -0.35915,1.105359 -0.18609,0.224358 -0.41612,0.324767 -0.7152,0.318327 -0.59815,-0.01288 -1.47357,-0.530612 -2.33578,-1.614889 -0.92013,-1.157151 -1.8135,-1.870565 -2.68562,-2.103747 -0.87213,-0.233181 -2.42828,0.751375 -2.42828,0.751375 0,0 -0.0642,-0.367454 -0.0382,-0.688847 0.049,-0.607088 0.15555,-1.332505 0.27337,-1.951302 0.11784,-0.61878 0.2617,-1.156262 0.32815,-1.295011 0.42568,-0.888897 1.72202,-3.542855 4.04264,-6.171717 0.14292,0.864191 0.92885,2.418753 2.58641,2.316655 1.05897,-0.06523 2.10505,-0.788353 2.62103,-1.855701 0.58122,-1.202283 0.33436,-3.087798 -0.40618,-4.457092 2.13261,-1.223982 4.69268,-2.117926 7.77524,-2.297017 z m 20.66075,6.785632 c 0,0 -0.0541,0.667351 -0.0749,0.923458 -0.11008,1.352744 -0.2851,2.188738 -0.78083,2.968811 -0.49571,0.780089 -1.33387,1.525107 -2.79311,2.636532 -2.33275,1.776728 -3.6888,3.652512 -3.97081,5.574337 -0.0226,0.154091 -0.0564,0.321035 -0.0899,0.462504 -0.0335,0.141469 -0.0716,0.266687 -0.0858,0.297139 -0.0981,0.211134 -0.0791,0.450678 -0.01,0.691431 0.0692,0.240753 0.19469,0.488416 0.35346,0.726571 0.31758,0.476292 0.76294,0.913384 1.25005,1.064534 0.44842,0.139134 0.97075,0.01308 1.44126,-0.244429 0.47051,-0.25752 0.89537,-0.655687 1.12138,-1.132748 0.0743,-0.15692 0.11576,-0.290445 0.11524,-0.42168 -5.3e-4,-0.13122 -0.0693,-0.288589 -0.20516,-0.345715 -0.13589,-0.05712 -0.26793,-0.01984 -0.38705,0.04082 -0.11913,0.0607 -0.23853,0.157354 -0.36329,0.289388 -0.56318,0.596099 -0.87634,0.780831 -1.12655,0.780831 -0.0903,0 -0.24717,-0.07505 -0.35191,-0.183451 -0.10474,-0.108403 -0.13058,-0.230593 -0.12506,-0.248047 0.0321,-0.101335 0.0256,-0.189219 0.0119,-0.285254 -0.0138,-0.09604 -0.0402,-0.194937 -0.0822,-0.286804 -0.20616,-0.451169 -0.13691,-1.217802 0.1819,-2.015898 0.31883,-0.798079 0.87373,-1.623509 1.55081,-2.212784 0.37981,-0.33055 1.05298,-0.928496 1.49965,-1.332219 0.62566,-0.565496 1.10379,-0.989151 1.46916,-1.275374 0.36538,-0.286223 0.78652,-0.715719 0.78652,-0.715719 0,0 0.47121,0.933052 0.6041,1.369942 0.46527,1.52978 0.30813,3.609445 -0.30076,5.57227 -0.60889,1.962826 -1.66942,3.808681 -2.94918,4.890658 -0.36848,0.311521 -0.9257,0.808795 -1.40249,1.244368 -0.63582,0.626014 -1.02443,1.137884 -1.95131,1.191142 -0.55408,-0.03633 -1.02362,0.741214 -0.97668,1.248503 0.0795,0.198825 0.24918,0.276698 0.48627,0.388606 0.21954,0.10362 0.29552,0.205727 0.30283,0.466639 0.007,0.260896 -0.10164,0.678358 -0.34572,1.261938 -0.42008,1.00438 -2.06893,2.100587 -3.33209,2.701127 -2.7025,1.28488 -3.64189,2.00192 -4.51136,2.5585 -0.86946,0.55661 -1.67807,0.964141 -4.21318,1.681551 -0.47221,0.133639 -0.72478,0.172939 -0.91312,0.234611 -1.3379,-0.31174 -2.49792,-0.719917 -3.14709,-1.406632 0.85773,-0.848074 1.57414,-2.041793 1.98231,-3.462838 0.23258,-0.80975 0.38333,-1.251624 0.47852,-1.399914 0.0476,-0.0742 0.0428,-0.05684 0.0429,-0.05684 9e-5,0 0.0585,0.01281 0.15451,0.06821 1.45979,0.84176 3.52686,0.858574 5.26945,0.371554 0.8713,-0.2435 1.66221,-0.61554 2.25774,-1.09399 0.59553,-0.47845 1.00252,-1.072161 1.05058,-1.749764 0.0157,-0.221195 0.0274,-0.398987 -0.0718,-0.566891 -0.0496,-0.08394 -0.14505,-0.155169 -0.24443,-0.17725 -0.0994,-0.02208 -0.19416,-0.0089 -0.29507,0.01912 -0.40361,0.112278 -0.98406,0.488985 -2.03708,1.193725 -1.4682,0.982597 -2.84375,1.337728 -3.96669,1.132748 -1.12294,-0.205 -2.01771,-0.957927 -2.55643,-2.287199 -0.39064,-0.96393 -0.0802,-2.29837 0.69918,-3.509864 0.77932,-1.211485 2.01381,-2.284274 3.36931,-2.738334 0.19619,-0.06572 0.40489,-0.179474 0.54467,-0.312642 0.1557,-0.148361 0.48592,-0.294846 0.8847,-0.372587 0.39878,-0.07774 0.86646,-0.09345 1.29914,-0.03152 0.37414,0.05355 0.60444,0.08127 0.79272,0.06666 0.18828,-0.01461 0.34741,-0.10215 0.44545,-0.214974 0.0997,-0.114757 0.13822,-0.273607 0.10904,-0.410311 -0.0292,-0.136704 -0.11065,-0.249317 -0.21291,-0.341581 -0.20452,-0.184529 -0.50792,-0.303261 -0.84956,-0.304891 -0.269,-0.0013 -0.38382,-0.03399 -0.42943,-0.0739 -0.0456,-0.03991 -0.0933,-0.149621 -0.13074,-0.416512 -0.33434,-2.385596 -1.26061,-4.216915 -2.75229,-5.384684 l -0.23616,-0.183451 0.0997,-0.04703 c 0.32955,-0.152248 1.023,-0.21855 1.68155,-0.167948 0.65854,0.0506 1.30223,0.228176 1.52549,0.404626 0.17316,0.136858 0.31959,0.222259 0.4625,0.257866 1.54623,0.758832 2.65926,2.181603 3.84421,3.819922 l 0.0207,-0.0186 c 0.0168,0.695314 0.088,1.40993 0.22893,2.143538 0.17904,0.932229 0.30641,1.495271 0.46095,1.836064 0.0773,0.170397 0.1645,0.301572 0.31471,0.366903 0.15021,0.06533 0.31493,0.01913 0.43718,-0.05478 0.14582,-0.08815 0.20101,-0.233696 0.23668,-0.388607 0.0357,-0.15491 0.0465,-0.334008 0.0388,-0.532784 -0.0155,-0.397552 -0.10612,-0.871592 -0.26923,-1.312581 -0.85201,-2.30354 0.28936,-5.990601 2.78122,-8.681641 0.71773,-0.775094 0.88712,-0.904608 2.53887,-1.961121 0.58425,-0.373699 1.18753,-0.773045 1.37511,-0.912089 0.1669,-0.12372 0.53902,-0.395911 0.82424,-0.605647 0.29628,-0.217906 1.11569,-1.067636 1.11569,-1.067636 z m -44.63396,1.77922 c 0,0 1.24389,0.698828 1.5415,0.946712 0.13822,0.115136 0.5791,0.442417 1.01596,0.758094 0.5529,0.399505 0.88264,0.826403 1.05472,1.181323 0.17209,0.354907 0.16494,0.648088 0.13436,0.716752 -0.0508,0.113955 -0.0947,0.284076 -0.15245,0.521932 -0.0577,0.237857 -0.11946,0.526905 -0.17363,0.812353 -0.0618,0.325646 -0.21342,1.043348 -0.21342,1.043348 0,0 -0.24433,-0.598231 -0.50126,-0.848011 -0.72261,-0.70247 -1.2325,-1.16715 -1.60559,-1.687752 -0.37309,-0.520602 -0.62342,-1.103214 -0.82992,-2.082043 -0.0711,-0.336815 -0.27027,-1.362708 -0.27027,-1.362708 z m 0.45837,4.299479 c 0,0 1.02077,1.028555 1.67121,1.737362 0.76378,0.832326 0.98472,1.347582 0.99581,1.491898 0.0146,0.190338 0.0563,0.971969 0.094,1.715141 -0.0153,0.979058 0.51604,2.326301 -0.11938,1.554427 -0.52351,-0.634788 -1.24559,-2.207783 -1.74614,-3.573942 -0.25027,-0.683074 -0.89555,-2.924886 -0.89555,-2.924886 z m 23.64248,2.289783 c 0.0432,-0.0027 0.0873,-8.94e-4 0.13384,0.0041 h 5.2e-4 c 0.22452,0.02499 0.52903,0.159302 1.00769,0.398425 1.21919,0.609104 2.03685,1.750001 2.30063,2.819983 0.1319,0.534997 0.12546,1.048789 -0.0233,1.467094 -0.14871,0.418316 -0.42931,0.745579 -0.88676,0.939478 -0.98267,0.416513 -1.97568,1.013471 -2.46083,1.505851 -0.25011,0.253821 -0.58278,0.44018 -0.94155,0.5271 -0.97268,0.235643 -2.05975,-0.08597 -2.87114,-0.695048 -0.81138,-0.609087 -1.32701,-1.489131 -1.23042,-2.335775 0.008,-0.07386 0.0184,-0.108649 0.0274,-0.168465 0.53332,1.607825 2.64785,2.090143 3.83749,0.822688 0.29427,-0.313507 0.47018,-0.631871 0.48266,-0.961181 0.0125,-0.32932 -0.14795,-0.638839 -0.42943,-0.906405 l -0.008,-0.0078 -0.008,-0.0057 c -0.41556,-0.326339 -0.83632,-0.764416 -1.3963,-0.931726 -0.19921,-0.07781 -0.34783,-0.147455 -0.38654,-0.179834 -0.004,-0.0031 -0.003,-0.002 -0.005,-0.0036 3.7e-4,0.0044 -0.002,0.0057 0.0145,-0.02532 0.0416,-0.07585 0.18371,-0.235918 0.42944,-0.460953 0.24571,-0.225046 0.59379,-0.523352 1.05678,-0.918291 0.41236,-0.35175 0.70479,-0.591829 0.93172,-0.728121 0.17021,-0.102209 0.29405,-0.148588 0.42427,-0.156579 z m -18.53065,1.465544 c -0.24935,0.58872 -0.37786,1.198074 -0.46612,1.829862 -0.0689,0.534268 -0.11228,1.037063 -0.0527,1.335836 0.046,0.230743 0.14747,0.748705 0.22479,1.150317 0.53095,2.758129 2.48965,4.193036 4.27519,4.201294 0.89277,0.0041 1.74481,-0.354607 2.32441,-1.070736 0.44735,-0.552737 0.72557,-1.313503 0.75809,-2.265494 l 0.83561,0.941544 c -0.0439,0.126936 -0.0891,0.259293 -0.13281,0.345716 -0.13406,0.265033 -0.40429,0.803471 -0.60151,1.195275 -0.23913,0.475063 -0.35449,0.867045 -0.35192,1.226282 0.003,0.359246 0.12788,0.67305 0.32815,0.961182 0.30236,0.435025 0.86075,0.617271 1.37511,0.714685 0.38814,0.07351 0.71813,0.08798 0.95911,0.09302 l -0.96583,1.087789 c -0.10427,-0.0064 -0.21256,-0.0097 -0.31368,-0.0186 -1.78446,-0.157266 -3.05395,-0.706245 -3.62665,-1.548743 -0.11194,-0.164677 -0.28617,-0.264439 -0.46095,-0.275435 -0.64519,0.01686 -0.77256,0.744803 -1.01596,1.238684 -0.0337,0.06509 -0.0868,0.151956 -0.154,0.251664 -0.13431,0.199416 -0.32256,0.447858 -0.53123,0.689364 -0.21505,0.248869 -0.41152,0.485858 -0.55501,0.671793 -0.62888,0.815069 0.0492,0.81956 0.10594,0.818555 0.16934,-0.003 0.3339,-0.07001 0.52297,-0.170015 0.37812,-0.20014 0.83158,-0.554221 1.22111,-0.990121 0.24755,-0.27702 0.65002,-0.259738 0.9648,0.08578 0.15319,0.168153 0.35458,0.324988 0.55087,0.396358 l 0.17932,0.146761 c 0.0858,0.0884 0.17841,0.205387 0.25011,0.318327 0.16844,0.26532 0.44372,0.633561 0.63459,0.849561 0.068,0.0769 0.22634,0.303599 0.40049,0.578259 0.17415,0.27467 0.37072,0.604397 0.54725,0.921907 0.74796,1.345207 2.23087,3.232878 2.23087,3.232878 0,0 -0.76599,0.711924 -1.42627,1.497066 -0.27844,0.331103 -0.536,0.535138 -0.76894,0.659908 -0.1886,-0.225721 -0.40188,-0.469651 -0.55966,-0.669209 -0.332,-0.41995 -0.58284,-0.776799 -0.64802,-0.910539 -0.35579,-0.73001 -1.14971,-1.193902 -1.82263,-1.331702 -0.33646,-0.0689 -0.6531,-0.06713 -0.89452,0.09767 -0.1207,0.0824 -0.21247,0.216896 -0.24184,0.371036 -0.0294,0.15416 0.0763,0.455352 0.27647,0.594796 0.59908,0.481565 1.02954,0.676078 1.58078,1.372009 l -0.0987,0.194821 c -0.28004,0.0036 -1.09135,-0.401304 -1.85053,-1.023194 -0.75917,-0.62188 -1.48505,-1.44844 -1.87483,-2.2071 -0.072,-0.14007 -0.24794,-0.429505 -0.41031,-0.679545 -0.0836,-0.12884 -0.21573,-0.441731 -0.34571,-0.831991 -0.12998,-0.39024 -0.26676,-0.863799 -0.38861,-1.351339 -0.24367,-0.97505 -0.4309,-2.01835 -0.43356,-2.511991 -0.002,-0.336851 0.13145,-1.160729 0.30437,-1.933732 0.0865,-0.386509 0.18257,-0.764718 0.27389,-1.075903 0.0913,-0.311201 0.18528,-0.562553 0.23823,-0.656291 0.0817,-0.144672 0.14566,-0.253687 0.19327,-0.367419 0.0476,-0.113748 0.0739,-0.237698 0.0646,-0.366903 -0.0185,-0.25841 -0.13992,-0.51561 -0.36329,-1.050582 -0.37874,-0.907135 -0.83931,-2.159829 -1.27744,-3.478857 -0.12315,-0.370812 -0.24197,-1.130363 -0.29507,-1.755966 -0.0266,-0.312786 -0.0667,-0.782381 -0.0667,-0.782381 0,0 0.58555,-0.301588 0.75809,-0.418579 0.20013,-0.135712 0.6165,-0.327628 0.6165,-0.327628 z m 1.43195,0.426847 c 0.60266,0.04905 0.70343,0.387087 0.95808,0.636653 -0.0543,-0.104442 -1.0379,0.509515 -1.11207,0.994772 -0.0586,0.383135 -0.14427,0.761788 -0.0372,1.191142 0.3595,1.441653 2.64052,1.639838 2.96106,0.967899 l 0.36173,-0.597379 0.15607,0.0708 c 0.1267,0.05778 0.25183,0.130205 0.3731,0.1757 0.12127,0.0455 0.2188,0.0801 0.3359,0.0801 0.26218,0 0.36232,0.09945 0.43149,0.320394 0.0692,0.220929 0.0536,0.569572 -0.0527,0.945161 -0.27584,0.974389 -0.92611,2.172635 -2.44532,1.869137 -0.72603,-0.145053 -1.41274,-0.857861 -1.83814,-1.81591 -0.42538,-0.958049 -0.87973,-2.142115 -0.61805,-3.152779 0.14252,-0.550383 0.52607,-1.685685 0.52607,-1.685685 z m 14.30301,1.138948 h 0.0196 l 0.0196,0.0041 c 0.2093,0.04238 0.43129,0.134073 0.61701,0.271301 0.18264,0.134943 0.34125,0.329251 0.34365,0.578259 0.0451,0.573767 -0.14352,1.033205 -0.50591,1.224732 -0.36527,0.193038 -0.84232,0.06095 -1.21285,-0.357601 -0.30741,-0.347271 -0.44527,-0.760103 -0.32608,-1.121379 0.1192,-0.361277 0.50501,-0.599447 1.0449,-0.599447 z m -12.99404,0.19172 c 0.28774,0.0067 0.53552,0.106833 0.69711,0.292489 0.16159,0.185647 0.23021,0.434364 0.23461,0.711067 0.004,0.264661 -0.11198,0.510146 -0.28112,0.695565 -0.16914,0.185419 -0.40092,0.32256 -0.66042,0.31626 -0.2752,-0.0067 -0.50317,-0.163355 -0.66404,-0.353467 -0.16087,-0.190113 -0.26556,-0.419526 -0.26562,-0.654224 -2.2e-4,-0.274762 0.0679,-0.529375 0.23048,-0.718819 0.16258,-0.189443 0.41717,-0.294071 0.709,-0.288871 z m 6.01048,0.432532 c 0.16645,0.27006 0.41348,0.513585 0.72657,0.758093 0.48353,0.377621 1.16524,0.647596 1.97973,0.656807 0.3649,0.0041 0.64544,0.07596 0.64544,0.07596 0,0 0.26945,0.892901 0.53846,1.332218 0.26902,0.439327 0.58005,0.852531 0.8692,1.086239 0.45681,0.369211 1.10258,0.750999 1.71049,1.046964 0.30395,0.147988 0.5991,0.27393 0.85576,0.364836 0.25667,0.09091 0.46681,0.150468 0.65009,0.152445 0.13321,0.0014 0.22235,0.0082 0.26769,0.01757 -0.002,0.01403 -0.002,0.04112 -0.0351,0.132809 -0.0414,0.114456 -0.11356,0.277847 -0.21291,0.492476 -0.18203,0.393259 -0.36157,1.052824 -0.42168,1.53324 -0.0325,0.259876 -0.0477,0.444446 -0.0724,0.560173 -0.0247,0.115717 -0.0421,0.147462 -0.0977,0.191719 -0.11107,0.08851 -0.4964,0.189971 -1.35134,0.409794 -2.0358,0.523445 -3.90026,0.771292 -5.4808,0.769979 l 1.03766,-1.168921 0.92243,-0.182418 -0.26097,-0.412894 c -0.14321,-0.226954 -1.37896,-0.385905 -1.63866,-0.536918 -0.70246,-0.199057 -1.49288,-0.409787 -1.45004,-1.087273 0.15836,-0.547378 0.85554,-1.553052 1.0418,-2.260327 0.10984,-0.417101 0.21317,-0.972536 0.094,-1.285193 -0.0408,-0.106984 -0.12769,-0.216034 -0.25425,-0.255798 -0.55817,-0.172993 -0.63234,0.36555 -0.7276,0.81132 l -1.0676,-1.202511 c -0.0205,-0.195498 -0.0247,-0.301228 0.0222,-0.40566 0.0557,-0.12383 0.21465,-0.317156 0.5488,-0.699182 l 0.72657,-0.864546 z m 7.4564,10.076904 c 0.19831,0.0154 0.27794,0.08325 0.13849,0.234611 -0.14163,0.153698 -0.42718,0.351579 -0.80667,0.548804 -0.75898,0.39444 -1.8973,0.800483 -3.11299,1.075903 -1.17005,0.26508 -2.06136,0.357978 -2.74247,0.27957 -0.68111,-0.07842 -1.14985,-0.315509 -1.53117,-0.732772 -0.0941,-0.103024 -0.13281,-0.166909 -0.15606,-0.206706 0.0476,-0.01949 0.13739,-0.04894 0.31626,-0.07235 0.20654,-0.02703 0.49342,-0.04941 0.86713,-0.07235 2.5131,-0.15424 3.73531,-0.320897 4.85551,-0.671794 0.33272,-0.104219 1.34595,-0.346359 1.93787,-0.381888 0.0888,-0.0053 0.16799,-0.0062 0.2341,-10e-4 z m -0.90641,2.691825 c 0.78702,-0.05626 1.48016,0.777501 1.50223,0.851111 0.0759,0.25316 -0.0244,0.530507 -0.24649,0.857312 -0.40606,0.597536 -0.53777,0.848989 -1.76217,1.677417 -0.44838,0.303364 -1.15987,0.47885 -1.88826,0.557589 -0.72839,0.07873 -1.45039,0.05959 -1.93166,-0.148311 -0.68618,-0.296413 -1.08831,-0.458404 -1.29139,-0.837159 -0.10155,-0.189377 -0.0977,-0.443231 -0.0253,-0.640271 0.0724,-0.197038 0.1926,-0.376011 0.35088,-0.587044 0.46002,-0.613369 0.98402,-1.065839 1.48053,-1.305347 0.49652,-0.239501 1.00417,-0.280044 1.34824,0.07545 0.0626,0.06463 0.11598,0.118645 0.16691,0.193787 0.0509,0.07514 0.0979,0.201718 0.0889,0.325044 -0.0182,0.246665 -0.12867,0.353114 -0.27905,0.579293 -0.11439,0.172048 -0.13404,0.256573 -0.15968,0.336414 0.0487,-0.01309 0.0676,-0.0073 0.15089,-0.05943 0.14767,-0.09236 0.3347,-0.24949 0.53072,-0.476457 0.50539,-0.585156 1.08015,-1.025943 1.62316,-1.316199 0.11457,-0.04918 0.22915,-0.07516 0.34158,-0.0832 z m -5.32991,4.402832 c 0.54933,0.44849 1.14989,0.79545 1.87121,1.102775 1.10179,0.46945 3.2923,-0.647505 3.2923,-0.647505 l 0.48473,0.426847 c -0.17053,0.02021 -0.41424,0.216973 -0.76946,0.54467 -0.74499,0.687245 -2.04969,1.065879 -3.07372,0.544669 -1.1858,-0.603544 -1.24976,0.0028 -1.21749,0.310059 0.0223,0.21272 0.11563,0.389391 0.23822,0.558105 0.24518,0.337421 0.63034,0.64089 1.05937,0.725021 0.54676,0.107211 1.67367,0.01963 2.43086,-0.15658 0.41216,-0.09589 0.85663,-0.442477 1.23041,-0.839225 0.1869,-0.198375 0.35393,-0.410697 0.47905,-0.621151 0.12511,-0.210445 0.19688,-0.374098 0.19688,-0.556038 0,-0.0474 -0.007,-0.0897 -0.0114,-0.133325 0.53909,0.345817 1.76753,0.563925 2.41691,0.659391 0.009,0.05408 0.0154,0.107657 0.0439,0.163297 0.0379,0.0738 0.11003,0.141977 0.18758,0.177767 0.1551,0.0716 0.31468,0.06873 0.5762,0.06873 0.15649,0 0.2373,0.03493 0.27905,0.07183 0.0417,0.0369 0.0664,0.08789 0.0682,0.189653 0.004,0.20353 -0.13085,0.572841 -0.39429,0.978751 -0.52686,0.81183 -1.53084,1.790051 -2.61741,2.347661 -0.96591,0.49567 -2.32956,0.466566 -3.78478,-0.127124 -0.2229,-0.091 -0.44959,-0.174078 -0.98547,-0.322978 -0.53588,-0.1489 -0.72594,-0.225963 -0.92863,-0.315743 -0.40538,-0.17954 -0.86014,-0.410046 -1.16013,-0.597896 -0.0983,-0.0616 -0.41235,-0.348401 -0.77567,-0.726571 -0.36334,-0.37816 -1.22731,-1.320333 -1.22731,-1.320333 0,0 0.55512,-0.503292 0.84284,-0.845426 0.62086,-0.738277 1.00707,-1.279211 1.24798,-1.659331 z" /></g></g></svg>
